{"glyphs":{"0":{"ha":926,"x_min":0,"x_max":772,"o":"m 463 463 l 309 463 l 309 617 l 463 617 l 463 463 m 154 154 l 0 154 l 0 926 l 154 926 l 154 154 m 772 154 l 617 154 l 617 926 l 772 926 l 772 154 m 617 926 l 154 926 l 154 1080 l 617 1080 l 617 926 m 617 0 l 154 0 l 154 154 l 617 154 l 617 0 z "},"1":{"ha":926,"x_min":0,"x_max":772,"o":"m 463 154 l 772 154 l 772 0 l 0 0 l 0 154 l 309 154 l 309 926 l 0 926 l 0 1080 l 463 1080 l 463 154 z "},"2":{"ha":926,"x_min":0,"x_max":772,"o":"m 154 772 l 0 772 l 0 926 l 154 926 l 154 772 m 617 926 l 154 926 l 154 1080 l 617 1080 l 617 926 m 772 617 l 617 617 l 617 926 l 772 926 l 772 617 m 617 463 l 463 463 l 463 617 l 617 617 l 617 463 m 463 309 l 309 309 l 309 463 l 463 463 l 463 309 m 309 154 l 772 154 l 772 0 l 0 0 l 0 154 l 154 154 l 154 309 l 309 309 l 309 154 z "},"3":{"ha":926,"x_min":0,"x_max":772,"o":"m 154 772 l 0 772 l 0 926 l 154 926 l 154 772 m 617 926 l 154 926 l 154 1080 l 617 1080 l 617 926 m 772 617 l 617 617 l 617 926 l 772 926 l 772 617 m 617 463 l 309 463 l 309 617 l 617 617 l 617 463 m 772 154 l 617 154 l 617 463 l 772 463 l 772 154 m 617 0 l 154 0 l 154 154 l 617 154 l 617 0 m 154 154 l 0 154 l 0 309 l 154 309 l 154 154 z "},"4":{"ha":926,"x_min":0,"x_max":772,"o":"m 309 617 l 154 617 l 154 772 l 309 772 l 309 617 m 617 309 l 617 0 l 463 0 l 463 309 l 0 309 l 0 617 l 154 617 l 154 463 l 463 463 l 463 772 l 309 772 l 309 926 l 463 926 l 463 1080 l 617 1080 l 617 463 l 772 463 l 772 309 l 617 309 z "},"5":{"ha":926,"x_min":0,"x_max":772,"o":"m 772 154 l 617 154 l 617 463 l 772 463 l 772 154 m 617 0 l 154 0 l 154 154 l 617 154 l 617 0 m 154 154 l 0 154 l 0 309 l 154 309 l 154 154 m 154 617 l 617 617 l 617 463 l 0 463 l 0 1080 l 772 1080 l 772 926 l 154 926 l 154 617 z "},"6":{"ha":926,"x_min":0,"x_max":772,"o":"m 617 0 l 154 0 l 154 154 l 617 154 l 617 0 m 772 772 l 617 772 l 617 926 l 772 926 l 772 772 m 617 926 l 154 926 l 154 1080 l 617 1080 l 617 926 m 154 463 l 154 154 l 0 154 l 0 926 l 154 926 l 154 617 l 617 617 l 617 463 l 154 463 m 772 154 l 617 154 l 617 463 l 772 463 l 772 154 z "},"7":{"ha":926,"x_min":0,"x_max":772,"o":"m 154 0 l 0 0 l 0 154 l 154 154 l 154 0 m 309 154 l 154 154 l 154 309 l 309 309 l 309 154 m 463 309 l 309 309 l 309 463 l 463 463 l 463 309 m 617 463 l 463 463 l 463 617 l 617 617 l 617 463 m 617 926 l 0 926 l 0 1080 l 772 1080 l 772 617 l 617 617 l 617 926 z "},"8":{"ha":926,"x_min":0,"x_max":772,"o":"m 617 0 l 154 0 l 154 154 l 617 154 l 617 0 m 154 154 l 0 154 l 0 463 l 154 463 l 154 154 m 772 154 l 617 154 l 617 463 l 772 463 l 772 154 m 617 463 l 154 463 l 154 617 l 617 617 l 617 463 m 617 926 l 154 926 l 154 1080 l 617 1080 l 617 926 m 154 617 l 0 617 l 0 926 l 154 926 l 154 617 m 772 617 l 617 617 l 617 926 l 772 926 l 772 617 z "},"9":{"ha":926,"x_min":0,"x_max":772,"o":"m 617 0 l 154 0 l 154 154 l 617 154 l 617 0 m 617 926 l 154 926 l 154 1080 l 617 1080 l 617 926 m 154 617 l 0 617 l 0 926 l 154 926 l 154 617 m 154 154 l 0 154 l 0 309 l 154 309 l 154 154 m 617 463 l 154 463 l 154 617 l 617 617 l 617 926 l 772 926 l 772 154 l 617 154 l 617 463 z "},"\u0000":{"ha":926,"x_min":0,"x_max":772,"o":"m 0 1080 l 772 1080 l 772 0 l 0 0 l 0 1080 m 154 926 l 154 154 l 617 154 l 617 926 l 154 926 z "},"\u001d":{"ha":926,"x_min":0,"x_max":772,"o":"m 0 1080 l 772 1080 l 772 0 l 0 0 l 0 1080 m 154 926 l 154 154 l 617 154 l 617 926 l 154 926 z "}," ":{"ha":463,"x_min":0,"x_max":0,"o":""}," ":{"ha":463,"x_min":0,"x_max":0,"o":""},"!":{"ha":309,"x_min":0,"x_max":154,"o":"m 154 0 l 0 0 l 0 154 l 154 154 l 154 0 m 154 309 l 0 309 l 0 1080 l 154 1080 l 154 309 z "},"\"":{"ha":617,"x_min":0,"x_max":463,"o":"m 154 772 l 0 772 l 0 1080 l 154 1080 l 154 772 m 463 772 l 309 772 l 309 1080 l 463 1080 l 463 772 z "},"#":{"ha":926,"x_min":0,"x_max":772,"o":"m 154 309 l 154 772 l 0 772 l 0 926 l 154 926 l 154 1080 l 309 1080 l 309 926 l 463 926 l 463 1080 l 617 1080 l 617 926 l 772 926 l 772 772 l 617 772 l 617 309 l 772 309 l 772 154 l 617 154 l 617 0 l 463 0 l 463 154 l 309 154 l 309 0 l 154 0 l 154 154 l 0 154 l 0 309 l 154 309 m 309 772 l 309 309 l 463 309 l 463 772 l 309 772 z "},"$":{"ha":926,"x_min":0,"x_max":772,"o":"m 154 154 l 0 154 l 0 309 l 154 309 l 154 154 m 463 154 l 617 154 l 617 0 l 463 0 l 463 -154 l 309 -154 l 309 0 l 154 0 l 154 154 l 309 154 l 309 463 l 154 463 l 154 617 l 309 617 l 309 926 l 154 926 l 154 1080 l 309 1080 l 309 1235 l 463 1235 l 463 1080 l 617 1080 l 617 926 l 463 926 l 463 617 l 617 617 l 617 463 l 463 463 l 463 154 m 154 617 l 0 617 l 0 926 l 154 926 l 154 617 m 772 772 l 617 772 l 617 926 l 772 926 l 772 772 m 772 154 l 617 154 l 617 463 l 772 463 l 772 154 z "},"%":{"ha":926,"x_min":0,"x_max":772,"o":"m 154 0 l 0 0 l 0 309 l 154 309 l 154 0 m 772 772 l 617 772 l 617 1080 l 772 1080 l 772 772 m 309 309 l 154 309 l 154 463 l 309 463 l 309 309 m 463 463 l 309 463 l 309 617 l 463 617 l 463 463 m 617 617 l 463 617 l 463 772 l 617 772 l 617 617 m 309 772 l 0 772 l 0 1080 l 309 1080 l 309 772 m 772 0 l 463 0 l 463 309 l 772 309 l 772 0 z "},"&":{"ha":926,"x_min":0,"x_max":772,"o":"m 309 926 l 154 926 l 154 1080 l 309 1080 l 309 926 m 772 0 l 617 0 l 617 154 l 772 154 l 772 0 m 617 154 l 463 154 l 463 309 l 617 309 l 617 154 m 463 309 l 309 309 l 309 463 l 463 463 l 463 309 m 309 463 l 154 463 l 154 617 l 309 617 l 309 463 m 154 617 l 0 617 l 0 926 l 154 926 l 154 617 m 463 617 l 309 617 l 309 926 l 463 926 l 463 617 m 463 0 l 154 0 l 154 154 l 463 154 l 463 0 m 154 154 l 0 154 l 0 463 l 154 463 l 154 154 m 772 309 l 617 309 l 617 463 l 772 463 l 772 309 z "},"'":{"ha":309,"x_min":0,"x_max":154,"o":"m 154 772 l 0 772 l 0 1080 l 154 1080 l 154 772 z "},"(":{"ha":617,"x_min":0,"x_max":463,"o":"m 154 154 l 0 154 l 0 772 l 154 772 l 154 154 m 463 -154 l 309 -154 l 309 0 l 463 0 l 463 -154 m 463 926 l 309 926 l 309 1080 l 463 1080 l 463 926 m 309 0 l 154 0 l 154 154 l 309 154 l 309 0 m 309 772 l 154 772 l 154 926 l 309 926 l 309 772 z "},")":{"ha":617,"x_min":0,"x_max":463,"o":"m 309 154 l 309 772 l 463 772 l 463 154 l 309 154 m 0 -154 l 0 0 l 154 0 l 154 -154 l 0 -154 m 0 926 l 0 1080 l 154 1080 l 154 926 l 0 926 m 154 0 l 154 154 l 309 154 l 309 0 l 154 0 m 154 772 l 154 926 l 309 926 l 309 772 l 154 772 z "},"*":{"ha":617,"x_min":0,"x_max":463,"o":"m 154 926 l 0 926 l 0 1080 l 154 1080 l 154 926 m 154 617 l 0 617 l 0 772 l 154 772 l 154 617 m 309 772 l 154 772 l 154 926 l 309 926 l 309 772 m 463 926 l 309 926 l 309 1080 l 463 1080 l 463 926 m 463 617 l 309 617 l 309 772 l 463 772 l 463 617 z "},"+":{"ha":617,"x_min":0,"x_max":463,"o":"m 309 617 l 463 617 l 463 463 l 309 463 l 309 309 l 154 309 l 154 463 l 0 463 l 0 617 l 154 617 l 154 772 l 309 772 l 309 617 z "},",":{"ha":309,"x_min":0,"x_max":154,"o":"m 154 -154 l 0 -154 l 0 154 l 154 154 l 154 -154 z "},"-":{"ha":617,"x_min":0,"x_max":463,"o":"m 463 463 l 0 463 l 0 617 l 463 617 l 463 463 z "},"­":{"ha":617,"x_min":0,"x_max":463,"o":"m 463 463 l 0 463 l 0 617 l 463 617 l 463 463 z "},".":{"ha":309,"x_min":0,"x_max":154,"o":"m 154 0 l 0 0 l 0 154 l 154 154 l 154 0 z "},"/":{"ha":926,"x_min":0,"x_max":772,"o":"m 154 0 l 0 0 l 0 309 l 154 309 l 154 0 m 772 772 l 617 772 l 617 1080 l 772 1080 l 772 772 m 309 309 l 154 309 l 154 463 l 309 463 l 309 309 m 463 463 l 309 463 l 309 617 l 463 617 l 463 463 m 617 617 l 463 617 l 463 772 l 617 772 l 617 617 z "},":":{"ha":309,"x_min":0,"x_max":154,"o":"m 154 0 l 0 0 l 0 154 l 154 154 l 154 0 m 154 617 l 0 617 l 0 772 l 154 772 l 154 617 z "},";":{"ha":309,"x_min":0,"x_max":154,"o":"m 154 617 l 0 617 l 0 772 l 154 772 l 154 617 m 154 -154 l 0 -154 l 0 154 l 154 154 l 154 -154 z "},"<":{"ha":617,"x_min":0,"x_max":463,"o":"m 154 463 l 0 463 l 0 617 l 154 617 l 154 463 m 309 617 l 154 617 l 154 772 l 309 772 l 309 617 m 463 772 l 309 772 l 309 926 l 463 926 l 463 772 m 309 309 l 154 309 l 154 463 l 309 463 l 309 309 m 463 154 l 309 154 l 309 309 l 463 309 l 463 154 z "},"=":{"ha":617,"x_min":0,"x_max":463,"o":"m 463 617 l 0 617 l 0 772 l 463 772 l 463 617 m 463 309 l 0 309 l 0 463 l 463 463 l 463 309 z "},">":{"ha":617,"x_min":0,"x_max":463,"o":"m 309 617 l 463 617 l 463 463 l 309 463 l 309 617 m 154 463 l 309 463 l 309 309 l 154 309 l 154 463 m 0 309 l 154 309 l 154 154 l 0 154 l 0 309 m 154 772 l 309 772 l 309 617 l 154 617 l 154 772 m 0 926 l 154 926 l 154 772 l 0 772 l 0 926 z "},"?":{"ha":926,"x_min":0,"x_max":772,"o":"m 154 772 l 0 772 l 0 926 l 154 926 l 154 772 m 617 926 l 154 926 l 154 1080 l 617 1080 l 617 926 m 772 617 l 617 617 l 617 926 l 772 926 l 772 617 m 617 463 l 463 463 l 463 617 l 617 617 l 617 463 m 463 309 l 309 309 l 309 463 l 463 463 l 463 309 m 463 0 l 309 0 l 309 154 l 463 154 l 463 0 z "},"@":{"ha":926,"x_min":0,"x_max":772,"o":"m 617 926 l 154 926 l 154 154 l 772 154 l 772 0 l 0 0 l 0 1080 l 772 1080 l 772 463 l 309 463 l 309 772 l 463 772 l 463 617 l 617 617 l 617 926 z "},"A":{"ha":926,"x_min":0,"x_max":772,"o":"m 463 926 l 309 926 l 309 1080 l 463 1080 l 463 926 m 154 309 l 154 0 l 0 0 l 0 617 l 154 617 l 154 463 l 617 463 l 617 617 l 772 617 l 772 0 l 617 0 l 617 309 l 154 309 m 617 617 l 463 617 l 463 926 l 617 926 l 617 617 m 309 617 l 154 617 l 154 926 l 309 926 l 309 617 z "},"B":{"ha":926,"x_min":0,"x_max":772,"o":"m 154 154 l 617 154 l 617 0 l 0 0 l 0 1080 l 617 1080 l 617 926 l 154 926 l 154 617 l 617 617 l 617 463 l 154 463 l 154 154 m 772 154 l 617 154 l 617 463 l 772 463 l 772 154 m 772 617 l 617 617 l 617 926 l 772 926 l 772 617 z "},"C":{"ha":926,"x_min":0,"x_max":772,"o":"m 154 154 l 0 154 l 0 926 l 154 926 l 154 154 m 772 154 l 617 154 l 617 309 l 772 309 l 772 154 m 772 772 l 617 772 l 617 926 l 772 926 l 772 772 m 617 0 l 154 0 l 154 154 l 617 154 l 617 0 m 617 926 l 154 926 l 154 1080 l 617 1080 l 617 926 z "},"D":{"ha":926,"x_min":0,"x_max":772,"o":"m 463 1080 l 463 926 l 154 926 l 154 154 l 463 154 l 463 0 l 0 0 l 0 1080 l 463 1080 m 772 309 l 617 309 l 617 772 l 772 772 l 772 309 m 617 772 l 463 772 l 463 926 l 617 926 l 617 772 m 617 154 l 463 154 l 463 309 l 617 309 l 617 154 z "},"E":{"ha":926,"x_min":0,"x_max":772,"o":"m 154 154 l 772 154 l 772 0 l 0 0 l 0 1080 l 772 1080 l 772 926 l 154 926 l 154 617 l 617 617 l 617 463 l 154 463 l 154 154 z "},"F":{"ha":926,"x_min":0,"x_max":772,"o":"m 772 1080 l 772 926 l 154 926 l 154 617 l 617 617 l 617 463 l 154 463 l 154 0 l 0 0 l 0 1080 l 772 1080 z "},"G":{"ha":926,"x_min":0,"x_max":772,"o":"m 154 154 l 0 154 l 0 926 l 154 926 l 154 154 m 617 154 l 617 463 l 309 463 l 309 617 l 772 617 l 772 0 l 154 0 l 154 154 l 617 154 m 617 926 l 154 926 l 154 1080 l 617 1080 l 617 926 z "},"H":{"ha":926,"x_min":0,"x_max":772,"o":"m 154 463 l 154 0 l 0 0 l 0 1080 l 154 1080 l 154 617 l 617 617 l 617 1080 l 772 1080 l 772 0 l 617 0 l 617 463 l 154 463 z "},"I":{"ha":617,"x_min":0,"x_max":463,"o":"m 463 1080 l 463 926 l 309 926 l 309 154 l 463 154 l 463 0 l 0 0 l 0 154 l 154 154 l 154 926 l 0 926 l 0 1080 l 463 1080 z "},"J":{"ha":772,"x_min":0,"x_max":617,"o":"m 617 154 l 463 154 l 463 1080 l 617 1080 l 617 154 m 463 0 l 154 0 l 154 154 l 463 154 l 463 0 m 154 154 l 0 154 l 0 463 l 154 463 l 154 154 z "},"K":{"ha":926,"x_min":0,"x_max":772,"o":"m 154 463 l 154 0 l 0 0 l 0 1080 l 154 1080 l 154 617 l 309 617 l 309 463 l 154 463 m 772 926 l 617 926 l 617 1080 l 772 1080 l 772 926 m 617 772 l 463 772 l 463 926 l 617 926 l 617 772 m 463 617 l 309 617 l 309 772 l 463 772 l 463 617 m 772 0 l 617 0 l 617 154 l 772 154 l 772 0 m 617 154 l 463 154 l 463 309 l 617 309 l 617 154 m 463 309 l 309 309 l 309 463 l 463 463 l 463 309 z "},"L":{"ha":926,"x_min":0,"x_max":772,"o":"m 0 0 l 0 1080 l 154 1080 l 154 154 l 772 154 l 772 0 l 0 0 z "},"M":{"ha":1235,"x_min":0,"x_max":1080,"o":"m 154 772 l 154 0 l 0 0 l 0 1080 l 154 1080 l 154 926 l 309 926 l 309 772 l 154 772 m 926 772 l 772 772 l 772 926 l 926 926 l 926 1080 l 1080 1080 l 1080 0 l 926 0 l 926 772 m 772 617 l 617 617 l 617 772 l 772 772 l 772 617 m 617 463 l 463 463 l 463 617 l 617 617 l 617 463 m 463 617 l 309 617 l 309 772 l 463 772 l 463 617 z "},"N":{"ha":1080,"x_min":0,"x_max":926,"o":"m 463 617 l 309 617 l 309 926 l 463 926 l 463 617 m 617 309 l 463 309 l 463 617 l 617 617 l 617 309 m 154 926 l 154 0 l 0 0 l 0 1080 l 309 1080 l 309 926 l 154 926 m 772 309 l 772 1080 l 926 1080 l 926 0 l 772 0 l 772 154 l 617 154 l 617 309 l 772 309 z "},"O":{"ha":926,"x_min":0,"x_max":772,"o":"m 154 154 l 0 154 l 0 926 l 154 926 l 154 154 m 772 154 l 617 154 l 617 926 l 772 926 l 772 154 m 617 926 l 154 926 l 154 1080 l 617 1080 l 617 926 m 617 0 l 154 0 l 154 154 l 617 154 l 617 0 z "},"P":{"ha":926,"x_min":0,"x_max":772,"o":"m 772 617 l 617 617 l 617 926 l 772 926 l 772 617 m 617 1080 l 617 926 l 154 926 l 154 617 l 617 617 l 617 463 l 154 463 l 154 0 l 0 0 l 0 1080 l 617 1080 z "},"Q":{"ha":926,"x_min":0,"x_max":772,"o":"m 154 154 l 0 154 l 0 926 l 154 926 l 154 154 m 617 926 l 154 926 l 154 1080 l 617 1080 l 617 926 m 463 309 l 309 309 l 309 463 l 463 463 l 463 309 m 617 154 l 463 154 l 463 309 l 617 309 l 617 154 m 772 0 l 617 0 l 617 154 l 772 154 l 772 0 m 772 309 l 617 309 l 617 926 l 772 926 l 772 309 m 463 0 l 154 0 l 154 154 l 463 154 l 463 0 z "},"R":{"ha":926,"x_min":0,"x_max":772,"o":"m 772 617 l 617 617 l 617 926 l 772 926 l 772 617 m 772 0 l 617 0 l 617 154 l 772 154 l 772 0 m 617 154 l 463 154 l 463 309 l 617 309 l 617 154 m 617 1080 l 617 926 l 154 926 l 154 617 l 617 617 l 617 463 l 463 463 l 463 309 l 309 309 l 309 463 l 154 463 l 154 0 l 0 0 l 0 1080 l 617 1080 z "},"S":{"ha":926,"x_min":0,"x_max":772,"o":"m 154 154 l 0 154 l 0 309 l 154 309 l 154 154 m 617 0 l 154 0 l 154 154 l 617 154 l 617 0 m 772 154 l 617 154 l 617 463 l 772 463 l 772 154 m 617 926 l 154 926 l 154 1080 l 617 1080 l 617 926 m 772 772 l 617 772 l 617 926 l 772 926 l 772 772 m 154 617 l 0 617 l 0 926 l 154 926 l 154 617 m 617 463 l 154 463 l 154 617 l 617 617 l 617 463 z "},"T":{"ha":926,"x_min":0,"x_max":772,"o":"m 309 926 l 0 926 l 0 1080 l 772 1080 l 772 926 l 463 926 l 463 0 l 309 0 l 309 926 z "},"U":{"ha":926,"x_min":0,"x_max":772,"o":"m 154 154 l 0 154 l 0 1080 l 154 1080 l 154 154 m 617 0 l 154 0 l 154 154 l 617 154 l 617 0 m 772 154 l 617 154 l 617 1080 l 772 1080 l 772 154 z "},"V":{"ha":926,"x_min":0,"x_max":772,"o":"m 463 0 l 309 0 l 309 309 l 463 309 l 463 0 m 309 309 l 154 309 l 154 617 l 309 617 l 309 309 m 617 309 l 463 309 l 463 617 l 617 617 l 617 309 m 154 617 l 0 617 l 0 1080 l 154 1080 l 154 617 m 772 617 l 617 617 l 617 1080 l 772 1080 l 772 617 z "},"W":{"ha":1235,"x_min":0,"x_max":1080,"o":"m 154 309 l 0 309 l 0 1080 l 154 1080 l 154 309 m 617 617 l 463 617 l 463 926 l 617 926 l 617 617 m 1080 309 l 926 309 l 926 1080 l 1080 1080 l 1080 309 m 309 0 l 154 0 l 154 309 l 309 309 l 309 0 m 926 0 l 772 0 l 772 309 l 926 309 l 926 0 m 463 309 l 309 309 l 309 617 l 463 617 l 463 309 m 772 309 l 617 309 l 617 617 l 772 617 l 772 309 z "},"X":{"ha":926,"x_min":0,"x_max":772,"o":"m 154 772 l 0 772 l 0 1080 l 154 1080 l 154 772 m 772 772 l 617 772 l 617 1080 l 772 1080 l 772 772 m 154 0 l 0 0 l 0 309 l 154 309 l 154 0 m 772 0 l 617 0 l 617 309 l 772 309 l 772 0 m 463 463 l 309 463 l 309 617 l 463 617 l 463 463 m 309 617 l 154 617 l 154 772 l 309 772 l 309 617 m 617 617 l 463 617 l 463 772 l 617 772 l 617 617 m 309 309 l 154 309 l 154 463 l 309 463 l 309 309 m 617 309 l 463 309 l 463 463 l 617 463 l 617 309 z "},"Y":{"ha":926,"x_min":0,"x_max":772,"o":"m 154 617 l 0 617 l 0 1080 l 154 1080 l 154 617 m 463 463 l 463 0 l 309 0 l 309 463 l 154 463 l 154 617 l 617 617 l 617 463 l 463 463 m 772 617 l 617 617 l 617 1080 l 772 1080 l 772 617 z "},"Z":{"ha":926,"x_min":0,"x_max":772,"o":"m 154 154 l 772 154 l 772 0 l 0 0 l 0 309 l 154 309 l 154 154 m 617 617 l 463 617 l 463 772 l 617 772 l 617 617 m 463 463 l 309 463 l 309 617 l 463 617 l 463 463 m 309 309 l 154 309 l 154 463 l 309 463 l 309 309 m 617 926 l 0 926 l 0 1080 l 772 1080 l 772 772 l 617 772 l 617 926 z "},"[":{"ha":617,"x_min":0,"x_max":463,"o":"m 463 1080 l 463 926 l 154 926 l 154 0 l 463 0 l 463 -154 l 0 -154 l 0 1080 l 463 1080 z "},"\\":{"ha":926,"x_min":0,"x_max":772,"o":"m 617 0 l 617 309 l 772 309 l 772 0 l 617 0 m 0 772 l 0 1080 l 154 1080 l 154 772 l 0 772 m 463 309 l 463 463 l 617 463 l 617 309 l 463 309 m 309 463 l 309 617 l 463 617 l 463 463 l 309 463 m 154 617 l 154 772 l 309 772 l 309 617 l 154 617 z "},"]":{"ha":617,"x_min":0,"x_max":463,"o":"m 0 -154 l 0 0 l 309 0 l 309 926 l 0 926 l 0 1080 l 463 1080 l 463 -154 l 0 -154 z "},"^":{"ha":926,"x_min":0,"x_max":772,"o":"m 463 926 l 309 926 l 309 1080 l 463 1080 l 463 926 m 617 772 l 463 772 l 463 926 l 617 926 l 617 772 m 772 617 l 617 617 l 617 772 l 772 772 l 772 617 m 309 772 l 154 772 l 154 926 l 309 926 l 309 772 m 154 617 l 0 617 l 0 772 l 154 772 l 154 617 z "},"_":{"ha":617,"x_min":0,"x_max":463,"o":"m 463 -154 l 0 -154 l 0 0 l 463 0 l 463 -154 z "},"`":{"ha":926,"x_min":154,"x_max":463,"o":"m 309 1235 l 154 1235 l 154 1389 l 309 1389 l 309 1235 m 463 1080 l 309 1080 l 309 1235 l 463 1235 l 463 1080 z "},"a":{"ha":926,"x_min":0,"x_max":772,"o":"m 154 154 l 0 154 l 0 617 l 154 617 l 154 154 m 617 463 l 463 463 l 463 617 l 617 617 l 617 772 l 772 772 l 772 0 l 617 0 l 617 154 l 463 154 l 463 309 l 617 309 l 617 463 m 463 0 l 154 0 l 154 154 l 463 154 l 463 0 m 463 617 l 154 617 l 154 772 l 463 772 l 463 617 z "},"b":{"ha":926,"x_min":0,"x_max":772,"o":"m 617 154 l 617 617 l 772 617 l 772 154 l 617 154 m 154 617 l 309 617 l 309 463 l 154 463 l 154 309 l 309 309 l 309 154 l 154 154 l 154 0 l 0 0 l 0 1080 l 154 1080 l 154 617 m 309 0 l 309 154 l 617 154 l 617 0 l 309 0 m 309 617 l 309 772 l 617 772 l 617 617 l 309 617 z "},"c":{"ha":926,"x_min":0,"x_max":772,"o":"m 154 154 l 0 154 l 0 617 l 154 617 l 154 154 m 772 617 l 154 617 l 154 772 l 772 772 l 772 617 m 772 0 l 154 0 l 154 154 l 772 154 l 772 0 z "},"d":{"ha":926,"x_min":0,"x_max":772,"o":"m 154 154 l 0 154 l 0 617 l 154 617 l 154 154 m 617 463 l 463 463 l 463 617 l 617 617 l 617 1080 l 772 1080 l 772 0 l 617 0 l 617 154 l 463 154 l 463 309 l 617 309 l 617 463 m 463 0 l 154 0 l 154 154 l 463 154 l 463 0 m 463 617 l 154 617 l 154 772 l 463 772 l 463 617 z "},"e":{"ha":926,"x_min":0,"x_max":772,"o":"m 617 617 l 154 617 l 154 772 l 617 772 l 617 617 m 154 309 l 154 154 l 0 154 l 0 617 l 154 617 l 154 463 l 617 463 l 617 617 l 772 617 l 772 309 l 154 309 m 772 0 l 154 0 l 154 154 l 772 154 l 772 0 z "},"f":{"ha":617,"x_min":0,"x_max":463,"o":"m 309 772 l 463 772 l 463 617 l 309 617 l 309 0 l 154 0 l 154 617 l 0 617 l 0 772 l 154 772 l 154 1080 l 463 1080 l 463 926 l 309 926 l 309 772 z "},"g":{"ha":926,"x_min":0,"x_max":772,"o":"m 154 154 l 0 154 l 0 617 l 154 617 l 154 154 m 617 154 l 463 154 l 463 309 l 617 309 l 617 463 l 463 463 l 463 617 l 617 617 l 617 772 l 772 772 l 772 -154 l 617 -154 l 617 154 m 463 617 l 154 617 l 154 772 l 463 772 l 463 617 m 463 0 l 154 0 l 154 154 l 463 154 l 463 0 m 617 -309 l 154 -309 l 154 -154 l 617 -154 l 617 -309 z "},"h":{"ha":926,"x_min":0,"x_max":772,"o":"m 154 463 l 154 0 l 0 0 l 0 1080 l 154 1080 l 154 617 l 309 617 l 309 463 l 154 463 m 772 0 l 617 0 l 617 617 l 772 617 l 772 0 m 617 617 l 309 617 l 309 772 l 617 772 l 617 617 z "},"i":{"ha":309,"x_min":0,"x_max":154,"o":"m 154 0 l 0 0 l 0 772 l 154 772 l 154 0 m 154 926 l 0 926 l 0 1080 l 154 1080 l 154 926 z "},"j":{"ha":772,"x_min":0,"x_max":617,"o":"m 463 -154 l 154 -154 l 154 0 l 463 0 l 463 -154 m 617 0 l 463 0 l 463 772 l 617 772 l 617 0 m 617 926 l 463 926 l 463 1080 l 617 1080 l 617 926 m 154 0 l 0 0 l 0 154 l 154 154 l 154 0 z "},"k":{"ha":772,"x_min":0,"x_max":617,"o":"m 617 0 l 463 0 l 463 154 l 617 154 l 617 0 m 154 309 l 154 0 l 0 0 l 0 1080 l 154 1080 l 154 463 l 309 463 l 309 309 l 154 309 m 463 463 l 309 463 l 309 617 l 463 617 l 463 463 m 617 617 l 463 617 l 463 772 l 617 772 l 617 617 m 463 154 l 309 154 l 309 309 l 463 309 l 463 154 z "},"l":{"ha":309,"x_min":0,"x_max":154,"o":"m 154 0 l 0 0 l 0 1080 l 154 1080 l 154 0 z "},"m":{"ha":1235,"x_min":0,"x_max":1080,"o":"m 617 0 l 463 0 l 463 617 l 617 617 l 617 0 m 463 772 l 463 617 l 154 617 l 154 0 l 0 0 l 0 772 l 463 772 m 926 617 l 617 617 l 617 772 l 926 772 l 926 617 m 1080 0 l 926 0 l 926 617 l 1080 617 l 1080 0 z "},"n":{"ha":926,"x_min":0,"x_max":772,"o":"m 154 463 l 154 0 l 0 0 l 0 772 l 154 772 l 154 617 l 309 617 l 309 463 l 154 463 m 772 0 l 617 0 l 617 617 l 772 617 l 772 0 m 617 617 l 309 617 l 309 772 l 617 772 l 617 617 z "},"o":{"ha":926,"x_min":0,"x_max":772,"o":"m 154 154 l 0 154 l 0 617 l 154 617 l 154 154 m 617 617 l 154 617 l 154 772 l 617 772 l 617 617 m 772 154 l 617 154 l 617 617 l 772 617 l 772 154 m 617 0 l 154 0 l 154 154 l 617 154 l 617 0 z "},"p":{"ha":926,"x_min":0,"x_max":772,"o":"m 617 154 l 617 617 l 772 617 l 772 154 l 617 154 m 154 309 l 309 309 l 309 154 l 154 154 l 154 -309 l 0 -309 l 0 772 l 154 772 l 154 617 l 309 617 l 309 463 l 154 463 l 154 309 m 309 617 l 309 772 l 617 772 l 617 617 l 309 617 m 309 0 l 309 154 l 617 154 l 617 0 l 309 0 z "},"q":{"ha":926,"x_min":0,"x_max":772,"o":"m 154 154 l 0 154 l 0 617 l 154 617 l 154 154 m 617 154 l 463 154 l 463 309 l 617 309 l 617 463 l 463 463 l 463 617 l 617 617 l 617 772 l 772 772 l 772 -309 l 617 -309 l 617 154 m 463 617 l 154 617 l 154 772 l 463 772 l 463 617 m 463 0 l 154 0 l 154 154 l 463 154 l 463 0 z "},"r":{"ha":772,"x_min":0,"x_max":617,"o":"m 463 463 l 309 463 l 309 617 l 463 617 l 463 463 m 617 617 l 463 617 l 463 772 l 617 772 l 617 617 m 154 309 l 154 0 l 0 0 l 0 772 l 154 772 l 154 463 l 309 463 l 309 309 l 154 309 z "},"s":{"ha":926,"x_min":0,"x_max":772,"o":"m 617 0 l 0 0 l 0 154 l 617 154 l 617 0 m 772 154 l 617 154 l 617 309 l 772 309 l 772 154 m 617 309 l 154 309 l 154 463 l 617 463 l 617 309 m 154 463 l 0 463 l 0 617 l 154 617 l 154 463 m 772 617 l 154 617 l 154 772 l 772 772 l 772 617 z "},"t":{"ha":617,"x_min":0,"x_max":463,"o":"m 309 772 l 463 772 l 463 617 l 309 617 l 309 154 l 463 154 l 463 0 l 154 0 l 154 617 l 0 617 l 0 772 l 154 772 l 154 1080 l 309 1080 l 309 772 z "},"u":{"ha":926,"x_min":0,"x_max":772,"o":"m 154 154 l 0 154 l 0 772 l 154 772 l 154 154 m 772 154 l 617 154 l 617 772 l 772 772 l 772 154 m 617 0 l 154 0 l 154 154 l 617 154 l 617 0 z "},"v":{"ha":926,"x_min":0,"x_max":772,"o":"m 463 0 l 309 0 l 309 154 l 463 154 l 463 0 m 309 154 l 154 154 l 154 309 l 309 309 l 309 154 m 617 154 l 463 154 l 463 309 l 617 309 l 617 154 m 154 309 l 0 309 l 0 772 l 154 772 l 154 309 m 772 309 l 617 309 l 617 772 l 772 772 l 772 309 z "},"w":{"ha":1235,"x_min":0,"x_max":1080,"o":"m 154 154 l 0 154 l 0 772 l 154 772 l 154 154 m 309 0 l 154 0 l 154 154 l 309 154 l 309 0 m 617 309 l 463 309 l 463 617 l 617 617 l 617 309 m 926 0 l 772 0 l 772 154 l 926 154 l 926 0 m 1080 154 l 926 154 l 926 772 l 1080 772 l 1080 154 m 463 154 l 309 154 l 309 309 l 463 309 l 463 154 m 772 154 l 617 154 l 617 309 l 772 309 l 772 154 z "},"x":{"ha":926,"x_min":0,"x_max":772,"o":"m 154 0 l 0 0 l 0 154 l 154 154 l 154 0 m 309 154 l 154 154 l 154 309 l 309 309 l 309 154 m 463 309 l 309 309 l 309 463 l 463 463 l 463 309 m 154 617 l 0 617 l 0 772 l 154 772 l 154 617 m 309 463 l 154 463 l 154 617 l 309 617 l 309 463 m 617 154 l 463 154 l 463 309 l 617 309 l 617 154 m 772 0 l 617 0 l 617 154 l 772 154 l 772 0 m 617 463 l 463 463 l 463 617 l 617 617 l 617 463 m 772 617 l 617 617 l 617 772 l 772 772 l 772 617 z "},"y":{"ha":926,"x_min":0,"x_max":772,"o":"m 772 463 l 617 463 l 617 772 l 772 772 l 772 463 m 154 463 l 0 463 l 0 772 l 154 772 l 154 463 m 463 -154 l 309 -154 l 309 154 l 463 154 l 463 -154 m 309 -309 l 0 -309 l 0 -154 l 309 -154 l 309 -309 m 309 154 l 154 154 l 154 463 l 309 463 l 309 154 m 617 154 l 463 154 l 463 463 l 617 463 l 617 154 z "},"z":{"ha":926,"x_min":0,"x_max":772,"o":"m 617 617 l 0 617 l 0 772 l 772 772 l 772 463 l 617 463 l 617 617 m 617 309 l 154 309 l 154 463 l 617 463 l 617 309 m 154 154 l 772 154 l 772 0 l 0 0 l 0 309 l 154 309 l 154 154 z "},"{":{"ha":772,"x_min":0,"x_max":617,"o":"m 154 309 l 0 309 l 0 617 l 154 617 l 154 926 l 309 926 l 309 0 l 154 0 l 154 309 m 617 -154 l 309 -154 l 309 0 l 617 0 l 617 -154 m 617 926 l 309 926 l 309 1080 l 617 1080 l 617 926 z "},"|":{"ha":309,"x_min":0,"x_max":154,"o":"m 154 -154 l 0 -154 l 0 1080 l 154 1080 l 154 -154 z "},"}":{"ha":772,"x_min":0,"x_max":617,"o":"m 463 617 l 617 617 l 617 309 l 463 309 l 463 0 l 309 0 l 309 926 l 463 926 l 463 617 m 0 -154 l 0 0 l 309 0 l 309 -154 l 0 -154 m 0 926 l 0 1080 l 309 1080 l 309 926 l 0 926 z "},"~":{"ha":926,"x_min":0,"x_max":772,"o":"m 154 463 l 0 463 l 0 617 l 154 617 l 154 463 m 309 617 l 154 617 l 154 772 l 309 772 l 309 617 m 463 463 l 309 463 l 309 617 l 463 617 l 463 463 m 617 309 l 463 309 l 463 463 l 617 463 l 617 309 m 772 463 l 617 463 l 617 617 l 772 617 l 772 463 z "},"¡":{"ha":309,"x_min":0,"x_max":154,"o":"m 154 926 l 154 772 l 0 772 l 0 926 l 154 926 m 154 617 l 154 -154 l 0 -154 l 0 617 l 154 617 z "},"¢":{"ha":926,"x_min":0,"x_max":772,"o":"m 154 154 l 0 154 l 0 617 l 154 617 l 154 154 m 463 772 l 772 772 l 772 617 l 463 617 l 463 154 l 772 154 l 772 0 l 463 0 l 463 -154 l 309 -154 l 309 0 l 154 0 l 154 154 l 309 154 l 309 617 l 154 617 l 154 772 l 309 772 l 309 926 l 463 926 l 463 772 z "},"£":{"ha":926,"x_min":0,"x_max":772,"o":"m 617 926 l 309 926 l 309 1080 l 617 1080 l 617 926 m 309 154 l 772 154 l 772 0 l 0 0 l 0 154 l 154 154 l 154 463 l 0 463 l 0 617 l 154 617 l 154 926 l 309 926 l 309 617 l 463 617 l 463 463 l 309 463 l 309 154 m 772 772 l 617 772 l 617 926 l 772 926 l 772 772 z "},"¤":{"ha":926,"x_min":0,"x_max":772,"o":"m 154 154 l 0 154 l 0 309 l 154 309 l 154 154 m 309 617 l 309 463 l 463 463 l 463 617 l 309 617 m 154 772 l 617 772 l 617 309 l 154 309 l 154 772 m 772 772 l 617 772 l 617 926 l 772 926 l 772 772 m 154 772 l 0 772 l 0 926 l 154 926 l 154 772 m 772 154 l 617 154 l 617 309 l 772 309 l 772 154 z "},"¥":{"ha":926,"x_min":0,"x_max":772,"o":"m 154 926 l 0 926 l 0 1080 l 154 1080 l 154 926 m 309 617 l 309 772 l 463 772 l 463 617 l 772 617 l 772 463 l 463 463 l 463 309 l 772 309 l 772 154 l 463 154 l 463 0 l 309 0 l 309 154 l 0 154 l 0 309 l 309 309 l 309 463 l 0 463 l 0 617 l 309 617 m 772 926 l 617 926 l 617 1080 l 772 1080 l 772 926 m 617 772 l 463 772 l 463 926 l 617 926 l 617 772 m 309 772 l 154 772 l 154 926 l 309 926 l 309 772 z "},"¦":{"ha":309,"x_min":0,"x_max":154,"o":"m 154 -154 l 0 -154 l 0 309 l 154 309 l 154 -154 m 154 617 l 0 617 l 0 1080 l 154 1080 l 154 617 z "},"§":{"ha":926,"x_min":0,"x_max":772,"o":"m 154 0 l 0 0 l 0 154 l 154 154 l 154 0 m 617 -154 l 154 -154 l 154 0 l 617 0 l 617 -154 m 772 0 l 617 0 l 617 309 l 772 309 l 772 0 m 617 1080 l 154 1080 l 154 1235 l 617 1235 l 617 1080 m 772 926 l 617 926 l 617 1080 l 772 1080 l 772 926 m 154 772 l 0 772 l 0 1080 l 154 1080 l 154 772 m 617 309 l 154 309 l 154 463 l 617 463 l 617 309 m 617 617 l 154 617 l 154 772 l 617 772 l 617 617 m 154 463 l 0 463 l 0 617 l 154 617 l 154 463 m 772 463 l 617 463 l 617 617 l 772 617 l 772 463 z "},"¨":{"ha":926,"x_min":154,"x_max":617,"o":"m 309 1235 l 154 1235 l 154 1389 l 309 1389 l 309 1235 m 617 1235 l 463 1235 l 463 1389 l 617 1389 l 617 1235 z "},"©":{"ha":1235,"x_min":0,"x_max":1080,"o":"m 926 926 l 154 926 l 154 1080 l 926 1080 l 926 926 m 772 772 l 772 617 l 463 617 l 463 463 l 772 463 l 772 309 l 309 309 l 309 772 l 772 772 m 1080 154 l 926 154 l 926 926 l 1080 926 l 1080 154 m 926 0 l 154 0 l 154 154 l 926 154 l 926 0 m 154 154 l 0 154 l 0 926 l 154 926 l 154 154 z "},"ª":{"ha":926,"x_min":0,"x_max":772,"o":"m 617 926 l 154 926 l 154 1080 l 617 1080 l 617 926 m 154 309 l 154 463 l 617 463 l 617 617 l 154 617 l 154 772 l 617 772 l 617 926 l 772 926 l 772 309 l 154 309 m 154 463 l 0 463 l 0 617 l 154 617 l 154 463 z "},"«":{"ha":926,"x_min":0,"x_max":772,"o":"m 154 309 l 0 309 l 0 463 l 154 463 l 154 309 m 463 617 l 309 617 l 309 772 l 463 772 l 463 617 m 309 463 l 154 463 l 154 617 l 309 617 l 309 463 m 309 154 l 154 154 l 154 309 l 309 309 l 309 154 m 463 0 l 309 0 l 309 154 l 463 154 l 463 0 m 463 309 l 309 309 l 309 463 l 463 463 l 463 309 m 772 617 l 617 617 l 617 772 l 772 772 l 772 617 m 617 463 l 463 463 l 463 617 l 617 617 l 617 463 m 617 154 l 463 154 l 463 309 l 617 309 l 617 154 m 772 0 l 617 0 l 617 154 l 772 154 l 772 0 z "},"¬":{"ha":617,"x_min":0,"x_max":463,"o":"m 309 463 l 0 463 l 0 617 l 463 617 l 463 154 l 309 154 l 309 463 z "},"®":{"ha":1235,"x_min":0,"x_max":1080,"o":"m 463 463 l 463 309 l 309 309 l 309 772 l 617 772 l 617 463 l 463 463 m 926 926 l 1080 926 l 1080 154 l 926 154 l 926 926 m 926 926 l 154 926 l 154 1080 l 926 1080 l 926 926 m 154 154 l 0 154 l 0 926 l 154 926 l 154 154 m 926 0 l 154 0 l 154 154 l 926 154 l 926 0 m 772 309 l 617 309 l 617 463 l 772 463 l 772 309 z "},"¯":{"ha":926,"x_min":154,"x_max":617,"o":"m 617 1235 l 154 1235 l 154 1389 l 617 1389 l 617 1235 z "},"°":{"ha":772,"x_min":0,"x_max":617,"o":"m 463 926 l 154 926 l 154 1080 l 463 1080 l 463 926 m 617 617 l 463 617 l 463 926 l 617 926 l 617 617 m 154 617 l 0 617 l 0 926 l 154 926 l 154 617 m 463 463 l 154 463 l 154 617 l 463 617 l 463 463 z "},"±":{"ha":617,"x_min":0,"x_max":463,"o":"m 309 617 l 463 617 l 463 463 l 309 463 l 309 309 l 154 309 l 154 463 l 0 463 l 0 617 l 154 617 l 154 772 l 309 772 l 309 617 m 463 0 l 0 0 l 0 154 l 463 154 l 463 0 z "},"²":{"ha":926,"x_min":0,"x_max":772,"o":"m 463 926 l 0 926 l 0 1080 l 463 1080 l 463 926 m 463 617 l 309 617 l 309 772 l 463 772 l 463 617 m 617 772 l 463 772 l 463 926 l 617 926 l 617 772 m 309 463 l 772 463 l 772 309 l 0 309 l 0 463 l 154 463 l 154 617 l 309 617 l 309 463 z "},"³":{"ha":926,"x_min":0,"x_max":772,"o":"m 617 309 l 0 309 l 0 463 l 617 463 l 617 309 m 617 617 l 154 617 l 154 772 l 617 772 l 617 617 m 617 926 l 0 926 l 0 1080 l 617 1080 l 617 926 m 772 772 l 617 772 l 617 926 l 772 926 l 772 772 m 772 463 l 617 463 l 617 617 l 772 617 l 772 463 z "},"´":{"ha":926,"x_min":309,"x_max":617,"o":"m 617 1235 l 463 1235 l 463 1389 l 617 1389 l 617 1235 m 463 1080 l 309 1080 l 309 1235 l 463 1235 l 463 1080 z "},"µ":{"ha":926,"x_min":0,"x_max":772,"o":"m 772 154 l 617 154 l 617 772 l 772 772 l 772 154 m 154 0 l 154 -309 l 0 -309 l 0 772 l 154 772 l 154 154 l 617 154 l 617 0 l 154 0 z "},"¶":{"ha":926,"x_min":0,"x_max":772,"o":"m 772 -154 l 617 -154 l 617 926 l 463 926 l 463 -154 l 309 -154 l 309 463 l 154 463 l 154 617 l 0 617 l 0 926 l 154 926 l 154 1080 l 772 1080 l 772 -154 z "},"·":{"ha":309,"x_min":0,"x_max":154,"o":"m 154 463 l 0 463 l 0 617 l 154 617 l 154 463 z "},"∙":{"ha":309,"x_min":0,"x_max":154,"o":"m 154 463 l 0 463 l 0 617 l 154 617 l 154 463 z "},"¸":{"ha":926,"x_min":154,"x_max":463,"o":"m 463 -154 l 309 -154 l 309 0 l 463 0 l 463 -154 m 309 -309 l 154 -309 l 154 -154 l 309 -154 l 309 -309 z "},"¹":{"ha":926,"x_min":0,"x_max":772,"o":"m 309 926 l 0 926 l 0 1080 l 463 1080 l 463 463 l 772 463 l 772 309 l 0 309 l 0 463 l 309 463 l 309 926 z "},"º":{"ha":926,"x_min":0,"x_max":772,"o":"m 617 309 l 154 309 l 154 463 l 617 463 l 617 309 m 617 926 l 154 926 l 154 1080 l 617 1080 l 617 926 m 154 463 l 0 463 l 0 926 l 154 926 l 154 463 m 772 463 l 617 463 l 617 926 l 772 926 l 772 463 z "},"»":{"ha":926,"x_min":0,"x_max":772,"o":"m 617 309 l 617 463 l 772 463 l 772 309 l 617 309 m 309 617 l 309 772 l 463 772 l 463 617 l 309 617 m 463 463 l 463 617 l 617 617 l 617 463 l 463 463 m 463 154 l 463 309 l 617 309 l 617 154 l 463 154 m 309 0 l 309 154 l 463 154 l 463 0 l 309 0 m 309 309 l 309 463 l 463 463 l 463 309 l 309 309 m 0 617 l 0 772 l 154 772 l 154 617 l 0 617 m 154 463 l 154 617 l 309 617 l 309 463 l 154 463 m 154 154 l 154 309 l 309 309 l 309 154 l 154 154 m 0 0 l 0 154 l 154 154 l 154 0 l 0 0 z "},"¿":{"ha":926,"x_min":0,"x_max":772,"o":"m 617 154 l 772 154 l 772 0 l 617 0 l 617 154 m 154 0 l 617 0 l 617 -154 l 154 -154 l 154 0 m 0 309 l 154 309 l 154 0 l 0 0 l 0 309 m 154 463 l 309 463 l 309 309 l 154 309 l 154 463 m 309 617 l 463 617 l 463 463 l 309 463 l 309 617 m 309 926 l 463 926 l 463 772 l 309 772 l 309 926 z "},"À":{"ha":926,"x_min":0,"x_max":772,"o":"m 309 1235 l 154 1235 l 154 1389 l 309 1389 l 309 1235 m 309 617 l 154 617 l 154 926 l 309 926 l 309 617 m 617 617 l 463 617 l 463 926 l 617 926 l 617 617 m 154 309 l 154 0 l 0 0 l 0 617 l 154 617 l 154 463 l 617 463 l 617 617 l 772 617 l 772 0 l 617 0 l 617 309 l 154 309 m 309 1235 l 463 1235 l 463 926 l 309 926 l 309 1235 z "},"Á":{"ha":926,"x_min":0,"x_max":772,"o":"m 617 1235 l 463 1235 l 463 1389 l 617 1389 l 617 1235 m 309 617 l 154 617 l 154 926 l 309 926 l 309 617 m 617 617 l 463 617 l 463 926 l 617 926 l 617 617 m 154 309 l 154 0 l 0 0 l 0 617 l 154 617 l 154 463 l 617 463 l 617 617 l 772 617 l 772 0 l 617 0 l 617 309 l 154 309 m 309 1235 l 463 1235 l 463 926 l 309 926 l 309 1235 z "},"Ä":{"ha":926,"x_min":0,"x_max":772,"o":"m 309 1235 l 154 1235 l 154 1389 l 309 1389 l 309 1235 m 617 1235 l 463 1235 l 463 1389 l 617 1389 l 617 1235 m 463 926 l 309 926 l 309 1080 l 463 1080 l 463 926 m 154 309 l 154 0 l 0 0 l 0 617 l 154 617 l 154 463 l 617 463 l 617 617 l 772 617 l 772 0 l 617 0 l 617 309 l 154 309 m 617 617 l 463 617 l 463 926 l 617 926 l 617 617 m 309 617 l 154 617 l 154 926 l 309 926 l 309 617 z "},"Æ":{"ha":1080,"x_min":0,"x_max":926,"o":"m 463 926 l 154 926 l 154 1080 l 463 1080 l 463 926 m 926 926 l 617 926 l 617 1080 l 926 1080 l 926 926 m 463 617 l 463 926 l 617 926 l 617 617 l 926 617 l 926 463 l 617 463 l 617 154 l 926 154 l 926 0 l 463 0 l 463 463 l 154 463 l 154 0 l 0 0 l 0 926 l 154 926 l 154 617 l 463 617 z "},"Ç":{"ha":926,"x_min":0,"x_max":772,"o":"m 154 154 l 0 154 l 0 926 l 154 926 l 154 154 m 309 -309 l 154 -309 l 154 -154 l 309 -154 l 309 -309 m 309 0 l 154 0 l 154 154 l 617 154 l 617 0 l 463 0 l 463 -154 l 309 -154 l 309 0 m 617 926 l 154 926 l 154 1080 l 617 1080 l 617 926 m 772 772 l 617 772 l 617 926 l 772 926 l 772 772 m 772 154 l 617 154 l 617 309 l 772 309 l 772 154 z "},"È":{"ha":926,"x_min":0,"x_max":772,"o":"m 309 1235 l 154 1235 l 154 1389 l 309 1389 l 309 1235 m 463 1080 l 772 1080 l 772 926 l 154 926 l 154 617 l 617 617 l 617 463 l 154 463 l 154 154 l 772 154 l 772 0 l 0 0 l 0 1080 l 309 1080 l 309 1235 l 463 1235 l 463 1080 z "},"É":{"ha":926,"x_min":0,"x_max":772,"o":"m 617 1235 l 463 1235 l 463 1389 l 617 1389 l 617 1235 m 463 1080 l 772 1080 l 772 926 l 154 926 l 154 617 l 617 617 l 617 463 l 154 463 l 154 154 l 772 154 l 772 0 l 0 0 l 0 1080 l 309 1080 l 309 1235 l 463 1235 l 463 1080 z "},"Ë":{"ha":926,"x_min":0,"x_max":772,"o":"m 154 154 l 772 154 l 772 0 l 0 0 l 0 1080 l 772 1080 l 772 926 l 154 926 l 154 617 l 617 617 l 617 463 l 154 463 l 154 154 m 309 1235 l 154 1235 l 154 1389 l 309 1389 l 309 1235 m 617 1235 l 463 1235 l 463 1389 l 617 1389 l 617 1235 z "},"Ì":{"ha":617,"x_min":0,"x_max":463,"o":"m 154 1235 l 0 1235 l 0 1389 l 154 1389 l 154 1235 m 309 1080 l 463 1080 l 463 926 l 309 926 l 309 154 l 463 154 l 463 0 l 0 0 l 0 154 l 154 154 l 154 926 l 0 926 l 0 1080 l 154 1080 l 154 1235 l 309 1235 l 309 1080 z "},"Í":{"ha":617,"x_min":0,"x_max":463,"o":"m 463 1235 l 309 1235 l 309 1389 l 463 1389 l 463 1235 m 309 1080 l 463 1080 l 463 926 l 309 926 l 309 154 l 463 154 l 463 0 l 0 0 l 0 154 l 154 154 l 154 926 l 0 926 l 0 1080 l 154 1080 l 154 1235 l 309 1235 l 309 1080 z "},"Ï":{"ha":617,"x_min":0,"x_max":463,"o":"m 463 1080 l 463 926 l 309 926 l 309 154 l 463 154 l 463 0 l 0 0 l 0 154 l 154 154 l 154 926 l 0 926 l 0 1080 l 463 1080 m 154 1235 l 0 1235 l 0 1389 l 154 1389 l 154 1235 m 463 1235 l 309 1235 l 309 1389 l 463 1389 l 463 1235 z "},"Ð":{"ha":926,"x_min":-154,"x_max":772,"o":"m 772 309 l 617 309 l 617 772 l 772 772 l 772 309 m 0 617 l 0 1080 l 463 1080 l 463 926 l 154 926 l 154 617 l 309 617 l 309 463 l 154 463 l 154 154 l 463 154 l 463 0 l 0 0 l 0 463 l -154 463 l -154 617 l 0 617 m 617 154 l 463 154 l 463 309 l 617 309 l 617 154 m 617 772 l 463 772 l 463 926 l 617 926 l 617 772 z "},"Ò":{"ha":926,"x_min":0,"x_max":772,"o":"m 154 154 l 0 154 l 0 926 l 154 926 l 154 154 m 463 1080 l 617 1080 l 617 926 l 154 926 l 154 1080 l 309 1080 l 309 1235 l 463 1235 l 463 1080 m 309 1235 l 154 1235 l 154 1389 l 309 1389 l 309 1235 m 617 0 l 154 0 l 154 154 l 617 154 l 617 0 m 772 154 l 617 154 l 617 926 l 772 926 l 772 154 z "},"Ó":{"ha":926,"x_min":0,"x_max":772,"o":"m 154 154 l 0 154 l 0 926 l 154 926 l 154 154 m 463 1080 l 617 1080 l 617 926 l 154 926 l 154 1080 l 309 1080 l 309 1235 l 463 1235 l 463 1080 m 617 1235 l 463 1235 l 463 1389 l 617 1389 l 617 1235 m 617 0 l 154 0 l 154 154 l 617 154 l 617 0 m 772 154 l 617 154 l 617 926 l 772 926 l 772 154 z "},"Ö":{"ha":926,"x_min":0,"x_max":772,"o":"m 154 154 l 0 154 l 0 926 l 154 926 l 154 154 m 772 154 l 617 154 l 617 926 l 772 926 l 772 154 m 617 926 l 154 926 l 154 1080 l 617 1080 l 617 926 m 617 0 l 154 0 l 154 154 l 617 154 l 617 0 m 309 1235 l 154 1235 l 154 1389 l 309 1389 l 309 1235 m 617 1235 l 463 1235 l 463 1389 l 617 1389 l 617 1235 z "},"×":{"ha":926,"x_min":0,"x_max":772,"o":"m 154 154 l 0 154 l 0 309 l 154 309 l 154 154 m 309 309 l 154 309 l 154 463 l 309 463 l 309 309 m 463 463 l 309 463 l 309 617 l 463 617 l 463 463 m 154 772 l 0 772 l 0 926 l 154 926 l 154 772 m 309 617 l 154 617 l 154 772 l 309 772 l 309 617 m 617 309 l 463 309 l 463 463 l 617 463 l 617 309 m 772 154 l 617 154 l 617 309 l 772 309 l 772 154 m 617 617 l 463 617 l 463 772 l 617 772 l 617 617 m 772 772 l 617 772 l 617 926 l 772 926 l 772 772 z "},"Ø":{"ha":926,"x_min":0,"x_max":772,"o":"m 617 926 l 154 926 l 154 1080 l 617 1080 l 617 926 m 617 772 l 617 926 l 772 926 l 772 154 l 617 154 l 617 617 l 463 617 l 463 772 l 617 772 m 463 463 l 309 463 l 309 617 l 463 617 l 463 463 m 154 309 l 154 154 l 0 154 l 0 926 l 154 926 l 154 463 l 309 463 l 309 309 l 154 309 m 617 0 l 154 0 l 154 154 l 617 154 l 617 0 z "},"Ù":{"ha":926,"x_min":0,"x_max":772,"o":"m 154 154 l 0 154 l 0 1080 l 154 1080 l 154 154 m 617 0 l 154 0 l 154 154 l 617 154 l 617 0 m 772 154 l 617 154 l 617 1080 l 772 1080 l 772 154 m 309 1235 l 154 1235 l 154 1389 l 309 1389 l 309 1235 m 463 1080 l 309 1080 l 309 1235 l 463 1235 l 463 1080 z "},"Ú":{"ha":926,"x_min":0,"x_max":772,"o":"m 154 154 l 0 154 l 0 1080 l 154 1080 l 154 154 m 617 0 l 154 0 l 154 154 l 617 154 l 617 0 m 772 154 l 617 154 l 617 1080 l 772 1080 l 772 154 m 617 1235 l 463 1235 l 463 1389 l 617 1389 l 617 1235 m 463 1080 l 309 1080 l 309 1235 l 463 1235 l 463 1080 z "},"Ü":{"ha":926,"x_min":0,"x_max":772,"o":"m 154 154 l 0 154 l 0 1080 l 154 1080 l 154 154 m 617 0 l 154 0 l 154 154 l 617 154 l 617 0 m 772 154 l 617 154 l 617 1080 l 772 1080 l 772 154 m 309 1235 l 154 1235 l 154 1389 l 309 1389 l 309 1235 m 617 1235 l 463 1235 l 463 1389 l 617 1389 l 617 1235 z "},"Ý":{"ha":926,"x_min":0,"x_max":772,"o":"m 154 617 l 0 617 l 0 1080 l 154 1080 l 154 617 m 463 463 l 463 0 l 309 0 l 309 463 l 154 463 l 154 617 l 617 617 l 617 463 l 463 463 m 772 617 l 617 617 l 617 1080 l 772 1080 l 772 617 m 617 1235 l 463 1235 l 463 1389 l 617 1389 l 617 1235 m 463 1080 l 309 1080 l 309 1235 l 463 1235 l 463 1080 z "},"Þ":{"ha":926,"x_min":0,"x_max":772,"o":"m 154 309 l 617 309 l 617 154 l 154 154 l 154 0 l 0 0 l 0 1080 l 154 1080 l 154 926 l 617 926 l 617 772 l 154 772 l 154 309 m 772 309 l 617 309 l 617 772 l 772 772 l 772 309 z "},"ß":{"ha":926,"x_min":0,"x_max":772,"o":"m 154 0 l 0 0 l 0 926 l 154 926 l 154 0 m 617 0 l 309 0 l 309 154 l 617 154 l 617 0 m 772 154 l 617 154 l 617 309 l 772 309 l 772 154 m 463 926 l 154 926 l 154 1080 l 463 1080 l 463 926 m 617 617 l 463 617 l 463 926 l 617 926 l 617 617 m 463 463 l 309 463 l 309 617 l 463 617 l 463 463 m 617 309 l 463 309 l 463 463 l 617 463 l 617 309 z "},"à":{"ha":926,"x_min":0,"x_max":772,"o":"m 154 154 l 0 154 l 0 617 l 154 617 l 154 154 m 617 463 l 463 463 l 463 617 l 617 617 l 617 772 l 772 772 l 772 0 l 617 0 l 617 154 l 463 154 l 463 309 l 617 309 l 617 463 m 463 0 l 154 0 l 154 154 l 463 154 l 463 0 m 463 617 l 154 617 l 154 772 l 463 772 l 463 617 m 309 1080 l 154 1080 l 154 1235 l 309 1235 l 309 1080 m 463 926 l 309 926 l 309 1080 l 463 1080 l 463 926 z "},"á":{"ha":926,"x_min":0,"x_max":772,"o":"m 154 154 l 0 154 l 0 617 l 154 617 l 154 154 m 617 463 l 463 463 l 463 617 l 617 617 l 617 772 l 772 772 l 772 0 l 617 0 l 617 154 l 463 154 l 463 309 l 617 309 l 617 463 m 463 0 l 154 0 l 154 154 l 463 154 l 463 0 m 463 617 l 154 617 l 154 772 l 463 772 l 463 617 m 617 1080 l 463 1080 l 463 1235 l 617 1235 l 617 1080 m 463 926 l 309 926 l 309 1080 l 463 1080 l 463 926 z "},"ä":{"ha":926,"x_min":0,"x_max":772,"o":"m 154 154 l 0 154 l 0 617 l 154 617 l 154 154 m 617 463 l 463 463 l 463 617 l 617 617 l 617 772 l 772 772 l 772 0 l 617 0 l 617 154 l 463 154 l 463 309 l 617 309 l 617 463 m 463 0 l 154 0 l 154 154 l 463 154 l 463 0 m 463 617 l 154 617 l 154 772 l 463 772 l 463 617 m 309 926 l 154 926 l 154 1080 l 309 1080 l 309 926 m 617 926 l 463 926 l 463 1080 l 617 1080 l 617 926 z "},"æ":{"ha":1235,"x_min":0,"x_max":1080,"o":"m 154 154 l 0 154 l 0 617 l 154 617 l 154 154 m 463 617 l 154 617 l 154 772 l 926 772 l 926 617 l 617 617 l 617 463 l 926 463 l 926 309 l 617 309 l 617 154 l 1080 154 l 1080 0 l 154 0 l 154 154 l 463 154 l 463 617 m 1080 463 l 926 463 l 926 617 l 1080 617 l 1080 463 z "},"ç":{"ha":926,"x_min":0,"x_max":772,"o":"m 154 154 l 0 154 l 0 617 l 154 617 l 154 154 m 309 -309 l 154 -309 l 154 -154 l 309 -154 l 309 -309 m 309 0 l 154 0 l 154 154 l 772 154 l 772 0 l 463 0 l 463 -154 l 309 -154 l 309 0 m 772 617 l 154 617 l 154 772 l 772 772 l 772 617 z "},"è":{"ha":926,"x_min":0,"x_max":772,"o":"m 617 617 l 154 617 l 154 772 l 617 772 l 617 617 m 154 309 l 154 154 l 0 154 l 0 617 l 154 617 l 154 463 l 617 463 l 617 617 l 772 617 l 772 309 l 154 309 m 772 0 l 154 0 l 154 154 l 772 154 l 772 0 m 309 1080 l 154 1080 l 154 1235 l 309 1235 l 309 1080 m 463 926 l 309 926 l 309 1080 l 463 1080 l 463 926 z "},"é":{"ha":926,"x_min":0,"x_max":772,"o":"m 617 617 l 154 617 l 154 772 l 617 772 l 617 617 m 154 309 l 154 154 l 0 154 l 0 617 l 154 617 l 154 463 l 617 463 l 617 617 l 772 617 l 772 309 l 154 309 m 772 0 l 154 0 l 154 154 l 772 154 l 772 0 m 617 1080 l 463 1080 l 463 1235 l 617 1235 l 617 1080 m 463 926 l 309 926 l 309 1080 l 463 1080 l 463 926 z "},"ë":{"ha":926,"x_min":0,"x_max":772,"o":"m 617 617 l 154 617 l 154 772 l 617 772 l 617 617 m 154 309 l 154 154 l 0 154 l 0 617 l 154 617 l 154 463 l 617 463 l 617 617 l 772 617 l 772 309 l 154 309 m 772 0 l 154 0 l 154 154 l 772 154 l 772 0 m 309 926 l 154 926 l 154 1080 l 309 1080 l 309 926 m 617 926 l 463 926 l 463 1080 l 617 1080 l 617 926 z "},"ì":{"ha":309,"x_min":-154,"x_max":154,"o":"m 154 0 l 0 0 l 0 772 l 154 772 l 154 0 m 0 1080 l -154 1080 l -154 1235 l 0 1235 l 0 1080 m 154 926 l 0 926 l 0 1080 l 154 1080 l 154 926 z "},"í":{"ha":309,"x_min":0,"x_max":309,"o":"m 154 0 l 0 0 l 0 772 l 154 772 l 154 0 m 309 1080 l 154 1080 l 154 1235 l 309 1235 l 309 1080 m 154 926 l 0 926 l 0 1080 l 154 1080 l 154 926 z "},"ï":{"ha":309,"x_min":-154,"x_max":309,"o":"m 154 0 l 0 0 l 0 772 l 154 772 l 154 0 m 0 926 l -154 926 l -154 1080 l 0 1080 l 0 926 m 309 926 l 154 926 l 154 1080 l 309 1080 l 309 926 z "},"ð":{"ha":926,"x_min":0,"x_max":772,"o":"m 154 154 l 0 154 l 0 617 l 154 617 l 154 154 m 772 1080 l 617 1080 l 617 1235 l 772 1235 l 772 1080 m 463 1080 l 309 1080 l 309 1235 l 463 1235 l 463 1080 m 617 926 l 463 926 l 463 1080 l 617 1080 l 617 926 m 617 0 l 154 0 l 154 154 l 617 154 l 617 0 m 617 617 l 154 617 l 154 772 l 617 772 l 617 926 l 772 926 l 772 154 l 617 154 l 617 617 z "},"ò":{"ha":926,"x_min":0,"x_max":772,"o":"m 154 154 l 0 154 l 0 617 l 154 617 l 154 154 m 617 617 l 154 617 l 154 772 l 617 772 l 617 617 m 772 154 l 617 154 l 617 617 l 772 617 l 772 154 m 617 0 l 154 0 l 154 154 l 617 154 l 617 0 m 309 1080 l 154 1080 l 154 1235 l 309 1235 l 309 1080 m 463 926 l 309 926 l 309 1080 l 463 1080 l 463 926 z "},"ó":{"ha":926,"x_min":0,"x_max":772,"o":"m 154 154 l 0 154 l 0 617 l 154 617 l 154 154 m 617 617 l 154 617 l 154 772 l 617 772 l 617 617 m 772 154 l 617 154 l 617 617 l 772 617 l 772 154 m 617 0 l 154 0 l 154 154 l 617 154 l 617 0 m 617 1080 l 463 1080 l 463 1235 l 617 1235 l 617 1080 m 463 926 l 309 926 l 309 1080 l 463 1080 l 463 926 z "},"ö":{"ha":926,"x_min":0,"x_max":772,"o":"m 154 154 l 0 154 l 0 617 l 154 617 l 154 154 m 617 617 l 154 617 l 154 772 l 617 772 l 617 617 m 772 154 l 617 154 l 617 617 l 772 617 l 772 154 m 617 0 l 154 0 l 154 154 l 617 154 l 617 0 m 309 926 l 154 926 l 154 1080 l 309 1080 l 309 926 m 617 926 l 463 926 l 463 1080 l 617 1080 l 617 926 z "},"÷":{"ha":617,"x_min":0,"x_max":463,"o":"m 463 463 l 0 463 l 0 617 l 463 617 l 463 463 m 309 772 l 154 772 l 154 926 l 309 926 l 309 772 m 309 154 l 154 154 l 154 309 l 309 309 l 309 154 z "},"ø":{"ha":926,"x_min":0,"x_max":772,"o":"m 463 309 l 309 309 l 309 463 l 463 463 l 463 309 m 154 154 l 0 154 l 0 617 l 154 617 l 154 309 l 309 309 l 309 154 l 617 154 l 617 0 l 154 0 l 154 154 m 463 617 l 154 617 l 154 772 l 617 772 l 617 617 l 772 617 l 772 154 l 617 154 l 617 463 l 463 463 l 463 617 z "},"ù":{"ha":926,"x_min":0,"x_max":772,"o":"m 154 154 l 0 154 l 0 772 l 154 772 l 154 154 m 772 154 l 617 154 l 617 772 l 772 772 l 772 154 m 617 0 l 154 0 l 154 154 l 617 154 l 617 0 m 309 1080 l 154 1080 l 154 1235 l 309 1235 l 309 1080 m 463 926 l 309 926 l 309 1080 l 463 1080 l 463 926 z "},"ú":{"ha":926,"x_min":0,"x_max":772,"o":"m 154 154 l 0 154 l 0 772 l 154 772 l 154 154 m 772 154 l 617 154 l 617 772 l 772 772 l 772 154 m 617 0 l 154 0 l 154 154 l 617 154 l 617 0 m 617 1080 l 463 1080 l 463 1235 l 617 1235 l 617 1080 m 463 926 l 309 926 l 309 1080 l 463 1080 l 463 926 z "},"ü":{"ha":926,"x_min":0,"x_max":772,"o":"m 154 154 l 0 154 l 0 772 l 154 772 l 154 154 m 772 154 l 617 154 l 617 772 l 772 772 l 772 154 m 617 0 l 154 0 l 154 154 l 617 154 l 617 0 m 309 926 l 154 926 l 154 1080 l 309 1080 l 309 926 m 617 926 l 463 926 l 463 1080 l 617 1080 l 617 926 z "},"ý":{"ha":926,"x_min":0,"x_max":772,"o":"m 772 463 l 617 463 l 617 772 l 772 772 l 772 463 m 154 463 l 0 463 l 0 772 l 154 772 l 154 463 m 463 -154 l 309 -154 l 309 154 l 463 154 l 463 -154 m 309 -309 l 0 -309 l 0 -154 l 309 -154 l 309 -309 m 309 154 l 154 154 l 154 463 l 309 463 l 309 154 m 617 154 l 463 154 l 463 463 l 617 463 l 617 154 m 617 1080 l 463 1080 l 463 1235 l 617 1235 l 617 1080 m 463 926 l 309 926 l 309 1080 l 463 1080 l 463 926 z "},"þ":{"ha":926,"x_min":0,"x_max":772,"o":"m 617 0 l 309 0 l 309 154 l 617 154 l 617 0 m 154 617 l 309 617 l 309 463 l 154 463 l 154 309 l 309 309 l 309 154 l 154 154 l 154 -154 l 0 -154 l 0 1080 l 154 1080 l 154 617 m 772 154 l 617 154 l 617 617 l 772 617 l 772 154 m 617 617 l 309 617 l 309 772 l 617 772 l 617 617 z "},"ÿ":{"ha":926,"x_min":0,"x_max":772,"o":"m 772 463 l 617 463 l 617 772 l 772 772 l 772 463 m 154 463 l 0 463 l 0 772 l 154 772 l 154 463 m 463 -154 l 309 -154 l 309 154 l 463 154 l 463 -154 m 309 -309 l 0 -309 l 0 -154 l 309 -154 l 309 -309 m 309 154 l 154 154 l 154 463 l 309 463 l 309 154 m 617 154 l 463 154 l 463 463 l 617 463 l 617 154 m 309 926 l 154 926 l 154 1080 l 309 1080 l 309 926 m 617 926 l 463 926 l 463 1080 l 617 1080 l 617 926 z "},"ı":{"ha":309,"x_min":0,"x_max":154,"o":"m 154 0 l 0 0 l 0 772 l 154 772 l 154 0 z "},"–":{"ha":772,"x_min":0,"x_max":617,"o":"m 617 463 l 0 463 l 0 617 l 617 617 l 617 463 z "},"—":{"ha":926,"x_min":0,"x_max":772,"o":"m 772 463 l 0 463 l 0 617 l 772 617 l 772 463 z "},"‘":{"ha":463,"x_min":0,"x_max":309,"o":"m 154 926 l 0 926 l 0 1080 l 154 1080 l 154 926 m 309 1080 l 154 1080 l 154 1235 l 309 1235 l 309 1080 z "},"’":{"ha":463,"x_min":0,"x_max":309,"o":"m 309 926 l 154 926 l 154 1080 l 309 1080 l 309 926 m 154 1080 l 0 1080 l 0 1235 l 154 1235 l 154 1080 z "},"‚":{"ha":463,"x_min":0,"x_max":309,"o":"m 309 -154 l 154 -154 l 154 0 l 309 0 l 309 -154 m 154 0 l 0 0 l 0 154 l 154 154 l 154 0 z "},"“":{"ha":926,"x_min":0,"x_max":772,"o":"m 154 926 l 0 926 l 0 1080 l 154 1080 l 154 926 m 309 1080 l 154 1080 l 154 1235 l 309 1235 l 309 1080 m 617 926 l 463 926 l 463 1080 l 617 1080 l 617 926 m 772 1080 l 617 1080 l 617 1235 l 772 1235 l 772 1080 z "},"”":{"ha":926,"x_min":0,"x_max":772,"o":"m 309 926 l 154 926 l 154 1080 l 309 1080 l 309 926 m 154 1080 l 0 1080 l 0 1235 l 154 1235 l 154 1080 m 772 926 l 617 926 l 617 1080 l 772 1080 l 772 926 m 617 1080 l 463 1080 l 463 1235 l 617 1235 l 617 1080 z "},"„":{"ha":926,"x_min":0,"x_max":772,"o":"m 309 -154 l 154 -154 l 154 0 l 309 0 l 309 -154 m 154 0 l 0 0 l 0 154 l 154 154 l 154 0 m 772 -154 l 617 -154 l 617 0 l 772 0 l 772 -154 m 617 0 l 463 0 l 463 154 l 617 154 l 617 0 z "},"†":{"ha":926,"x_min":0,"x_max":772,"o":"m 463 926 l 772 926 l 772 772 l 463 772 l 463 -154 l 309 -154 l 309 772 l 0 772 l 0 926 l 309 926 l 309 1235 l 463 1235 l 463 926 z "},"‡":{"ha":926,"x_min":0,"x_max":772,"o":"m 463 926 l 772 926 l 772 772 l 463 772 l 463 309 l 772 309 l 772 154 l 463 154 l 463 -154 l 309 -154 l 309 154 l 0 154 l 0 309 l 309 309 l 309 772 l 0 772 l 0 926 l 309 926 l 309 1235 l 463 1235 l 463 926 z "},"•":{"ha":617,"x_min":0,"x_max":463,"o":"m 463 309 l 0 309 l 0 772 l 463 772 l 463 309 z "},"…":{"ha":926,"x_min":0,"x_max":772,"o":"m 154 0 l 0 0 l 0 154 l 154 154 l 154 0 m 463 0 l 309 0 l 309 154 l 463 154 l 463 0 m 772 0 l 617 0 l 617 154 l 772 154 l 772 0 z "},"‹":{"ha":926,"x_min":0,"x_max":772,"o":"m 154 309 l 0 309 l 0 463 l 154 463 l 154 309 m 463 154 l 154 154 l 154 309 l 463 309 l 463 154 m 463 463 l 154 463 l 154 617 l 463 617 l 463 463 m 772 617 l 463 617 l 463 772 l 772 772 l 772 617 m 772 0 l 463 0 l 463 154 l 772 154 l 772 0 z "},"›":{"ha":926,"x_min":0,"x_max":772,"o":"m 617 309 l 617 463 l 772 463 l 772 309 l 617 309 m 309 154 l 309 309 l 617 309 l 617 154 l 309 154 m 309 463 l 309 617 l 617 617 l 617 463 l 309 463 m 0 617 l 0 772 l 309 772 l 309 617 l 0 617 m 0 0 l 0 154 l 309 154 l 309 0 l 0 0 z "},"⁄":{"ha":926,"x_min":0,"x_max":772,"o":"m 154 0 l 0 0 l 0 309 l 154 309 l 154 0 m 772 772 l 617 772 l 617 1080 l 772 1080 l 772 772 m 309 309 l 154 309 l 154 463 l 309 463 l 309 309 m 463 463 l 309 463 l 309 617 l 463 617 l 463 463 m 617 617 l 463 617 l 463 772 l 617 772 l 617 617 z "},"∕":{"ha":926,"x_min":0,"x_max":772,"o":"m 154 0 l 0 0 l 0 309 l 154 309 l 154 0 m 772 772 l 617 772 l 617 1080 l 772 1080 l 772 772 m 309 309 l 154 309 l 154 463 l 309 463 l 309 309 m 463 463 l 309 463 l 309 617 l 463 617 l 463 463 m 617 617 l 463 617 l 463 772 l 617 772 l 617 617 z "},"₤":{"ha":926,"x_min":0,"x_max":772,"o":"m 617 926 l 309 926 l 309 1080 l 617 1080 l 617 926 m 309 154 l 772 154 l 772 0 l 0 0 l 0 154 l 154 154 l 154 309 l 0 309 l 0 463 l 154 463 l 154 617 l 0 617 l 0 772 l 154 772 l 154 926 l 309 926 l 309 772 l 463 772 l 463 617 l 309 617 l 309 463 l 463 463 l 463 309 l 309 309 l 309 154 m 772 772 l 617 772 l 617 926 l 772 926 l 772 772 z "},"€":{"ha":926,"x_min":0,"x_max":772,"o":"m 309 309 l 309 154 l 154 154 l 154 309 l 0 309 l 0 463 l 154 463 l 154 617 l 0 617 l 0 772 l 154 772 l 154 926 l 309 926 l 309 772 l 617 772 l 617 617 l 309 617 l 309 463 l 617 463 l 617 309 l 309 309 m 772 926 l 309 926 l 309 1080 l 772 1080 l 772 926 m 772 0 l 309 0 l 309 154 l 772 154 l 772 0 z "},"−":{"ha":617,"x_min":0,"x_max":463,"o":"m 463 463 l 0 463 l 0 617 l 463 617 l 463 463 z "},"∞":{"ha":926,"x_min":0,"x_max":772,"o":"m 463 463 l 309 463 l 309 617 l 463 617 l 463 463 m 309 309 l 154 309 l 154 463 l 309 463 l 309 309 m 154 463 l 0 463 l 0 617 l 154 617 l 154 463 m 309 617 l 154 617 l 154 772 l 309 772 l 309 617 m 617 617 l 463 617 l 463 772 l 617 772 l 617 617 m 772 463 l 617 463 l 617 617 l 772 617 l 772 463 m 617 309 l 463 309 l 463 463 l 617 463 l 617 309 z "},"≤":{"ha":617,"x_min":0,"x_max":463,"o":"m 154 617 l 0 617 l 0 772 l 154 772 l 154 617 m 463 0 l 0 0 l 0 154 l 463 154 l 463 0 m 309 309 l 309 463 l 463 463 l 463 309 l 309 309 m 309 463 l 154 463 l 154 617 l 309 617 l 309 463 m 309 926 l 309 1080 l 463 1080 l 463 926 l 309 926 m 309 772 l 154 772 l 154 926 l 309 926 l 309 772 z "},"≥":{"ha":617,"x_min":0,"x_max":463,"o":"m 309 617 l 309 772 l 463 772 l 463 617 l 309 617 m 0 0 l 0 154 l 463 154 l 463 0 l 0 0 m 154 463 l 154 309 l 0 309 l 0 463 l 154 463 m 154 463 l 154 617 l 309 617 l 309 463 l 154 463 m 154 1080 l 154 926 l 0 926 l 0 1080 l 154 1080 m 154 772 l 154 926 l 309 926 l 309 772 l 154 772 z "},"ﬁ":{"ha":926,"x_min":0,"x_max":772,"o":"m 309 772 l 463 772 l 463 617 l 309 617 l 309 0 l 154 0 l 154 617 l 0 617 l 0 772 l 154 772 l 154 1080 l 463 1080 l 463 926 l 309 926 l 309 772 m 772 0 l 617 0 l 617 772 l 772 772 l 772 0 z "},"ﬂ":{"ha":926,"x_min":0,"x_max":772,"o":"m 309 772 l 463 772 l 463 617 l 309 617 l 309 0 l 154 0 l 154 617 l 0 617 l 0 772 l 154 772 l 154 1080 l 463 1080 l 463 926 l 309 926 l 309 772 m 772 0 l 617 0 l 617 1080 l 772 1080 l 772 0 z "},"Ā":{"ha":926,"x_min":0,"x_max":772,"o":"m 617 1235 l 154 1235 l 154 1389 l 617 1389 l 617 1235 m 463 926 l 309 926 l 309 1080 l 463 1080 l 463 926 m 154 309 l 154 0 l 0 0 l 0 617 l 154 617 l 154 463 l 617 463 l 617 617 l 772 617 l 772 0 l 617 0 l 617 309 l 154 309 m 617 617 l 463 617 l 463 926 l 617 926 l 617 617 m 309 617 l 154 617 l 154 926 l 309 926 l 309 617 z "},"ā":{"ha":926,"x_min":0,"x_max":772,"o":"m 154 154 l 0 154 l 0 617 l 154 617 l 154 154 m 617 463 l 463 463 l 463 617 l 617 617 l 617 772 l 772 772 l 772 0 l 617 0 l 617 154 l 463 154 l 463 309 l 617 309 l 617 463 m 463 0 l 154 0 l 154 154 l 463 154 l 463 0 m 463 617 l 154 617 l 154 772 l 463 772 l 463 617 m 617 926 l 154 926 l 154 1080 l 617 1080 l 617 926 z "},"Č":{"ha":926,"x_min":0,"x_max":772,"o":"m 154 154 l 0 154 l 0 926 l 154 926 l 154 154 m 617 1235 l 463 1235 l 463 1389 l 617 1389 l 617 1235 m 463 1080 l 617 1080 l 617 926 l 154 926 l 154 1080 l 309 1080 l 309 1235 l 463 1235 l 463 1080 m 309 1235 l 154 1235 l 154 1389 l 309 1389 l 309 1235 m 617 0 l 154 0 l 154 154 l 617 154 l 617 0 m 772 772 l 617 772 l 617 926 l 772 926 l 772 772 m 772 154 l 617 154 l 617 309 l 772 309 l 772 154 z "},"č":{"ha":926,"x_min":0,"x_max":772,"o":"m 154 154 l 0 154 l 0 617 l 154 617 l 154 154 m 772 617 l 154 617 l 154 772 l 772 772 l 772 617 m 772 0 l 154 0 l 154 154 l 772 154 l 772 0 m 463 926 l 309 926 l 309 1080 l 463 1080 l 463 926 m 309 1080 l 154 1080 l 154 1235 l 309 1235 l 309 1080 m 617 1080 l 463 1080 l 463 1235 l 617 1235 l 617 1080 z "},"Ē":{"ha":926,"x_min":0,"x_max":772,"o":"m 154 154 l 772 154 l 772 0 l 0 0 l 0 1080 l 772 1080 l 772 926 l 154 926 l 154 617 l 617 617 l 617 463 l 154 463 l 154 154 m 617 1235 l 154 1235 l 154 1389 l 617 1389 l 617 1235 z "},"ē":{"ha":926,"x_min":0,"x_max":772,"o":"m 617 617 l 154 617 l 154 772 l 617 772 l 617 617 m 154 309 l 154 154 l 0 154 l 0 617 l 154 617 l 154 463 l 617 463 l 617 617 l 772 617 l 772 309 l 154 309 m 772 0 l 154 0 l 154 154 l 772 154 l 772 0 m 617 926 l 154 926 l 154 1080 l 617 1080 l 617 926 z "},"Ģ":{"ha":926,"x_min":0,"x_max":772,"o":"m 154 154 l 0 154 l 0 926 l 154 926 l 154 154 m 309 -309 l 154 -309 l 154 -154 l 309 -154 l 309 -309 m 617 154 l 617 463 l 309 463 l 309 617 l 772 617 l 772 0 l 463 0 l 463 -154 l 309 -154 l 309 0 l 154 0 l 154 154 l 617 154 m 617 926 l 154 926 l 154 1080 l 617 1080 l 617 926 z "},"ģ":{"ha":926,"x_min":0,"x_max":772,"o":"m 154 154 l 0 154 l 0 617 l 154 617 l 154 154 m 463 926 l 309 926 l 309 1235 l 463 1235 l 463 926 m 617 154 l 463 154 l 463 309 l 617 309 l 617 463 l 463 463 l 463 617 l 617 617 l 617 772 l 772 772 l 772 -154 l 617 -154 l 617 154 m 463 617 l 154 617 l 154 772 l 463 772 l 463 617 m 463 0 l 154 0 l 154 154 l 463 154 l 463 0 m 617 -309 l 154 -309 l 154 -154 l 617 -154 l 617 -309 z "},"Ī":{"ha":617,"x_min":0,"x_max":463,"o":"m 463 1080 l 463 926 l 309 926 l 309 154 l 463 154 l 463 0 l 0 0 l 0 154 l 154 154 l 154 926 l 0 926 l 0 1080 l 463 1080 m 463 1235 l 0 1235 l 0 1389 l 463 1389 l 463 1235 z "},"ī":{"ha":309,"x_min":-154,"x_max":309,"o":"m 154 0 l 0 0 l 0 772 l 154 772 l 154 0 m 309 926 l -154 926 l -154 1080 l 309 1080 l 309 926 z "},"Ķ":{"ha":926,"x_min":0,"x_max":772,"o":"m 154 463 l 154 0 l 0 0 l 0 1080 l 154 1080 l 154 617 l 309 617 l 309 463 l 154 463 m 772 926 l 617 926 l 617 1080 l 772 1080 l 772 926 m 617 772 l 463 772 l 463 926 l 617 926 l 617 772 m 463 617 l 309 617 l 309 772 l 463 772 l 463 617 m 772 0 l 617 0 l 617 154 l 772 154 l 772 0 m 617 154 l 463 154 l 463 309 l 617 309 l 617 154 m 463 309 l 309 309 l 309 463 l 463 463 l 463 309 m 463 -154 l 309 -154 l 309 0 l 463 0 l 463 -154 m 309 -309 l 154 -309 l 154 -154 l 309 -154 l 309 -309 z "},"ķ":{"ha":772,"x_min":0,"x_max":617,"o":"m 617 0 l 463 0 l 463 154 l 617 154 l 617 0 m 154 -309 l 0 -309 l 0 -154 l 154 -154 l 154 -309 m 309 -154 l 154 -154 l 154 0 l 309 0 l 309 -154 m 154 309 l 154 0 l 0 0 l 0 1080 l 154 1080 l 154 463 l 309 463 l 309 309 l 154 309 m 463 463 l 309 463 l 309 617 l 463 617 l 463 463 m 617 617 l 463 617 l 463 772 l 617 772 l 617 617 m 463 154 l 309 154 l 309 309 l 463 309 l 463 154 z "},"Ļ":{"ha":926,"x_min":0,"x_max":772,"o":"m 309 0 l 0 0 l 0 1080 l 154 1080 l 154 154 l 772 154 l 772 0 l 463 0 l 463 -154 l 309 -154 l 309 0 m 309 -309 l 154 -309 l 154 -154 l 309 -154 l 309 -309 z "},"ļ":{"ha":309,"x_min":-154,"x_max":154,"o":"m 0 1080 l 154 1080 l 154 -154 l 0 -154 l 0 1080 m 0 -309 l -154 -309 l -154 -154 l 0 -154 l 0 -309 z "},"Ņ":{"ha":1080,"x_min":0,"x_max":926,"o":"m 463 617 l 309 617 l 309 926 l 463 926 l 463 617 m 309 -309 l 154 -309 l 154 -154 l 309 -154 l 309 -309 m 463 -154 l 309 -154 l 309 0 l 463 0 l 463 -154 m 617 309 l 463 309 l 463 617 l 617 617 l 617 309 m 154 926 l 154 0 l 0 0 l 0 1080 l 309 1080 l 309 926 l 154 926 m 772 309 l 772 1080 l 926 1080 l 926 0 l 772 0 l 772 154 l 617 154 l 617 309 l 772 309 z "},"ņ":{"ha":926,"x_min":0,"x_max":772,"o":"m 154 463 l 154 0 l 0 0 l 0 772 l 154 772 l 154 617 l 309 617 l 309 463 l 154 463 m 309 -309 l 154 -309 l 154 -154 l 309 -154 l 309 -309 m 463 -154 l 309 -154 l 309 0 l 463 0 l 463 -154 m 772 0 l 617 0 l 617 617 l 772 617 l 772 0 m 617 617 l 309 617 l 309 772 l 617 772 l 617 617 z "},"Š":{"ha":926,"x_min":0,"x_max":772,"o":"m 154 154 l 0 154 l 0 309 l 154 309 l 154 154 m 617 1235 l 463 1235 l 463 1389 l 617 1389 l 617 1235 m 463 1080 l 617 1080 l 617 926 l 154 926 l 154 1080 l 309 1080 l 309 1235 l 463 1235 l 463 1080 m 309 1235 l 154 1235 l 154 1389 l 309 1389 l 309 1235 m 617 463 l 154 463 l 154 617 l 617 617 l 617 463 m 154 617 l 0 617 l 0 926 l 154 926 l 154 617 m 772 772 l 617 772 l 617 926 l 772 926 l 772 772 m 772 154 l 617 154 l 617 463 l 772 463 l 772 154 m 617 0 l 154 0 l 154 154 l 617 154 l 617 0 z "},"š":{"ha":926,"x_min":0,"x_max":772,"o":"m 617 0 l 0 0 l 0 154 l 617 154 l 617 0 m 772 154 l 617 154 l 617 309 l 772 309 l 772 154 m 617 309 l 154 309 l 154 463 l 617 463 l 617 309 m 154 463 l 0 463 l 0 617 l 154 617 l 154 463 m 772 617 l 154 617 l 154 772 l 772 772 l 772 617 m 463 926 l 309 926 l 309 1080 l 463 1080 l 463 926 m 309 1080 l 154 1080 l 154 1235 l 309 1235 l 309 1080 m 617 1080 l 463 1080 l 463 1235 l 617 1235 l 617 1080 z "},"Ū":{"ha":926,"x_min":0,"x_max":772,"o":"m 154 154 l 0 154 l 0 1080 l 154 1080 l 154 154 m 617 0 l 154 0 l 154 154 l 617 154 l 617 0 m 772 154 l 617 154 l 617 1080 l 772 1080 l 772 154 m 617 1235 l 154 1235 l 154 1389 l 617 1389 l 617 1235 z "},"ū":{"ha":926,"x_min":0,"x_max":772,"o":"m 154 154 l 0 154 l 0 772 l 154 772 l 154 154 m 772 154 l 617 154 l 617 772 l 772 772 l 772 154 m 617 0 l 154 0 l 154 154 l 617 154 l 617 0 m 617 926 l 154 926 l 154 1080 l 617 1080 l 617 926 z "},"Ž":{"ha":926,"x_min":0,"x_max":772,"o":"m 154 154 l 772 154 l 772 0 l 0 0 l 0 309 l 154 309 l 154 154 m 617 1235 l 463 1235 l 463 1389 l 617 1389 l 617 1235 m 463 1080 l 772 1080 l 772 772 l 617 772 l 617 926 l 0 926 l 0 1080 l 309 1080 l 309 1235 l 463 1235 l 463 1080 m 309 1235 l 154 1235 l 154 1389 l 309 1389 l 309 1235 m 309 309 l 154 309 l 154 463 l 309 463 l 309 309 m 463 463 l 309 463 l 309 617 l 463 617 l 463 463 m 617 617 l 463 617 l 463 772 l 617 772 l 617 617 z "},"ž":{"ha":926,"x_min":0,"x_max":772,"o":"m 617 617 l 0 617 l 0 772 l 772 772 l 772 463 l 617 463 l 617 617 m 617 309 l 154 309 l 154 463 l 617 463 l 617 309 m 154 154 l 772 154 l 772 0 l 0 0 l 0 309 l 154 309 l 154 154 m 463 926 l 309 926 l 309 1080 l 463 1080 l 463 926 m 309 1080 l 154 1080 l 154 1235 l 309 1235 l 309 1080 m 617 1080 l 463 1080 l 463 1235 l 617 1235 l 617 1080 z "},"А":{"ha":926,"x_min":0,"x_max":772,"o":"m 463 926 l 309 926 l 309 1080 l 463 1080 l 463 926 m 154 309 l 154 0 l 0 0 l 0 617 l 154 617 l 154 463 l 617 463 l 617 617 l 772 617 l 772 0 l 617 0 l 617 309 l 154 309 m 617 617 l 463 617 l 463 926 l 617 926 l 617 617 m 309 617 l 154 617 l 154 926 l 309 926 l 309 617 z "},"Б":{"ha":926,"x_min":0,"x_max":772,"o":"m 154 154 l 617 154 l 617 0 l 0 0 l 0 1080 l 617 1080 l 617 926 l 154 926 l 154 617 l 617 617 l 617 463 l 154 463 l 154 154 m 772 154 l 617 154 l 617 463 l 772 463 l 772 154 z "},"В":{"ha":926,"x_min":0,"x_max":772,"o":"m 154 154 l 617 154 l 617 0 l 0 0 l 0 1080 l 617 1080 l 617 926 l 154 926 l 154 617 l 617 617 l 617 463 l 154 463 l 154 154 m 772 154 l 617 154 l 617 463 l 772 463 l 772 154 m 772 617 l 617 617 l 617 926 l 772 926 l 772 617 z "},"Г":{"ha":926,"x_min":0,"x_max":772,"o":"m 154 926 l 154 0 l 0 0 l 0 1080 l 772 1080 l 772 926 l 154 926 z "},"Д":{"ha":1080,"x_min":0,"x_max":926,"o":"m 154 0 l 154 -154 l 0 -154 l 0 154 l 154 154 l 154 926 l 309 926 l 309 154 l 617 154 l 617 926 l 772 926 l 772 154 l 926 154 l 926 -154 l 772 -154 l 772 0 l 154 0 m 617 926 l 309 926 l 309 1080 l 617 1080 l 617 926 z "},"Е":{"ha":926,"x_min":0,"x_max":772,"o":"m 154 463 l 154 154 l 772 154 l 772 0 l 0 0 l 0 1080 l 772 1080 l 772 926 l 154 926 l 154 617 l 772 617 l 772 463 l 154 463 z "},"Ж":{"ha":1235,"x_min":0,"x_max":1080,"o":"m 154 772 l 0 772 l 0 1080 l 154 1080 l 154 772 m 926 309 l 772 309 l 772 463 l 926 463 l 926 309 m 926 617 l 772 617 l 772 772 l 926 772 l 926 617 m 309 309 l 154 309 l 154 463 l 309 463 l 309 309 m 309 617 l 154 617 l 154 772 l 309 772 l 309 617 m 617 463 l 617 0 l 463 0 l 463 463 l 309 463 l 309 617 l 463 617 l 463 1080 l 617 1080 l 617 617 l 772 617 l 772 463 l 617 463 m 154 0 l 0 0 l 0 309 l 154 309 l 154 0 m 1080 0 l 926 0 l 926 309 l 1080 309 l 1080 0 m 1080 772 l 926 772 l 926 1080 l 1080 1080 l 1080 772 z "},"З":{"ha":926,"x_min":0,"x_max":772,"o":"m 154 772 l 0 772 l 0 926 l 154 926 l 154 772 m 617 926 l 154 926 l 154 1080 l 617 1080 l 617 926 m 463 463 l 309 463 l 309 617 l 463 617 l 463 463 m 617 0 l 154 0 l 154 154 l 617 154 l 617 0 m 154 154 l 0 154 l 0 309 l 154 309 l 154 154 m 617 309 l 463 309 l 463 463 l 617 463 l 617 309 m 617 617 l 463 617 l 463 772 l 617 772 l 617 617 m 772 772 l 617 772 l 617 926 l 772 926 l 772 772 m 772 154 l 617 154 l 617 309 l 772 309 l 772 154 z "},"И":{"ha":926,"x_min":0,"x_max":772,"o":"m 772 1080 l 772 0 l 617 0 l 617 772 l 463 772 l 463 1080 l 772 1080 m 463 309 l 309 309 l 309 772 l 463 772 l 463 309 m 0 0 l 0 1080 l 154 1080 l 154 309 l 309 309 l 309 0 l 0 0 z "},"Й":{"ha":926,"x_min":0,"x_max":772,"o":"m 772 1080 l 772 0 l 617 0 l 617 772 l 463 772 l 463 1080 l 772 1080 m 617 1235 l 463 1235 l 463 1389 l 617 1389 l 617 1235 m 463 1080 l 309 1080 l 309 1235 l 463 1235 l 463 1080 m 309 1235 l 154 1235 l 154 1389 l 309 1389 l 309 1235 m 463 309 l 309 309 l 309 772 l 463 772 l 463 309 m 0 0 l 0 1080 l 154 1080 l 154 309 l 309 309 l 309 0 l 0 0 z "},"К":{"ha":926,"x_min":0,"x_max":772,"o":"m 154 463 l 154 0 l 0 0 l 0 1080 l 154 1080 l 154 617 l 309 617 l 309 463 l 154 463 m 772 926 l 617 926 l 617 1080 l 772 1080 l 772 926 m 617 772 l 463 772 l 463 926 l 617 926 l 617 772 m 463 617 l 309 617 l 309 772 l 463 772 l 463 617 m 772 0 l 617 0 l 617 154 l 772 154 l 772 0 m 617 154 l 463 154 l 463 309 l 617 309 l 617 154 m 463 309 l 309 309 l 309 463 l 463 463 l 463 309 z "},"Л":{"ha":926,"x_min":0,"x_max":772,"o":"m 154 0 l 0 0 l 0 154 l 154 154 l 154 0 m 309 926 l 309 154 l 154 154 l 154 1080 l 772 1080 l 772 0 l 617 0 l 617 926 l 309 926 z "},"М":{"ha":926,"x_min":0,"x_max":772,"o":"m 154 617 l 154 0 l 0 0 l 0 1080 l 154 1080 l 154 926 l 309 926 l 309 617 l 154 617 m 463 309 l 309 309 l 309 617 l 463 617 l 463 309 m 617 926 l 617 1080 l 772 1080 l 772 0 l 617 0 l 617 617 l 463 617 l 463 926 l 617 926 z "},"Н":{"ha":926,"x_min":0,"x_max":772,"o":"m 154 463 l 154 0 l 0 0 l 0 1080 l 154 1080 l 154 617 l 617 617 l 617 1080 l 772 1080 l 772 0 l 617 0 l 617 463 l 154 463 z "},"О":{"ha":926,"x_min":0,"x_max":772,"o":"m 154 154 l 0 154 l 0 926 l 154 926 l 154 154 m 772 154 l 617 154 l 617 926 l 772 926 l 772 154 m 617 926 l 154 926 l 154 1080 l 617 1080 l 617 926 m 617 0 l 154 0 l 154 154 l 617 154 l 617 0 z "},"П":{"ha":926,"x_min":0,"x_max":772,"o":"m 154 926 l 154 0 l 0 0 l 0 1080 l 772 1080 l 772 0 l 617 0 l 617 926 l 154 926 z "},"Р":{"ha":926,"x_min":0,"x_max":772,"o":"m 772 617 l 617 617 l 617 926 l 772 926 l 772 617 m 617 1080 l 617 926 l 154 926 l 154 617 l 617 617 l 617 463 l 154 463 l 154 0 l 0 0 l 0 1080 l 617 1080 z "},"С":{"ha":926,"x_min":0,"x_max":772,"o":"m 154 154 l 0 154 l 0 926 l 154 926 l 154 154 m 772 154 l 617 154 l 617 309 l 772 309 l 772 154 m 772 772 l 617 772 l 617 926 l 772 926 l 772 772 m 617 0 l 154 0 l 154 154 l 617 154 l 617 0 m 617 926 l 154 926 l 154 1080 l 617 1080 l 617 926 z "},"Т":{"ha":926,"x_min":0,"x_max":772,"o":"m 309 926 l 0 926 l 0 1080 l 772 1080 l 772 926 l 463 926 l 463 0 l 309 0 l 309 926 z "},"У":{"ha":926,"x_min":0,"x_max":772,"o":"m 772 617 l 617 617 l 617 1080 l 772 1080 l 772 617 m 463 463 l 463 617 l 617 617 l 617 154 l 463 154 l 463 309 l 309 309 l 309 463 l 463 463 m 309 463 l 154 463 l 154 617 l 309 617 l 309 463 m 154 617 l 0 617 l 0 1080 l 154 1080 l 154 617 m 463 0 l 0 0 l 0 154 l 463 154 l 463 0 z "},"Ф":{"ha":1235,"x_min":0,"x_max":1080,"o":"m 154 309 l 0 309 l 0 772 l 154 772 l 154 309 m 154 772 l 154 926 l 463 926 l 463 1080 l 617 1080 l 617 926 l 926 926 l 926 772 l 617 772 l 617 309 l 926 309 l 926 154 l 617 154 l 617 0 l 463 0 l 463 154 l 154 154 l 154 309 l 463 309 l 463 772 l 154 772 m 1080 309 l 926 309 l 926 772 l 1080 772 l 1080 309 z "},"Х":{"ha":926,"x_min":0,"x_max":772,"o":"m 154 772 l 0 772 l 0 1080 l 154 1080 l 154 772 m 772 772 l 617 772 l 617 1080 l 772 1080 l 772 772 m 154 0 l 0 0 l 0 309 l 154 309 l 154 0 m 772 0 l 617 0 l 617 309 l 772 309 l 772 0 m 463 463 l 309 463 l 309 617 l 463 617 l 463 463 m 309 617 l 154 617 l 154 772 l 309 772 l 309 617 m 617 617 l 463 617 l 463 772 l 617 772 l 617 617 m 309 309 l 154 309 l 154 463 l 309 463 l 309 309 m 617 309 l 463 309 l 463 463 l 617 463 l 617 309 z "},"Ц":{"ha":926,"x_min":0,"x_max":772,"o":"m 617 154 l 617 1080 l 772 1080 l 772 -154 l 617 -154 l 617 0 l 0 0 l 0 1080 l 154 1080 l 154 154 l 617 154 z "},"Ч":{"ha":926,"x_min":0,"x_max":772,"o":"m 154 617 l 0 617 l 0 1080 l 154 1080 l 154 617 m 617 617 l 617 1080 l 772 1080 l 772 0 l 617 0 l 617 463 l 154 463 l 154 617 l 617 617 z "},"Ш":{"ha":1235,"x_min":0,"x_max":1080,"o":"m 0 1080 l 154 1080 l 154 154 l 463 154 l 463 1080 l 617 1080 l 617 154 l 926 154 l 926 1080 l 1080 1080 l 1080 0 l 0 0 l 0 1080 z "},"Щ":{"ha":1235,"x_min":0,"x_max":1080,"o":"m 0 1080 l 154 1080 l 154 154 l 463 154 l 463 1080 l 617 1080 l 617 154 l 926 154 l 926 1080 l 1080 1080 l 1080 -154 l 926 -154 l 926 0 l 0 0 l 0 1080 z "},"Ъ":{"ha":1080,"x_min":0,"x_max":926,"o":"m 926 154 l 772 154 l 772 463 l 926 463 l 926 154 m 463 617 l 772 617 l 772 463 l 463 463 l 463 154 l 772 154 l 772 0 l 309 0 l 309 926 l 0 926 l 0 1080 l 463 1080 l 463 617 z "},"Ы":{"ha":1080,"x_min":0,"x_max":926,"o":"m 617 154 l 463 154 l 463 463 l 617 463 l 617 154 m 463 617 l 463 463 l 154 463 l 154 154 l 463 154 l 463 0 l 0 0 l 0 1080 l 154 1080 l 154 617 l 463 617 m 926 0 l 772 0 l 772 1080 l 926 1080 l 926 0 z "},"Ь":{"ha":926,"x_min":0,"x_max":772,"o":"m 772 154 l 617 154 l 617 463 l 772 463 l 772 154 m 154 617 l 617 617 l 617 463 l 154 463 l 154 154 l 617 154 l 617 0 l 0 0 l 0 1080 l 154 1080 l 154 617 z "},"Э":{"ha":926,"x_min":0,"x_max":772,"o":"m 463 154 l 463 309 l 617 309 l 617 154 l 463 154 m 154 772 l 0 772 l 0 926 l 154 926 l 154 772 m 463 926 l 154 926 l 154 1080 l 463 1080 l 463 926 m 154 154 l 0 154 l 0 309 l 154 309 l 154 154 m 463 0 l 154 0 l 154 154 l 463 154 l 463 0 m 617 617 l 617 772 l 772 772 l 772 309 l 617 309 l 617 463 l 309 463 l 309 617 l 617 617 m 463 772 l 463 926 l 617 926 l 617 772 l 463 772 z "},"Ю":{"ha":1080,"x_min":0,"x_max":926,"o":"m 926 154 l 772 154 l 772 926 l 926 926 l 926 154 m 309 617 l 309 926 l 463 926 l 463 154 l 309 154 l 309 463 l 154 463 l 154 0 l 0 0 l 0 1080 l 154 1080 l 154 617 l 309 617 m 772 0 l 463 0 l 463 154 l 772 154 l 772 0 m 772 926 l 463 926 l 463 1080 l 772 1080 l 772 926 z "},"Я":{"ha":926,"x_min":0,"x_max":772,"o":"m 0 617 l 0 926 l 154 926 l 154 617 l 0 617 m 154 617 l 617 617 l 617 926 l 154 926 l 154 1080 l 772 1080 l 772 0 l 617 0 l 617 463 l 309 463 l 309 309 l 154 309 l 154 617 m 154 0 l 0 0 l 0 309 l 154 309 l 154 0 z "},"а":{"ha":926,"x_min":0,"x_max":772,"o":"m 154 154 l 0 154 l 0 617 l 154 617 l 154 154 m 617 463 l 463 463 l 463 617 l 617 617 l 617 772 l 772 772 l 772 0 l 617 0 l 617 154 l 463 154 l 463 309 l 617 309 l 617 463 m 463 0 l 154 0 l 154 154 l 463 154 l 463 0 m 463 617 l 154 617 l 154 772 l 463 772 l 463 617 z "},"б":{"ha":926,"x_min":0,"x_max":772,"o":"m 772 154 l 617 154 l 617 463 l 772 463 l 772 154 m 617 926 l 154 926 l 154 1080 l 617 1080 l 617 926 m 154 463 l 309 463 l 309 309 l 154 309 l 154 154 l 0 154 l 0 926 l 154 926 l 154 463 m 617 0 l 154 0 l 154 154 l 617 154 l 617 0 m 617 463 l 309 463 l 309 617 l 617 617 l 617 463 z "},"в":{"ha":926,"x_min":0,"x_max":772,"o":"m 772 154 l 617 154 l 617 309 l 772 309 l 772 154 m 617 772 l 617 617 l 154 617 l 154 463 l 617 463 l 617 309 l 154 309 l 154 154 l 617 154 l 617 0 l 0 0 l 0 772 l 617 772 m 772 463 l 617 463 l 617 617 l 772 617 l 772 463 z "},"г":{"ha":772,"x_min":0,"x_max":617,"o":"m 154 617 l 154 0 l 0 0 l 0 772 l 617 772 l 617 617 l 154 617 z "},"д":{"ha":1080,"x_min":0,"x_max":926,"o":"m 154 0 l 154 -154 l 0 -154 l 0 154 l 154 154 l 154 617 l 309 617 l 309 154 l 617 154 l 617 617 l 772 617 l 772 154 l 926 154 l 926 -154 l 772 -154 l 772 0 l 154 0 m 617 617 l 309 617 l 309 772 l 617 772 l 617 617 z "},"е":{"ha":926,"x_min":0,"x_max":772,"o":"m 617 617 l 154 617 l 154 772 l 617 772 l 617 617 m 154 309 l 154 154 l 0 154 l 0 617 l 154 617 l 154 463 l 617 463 l 617 617 l 772 617 l 772 309 l 154 309 m 772 0 l 154 0 l 154 154 l 772 154 l 772 0 z "},"ж":{"ha":926,"x_min":0,"x_max":772,"o":"m 463 463 l 617 463 l 617 309 l 463 309 l 463 0 l 309 0 l 309 309 l 154 309 l 154 463 l 309 463 l 309 772 l 463 772 l 463 463 m 772 0 l 617 0 l 617 309 l 772 309 l 772 0 m 772 463 l 617 463 l 617 772 l 772 772 l 772 463 m 154 0 l 0 0 l 0 309 l 154 309 l 154 0 m 154 463 l 0 463 l 0 772 l 154 772 l 154 463 z "},"з":{"ha":926,"x_min":0,"x_max":772,"o":"m 154 463 l 0 463 l 0 617 l 154 617 l 154 463 m 617 617 l 154 617 l 154 772 l 617 772 l 617 617 m 617 0 l 154 0 l 154 154 l 617 154 l 617 0 m 154 154 l 0 154 l 0 309 l 154 309 l 154 154 m 617 309 l 463 309 l 463 463 l 617 463 l 617 309 m 772 463 l 617 463 l 617 617 l 772 617 l 772 463 m 772 154 l 617 154 l 617 309 l 772 309 l 772 154 z "},"и":{"ha":926,"x_min":0,"x_max":772,"o":"m 154 154 l 154 0 l 0 0 l 0 772 l 154 772 l 154 309 l 309 309 l 309 154 l 154 154 m 617 617 l 617 772 l 772 772 l 772 0 l 617 0 l 617 463 l 463 463 l 463 617 l 617 617 m 463 309 l 309 309 l 309 463 l 463 463 l 463 309 z "},"й":{"ha":926,"x_min":0,"x_max":772,"o":"m 154 154 l 154 0 l 0 0 l 0 772 l 154 772 l 154 309 l 309 309 l 309 154 l 154 154 m 617 1080 l 463 1080 l 463 1235 l 617 1235 l 617 1080 m 463 926 l 309 926 l 309 1080 l 463 1080 l 463 926 m 309 1080 l 154 1080 l 154 1235 l 309 1235 l 309 1080 m 617 617 l 617 772 l 772 772 l 772 0 l 617 0 l 617 463 l 463 463 l 463 617 l 617 617 m 463 309 l 309 309 l 309 463 l 463 463 l 463 309 z "},"к":{"ha":926,"x_min":0,"x_max":772,"o":"m 154 309 l 154 0 l 0 0 l 0 772 l 154 772 l 154 463 l 463 463 l 463 309 l 154 309 m 772 0 l 617 0 l 617 154 l 772 154 l 772 0 m 617 154 l 463 154 l 463 309 l 617 309 l 617 154 m 772 617 l 617 617 l 617 772 l 772 772 l 772 617 m 617 463 l 463 463 l 463 617 l 617 617 l 617 463 z "},"л":{"ha":926,"x_min":0,"x_max":772,"o":"m 154 0 l 0 0 l 0 154 l 154 154 l 154 0 m 309 617 l 309 154 l 154 154 l 154 772 l 772 772 l 772 0 l 617 0 l 617 617 l 309 617 z "},"м":{"ha":926,"x_min":0,"x_max":772,"o":"m 463 154 l 309 154 l 309 463 l 463 463 l 463 154 m 617 617 l 617 772 l 772 772 l 772 0 l 617 0 l 617 463 l 463 463 l 463 617 l 617 617 m 154 463 l 154 0 l 0 0 l 0 772 l 154 772 l 154 617 l 309 617 l 309 463 l 154 463 z "},"н":{"ha":926,"x_min":0,"x_max":772,"o":"m 154 309 l 154 0 l 0 0 l 0 772 l 154 772 l 154 463 l 617 463 l 617 772 l 772 772 l 772 0 l 617 0 l 617 309 l 154 309 z "},"о":{"ha":926,"x_min":0,"x_max":772,"o":"m 154 154 l 0 154 l 0 617 l 154 617 l 154 154 m 617 617 l 154 617 l 154 772 l 617 772 l 617 617 m 772 154 l 617 154 l 617 617 l 772 617 l 772 154 m 617 0 l 154 0 l 154 154 l 617 154 l 617 0 z "},"п":{"ha":926,"x_min":0,"x_max":772,"o":"m 154 617 l 154 0 l 0 0 l 0 772 l 772 772 l 772 0 l 617 0 l 617 617 l 154 617 z "},"р":{"ha":926,"x_min":0,"x_max":772,"o":"m 617 617 l 154 617 l 154 772 l 617 772 l 617 617 m 154 0 l 154 -309 l 0 -309 l 0 617 l 154 617 l 154 154 l 617 154 l 617 0 l 154 0 m 772 154 l 617 154 l 617 617 l 772 617 l 772 154 z "},"с":{"ha":926,"x_min":0,"x_max":772,"o":"m 154 154 l 0 154 l 0 617 l 154 617 l 154 154 m 772 617 l 154 617 l 154 772 l 772 772 l 772 617 m 772 0 l 154 0 l 154 154 l 772 154 l 772 0 z "},"т":{"ha":926,"x_min":0,"x_max":772,"o":"m 463 617 l 463 0 l 309 0 l 309 617 l 0 617 l 0 772 l 772 772 l 772 617 l 463 617 z "},"у":{"ha":926,"x_min":0,"x_max":772,"o":"m 772 309 l 617 309 l 617 772 l 772 772 l 772 309 m 617 309 l 617 0 l 463 0 l 463 154 l 154 154 l 154 309 l 617 309 m 154 309 l 0 309 l 0 772 l 154 772 l 154 309 m 463 -154 l 0 -154 l 0 0 l 463 0 l 463 -154 z "},"ф":{"ha":926,"x_min":0,"x_max":772,"o":"m 0 0 l 0 772 l 309 772 l 309 926 l 463 926 l 463 772 l 772 772 l 772 0 l 463 0 l 463 -154 l 309 -154 l 309 0 l 0 0 m 617 154 l 617 617 l 463 617 l 463 154 l 617 154 m 154 617 l 154 154 l 309 154 l 309 617 l 154 617 z "},"х":{"ha":926,"x_min":0,"x_max":772,"o":"m 154 0 l 0 0 l 0 154 l 154 154 l 154 0 m 309 154 l 154 154 l 154 309 l 309 309 l 309 154 m 463 309 l 309 309 l 309 463 l 463 463 l 463 309 m 154 617 l 0 617 l 0 772 l 154 772 l 154 617 m 309 463 l 154 463 l 154 617 l 309 617 l 309 463 m 617 154 l 463 154 l 463 309 l 617 309 l 617 154 m 772 0 l 617 0 l 617 154 l 772 154 l 772 0 m 617 463 l 463 463 l 463 617 l 617 617 l 617 463 m 772 617 l 617 617 l 617 772 l 772 772 l 772 617 z "},"ц":{"ha":926,"x_min":0,"x_max":772,"o":"m 617 154 l 617 772 l 772 772 l 772 -154 l 617 -154 l 617 0 l 0 0 l 0 772 l 154 772 l 154 154 l 617 154 z "},"ч":{"ha":926,"x_min":0,"x_max":772,"o":"m 0 772 l 154 772 l 154 463 l 0 463 l 0 772 m 617 463 l 617 772 l 772 772 l 772 0 l 617 0 l 617 309 l 154 309 l 154 463 l 617 463 z "},"ш":{"ha":926,"x_min":0,"x_max":772,"o":"m 0 772 l 154 772 l 154 154 l 309 154 l 309 772 l 463 772 l 463 154 l 617 154 l 617 772 l 772 772 l 772 0 l 0 0 l 0 772 z "},"щ":{"ha":926,"x_min":0,"x_max":772,"o":"m 0 772 l 154 772 l 154 154 l 309 154 l 309 772 l 463 772 l 463 154 l 617 154 l 617 772 l 772 772 l 772 -154 l 617 -154 l 617 0 l 0 0 l 0 772 z "},"ъ":{"ha":1080,"x_min":0,"x_max":926,"o":"m 926 154 l 772 154 l 772 309 l 926 309 l 926 154 m 463 463 l 772 463 l 772 309 l 463 309 l 463 154 l 772 154 l 772 0 l 309 0 l 309 617 l 0 617 l 0 772 l 463 772 l 463 463 z "},"ы":{"ha":1080,"x_min":0,"x_max":926,"o":"m 617 154 l 463 154 l 463 309 l 617 309 l 617 154 m 926 0 l 772 0 l 772 772 l 926 772 l 926 0 m 154 463 l 463 463 l 463 309 l 154 309 l 154 154 l 463 154 l 463 0 l 0 0 l 0 772 l 154 772 l 154 463 z "},"ь":{"ha":926,"x_min":0,"x_max":772,"o":"m 772 154 l 617 154 l 617 309 l 772 309 l 772 154 m 154 463 l 617 463 l 617 309 l 154 309 l 154 154 l 617 154 l 617 0 l 0 0 l 0 772 l 154 772 l 154 463 z "},"э":{"ha":926,"x_min":0,"x_max":772,"o":"m 154 463 l 0 463 l 0 617 l 154 617 l 154 463 m 772 154 l 617 154 l 617 309 l 309 309 l 309 463 l 617 463 l 617 617 l 772 617 l 772 154 m 617 0 l 154 0 l 154 154 l 617 154 l 617 0 m 154 154 l 0 154 l 0 309 l 154 309 l 154 154 m 617 617 l 154 617 l 154 772 l 617 772 l 617 617 z "},"ю":{"ha":1080,"x_min":0,"x_max":926,"o":"m 926 154 l 772 154 l 772 617 l 926 617 l 926 154 m 309 463 l 309 617 l 463 617 l 463 154 l 309 154 l 309 309 l 154 309 l 154 0 l 0 0 l 0 772 l 154 772 l 154 463 l 309 463 m 772 0 l 463 0 l 463 154 l 772 154 l 772 0 m 772 617 l 463 617 l 463 772 l 772 772 l 772 617 z "},"я":{"ha":926,"x_min":0,"x_max":772,"o":"m 154 463 l 0 463 l 0 617 l 154 617 l 154 463 m 0 309 l 154 309 l 154 0 l 0 0 l 0 309 m 617 617 l 154 617 l 154 772 l 772 772 l 772 0 l 617 0 l 617 309 l 154 309 l 154 463 l 617 463 l 617 617 z "},"Ё":{"ha":926,"x_min":0,"x_max":772,"o":"m 154 463 l 154 154 l 772 154 l 772 0 l 0 0 l 0 1080 l 772 1080 l 772 926 l 154 926 l 154 617 l 772 617 l 772 463 l 154 463 m 309 1235 l 154 1235 l 154 1389 l 309 1389 l 309 1235 m 617 1235 l 463 1235 l 463 1389 l 617 1389 l 617 1235 z "},"ё":{"ha":926,"x_min":0,"x_max":772,"o":"m 617 617 l 154 617 l 154 772 l 617 772 l 617 617 m 154 309 l 154 154 l 0 154 l 0 617 l 154 617 l 154 463 l 617 463 l 617 617 l 772 617 l 772 309 l 154 309 m 772 0 l 154 0 l 154 154 l 772 154 l 772 0 m 309 926 l 154 926 l 154 1080 l 309 1080 l 309 926 m 617 926 l 463 926 l 463 1080 l 617 1080 l 617 926 z "},"Œ":{"ha":1080,"x_min":0,"x_max":926,"o":"m 154 154 l 0 154 l 0 926 l 154 926 l 154 154 m 463 0 l 154 0 l 154 154 l 463 154 l 463 0 m 617 463 l 617 154 l 463 154 l 463 926 l 617 926 l 617 617 l 926 617 l 926 463 l 617 463 m 926 926 l 617 926 l 617 1080 l 926 1080 l 926 926 m 926 0 l 617 0 l 617 154 l 926 154 l 926 0 m 463 926 l 154 926 l 154 1080 l 463 1080 l 463 926 z "},"œ":{"ha":1235,"x_min":0,"x_max":1080,"o":"m 154 154 l 0 154 l 0 617 l 154 617 l 154 154 m 617 309 l 617 154 l 463 154 l 463 617 l 617 617 l 617 463 l 926 463 l 926 309 l 617 309 m 463 0 l 154 0 l 154 154 l 463 154 l 463 0 m 926 617 l 617 617 l 617 772 l 926 772 l 926 617 m 1080 463 l 926 463 l 926 617 l 1080 617 l 1080 463 m 1080 0 l 617 0 l 617 154 l 1080 154 l 1080 0 m 463 617 l 154 617 l 154 772 l 463 772 l 463 617 z "},"Ґ":{"ha":926,"x_min":0,"x_max":772,"o":"m 154 926 l 154 0 l 0 0 l 0 1080 l 617 1080 l 617 1235 l 772 1235 l 772 926 l 154 926 z "},"ґ":{"ha":772,"x_min":0,"x_max":617,"o":"m 154 617 l 154 0 l 0 0 l 0 772 l 463 772 l 463 926 l 617 926 l 617 617 l 154 617 z "},"Ї":{"ha":617,"x_min":0,"x_max":463,"o":"m 463 1080 l 463 926 l 309 926 l 309 154 l 463 154 l 463 0 l 0 0 l 0 154 l 154 154 l 154 926 l 0 926 l 0 1080 l 463 1080 m 154 1235 l 0 1235 l 0 1389 l 154 1389 l 154 1235 m 463 1235 l 309 1235 l 309 1389 l 463 1389 l 463 1235 z "},"ї":{"ha":309,"x_min":-154,"x_max":309,"o":"m 154 0 l 0 0 l 0 772 l 154 772 l 154 0 m 0 926 l -154 926 l -154 1080 l 0 1080 l 0 926 m 309 926 l 154 926 l 154 1080 l 309 1080 l 309 926 z "},"ʼ":{"ha":463,"x_min":0,"x_max":309,"o":"m 309 926 l 154 926 l 154 1080 l 309 1080 l 309 926 m 154 1080 l 0 1080 l 0 1235 l 154 1235 l 154 1080 z "},"Є":{"ha":926,"x_min":0,"x_max":772,"o":"m 309 926 l 309 772 l 154 772 l 154 926 l 309 926 m 617 309 l 772 309 l 772 154 l 617 154 l 617 309 m 309 154 l 617 154 l 617 0 l 309 0 l 309 154 m 617 926 l 772 926 l 772 772 l 617 772 l 617 926 m 309 1080 l 617 1080 l 617 926 l 309 926 l 309 1080 m 154 463 l 154 309 l 0 309 l 0 772 l 154 772 l 154 617 l 463 617 l 463 463 l 154 463 m 309 309 l 309 154 l 154 154 l 154 309 l 309 309 z "},"є":{"ha":926,"x_min":0,"x_max":772,"o":"m 617 309 l 772 309 l 772 154 l 617 154 l 617 309 m 0 617 l 154 617 l 154 463 l 463 463 l 463 309 l 154 309 l 154 154 l 0 154 l 0 617 m 154 772 l 617 772 l 617 617 l 154 617 l 154 772 m 617 617 l 772 617 l 772 463 l 617 463 l 617 617 m 154 154 l 617 154 l 617 0 l 154 0 l 154 154 z "},"І":{"ha":617,"x_min":0,"x_max":463,"o":"m 463 1080 l 463 926 l 309 926 l 309 154 l 463 154 l 463 0 l 0 0 l 0 154 l 154 154 l 154 926 l 0 926 l 0 1080 l 463 1080 z "},"і":{"ha":309,"x_min":0,"x_max":154,"o":"m 154 0 l 0 0 l 0 772 l 154 772 l 154 0 m 154 926 l 0 926 l 0 1080 l 154 1080 l 154 926 z "},"Ђ":{"ha":926,"x_min":0,"x_max":772,"o":"m 772 154 l 617 154 l 617 463 l 772 463 l 772 154 m 617 0 l 463 0 l 463 154 l 617 154 l 617 0 m 309 617 l 617 617 l 617 463 l 309 463 l 309 0 l 154 0 l 154 926 l 0 926 l 0 1080 l 617 1080 l 617 926 l 309 926 l 309 617 z "},"ђ":{"ha":926,"x_min":0,"x_max":772,"o":"m 772 -154 l 617 -154 l 617 463 l 772 463 l 772 -154 m 617 -309 l 463 -309 l 463 -154 l 617 -154 l 617 -309 m 309 617 l 617 617 l 617 463 l 309 463 l 309 0 l 154 0 l 154 772 l 0 772 l 0 926 l 154 926 l 154 1080 l 309 1080 l 309 926 l 463 926 l 463 772 l 309 772 l 309 617 z "},"Ј":{"ha":772,"x_min":0,"x_max":617,"o":"m 617 154 l 463 154 l 463 1080 l 617 1080 l 617 154 m 463 0 l 154 0 l 154 154 l 463 154 l 463 0 m 154 154 l 0 154 l 0 463 l 154 463 l 154 154 z "},"ј":{"ha":772,"x_min":0,"x_max":617,"o":"m 463 -154 l 154 -154 l 154 0 l 463 0 l 463 -154 m 617 0 l 463 0 l 463 772 l 617 772 l 617 0 m 617 926 l 463 926 l 463 1080 l 617 1080 l 617 926 m 154 0 l 0 0 l 0 154 l 154 154 l 154 0 z "},"Љ":{"ha":1235,"x_min":0,"x_max":1080,"o":"m 1080 154 l 926 154 l 926 463 l 1080 463 l 1080 154 m 309 154 l 154 154 l 154 1080 l 772 1080 l 772 617 l 926 617 l 926 463 l 772 463 l 772 154 l 926 154 l 926 0 l 617 0 l 617 926 l 309 926 l 309 154 m 154 0 l 0 0 l 0 154 l 154 154 l 154 0 z "},"љ":{"ha":1080,"x_min":0,"x_max":926,"o":"m 926 154 l 772 154 l 772 309 l 926 309 l 926 154 m 309 154 l 154 154 l 154 772 l 617 772 l 617 463 l 772 463 l 772 309 l 617 309 l 617 154 l 772 154 l 772 0 l 463 0 l 463 617 l 309 617 l 309 154 m 154 0 l 0 0 l 0 154 l 154 154 l 154 0 z "},"Њ":{"ha":1080,"x_min":0,"x_max":926,"o":"m 926 154 l 772 154 l 772 463 l 926 463 l 926 154 m 154 0 l 0 0 l 0 1080 l 154 1080 l 154 617 l 463 617 l 463 1080 l 617 1080 l 617 617 l 772 617 l 772 463 l 617 463 l 617 154 l 772 154 l 772 0 l 463 0 l 463 463 l 154 463 l 154 0 z "},"њ":{"ha":926,"x_min":0,"x_max":772,"o":"m 772 154 l 617 154 l 617 309 l 772 309 l 772 154 m 154 0 l 0 0 l 0 772 l 154 772 l 154 463 l 309 463 l 309 772 l 463 772 l 463 463 l 617 463 l 617 309 l 463 309 l 463 154 l 617 154 l 617 0 l 309 0 l 309 309 l 154 309 l 154 0 z "},"Ћ":{"ha":926,"x_min":0,"x_max":772,"o":"m 772 0 l 617 0 l 617 463 l 772 463 l 772 0 m 309 617 l 617 617 l 617 463 l 309 463 l 309 0 l 154 0 l 154 926 l 0 926 l 0 1080 l 617 1080 l 617 926 l 309 926 l 309 617 z "},"ћ":{"ha":926,"x_min":0,"x_max":772,"o":"m 772 0 l 617 0 l 617 463 l 772 463 l 772 0 m 309 617 l 617 617 l 617 463 l 309 463 l 309 0 l 154 0 l 154 772 l 0 772 l 0 926 l 154 926 l 154 1080 l 309 1080 l 309 926 l 463 926 l 463 772 l 309 772 l 309 617 z "},"Џ":{"ha":926,"x_min":0,"x_max":772,"o":"m 617 154 l 617 1080 l 772 1080 l 772 0 l 463 0 l 463 -154 l 309 -154 l 309 0 l 0 0 l 0 1080 l 154 1080 l 154 154 l 617 154 z "},"џ":{"ha":926,"x_min":0,"x_max":772,"o":"m 617 154 l 617 772 l 772 772 l 772 0 l 463 0 l 463 -154 l 309 -154 l 309 0 l 0 0 l 0 772 l 154 772 l 154 154 l 617 154 z "},"Ė":{"ha":926,"x_min":0,"x_max":772,"o":"m 154 154 l 772 154 l 772 0 l 0 0 l 0 1080 l 772 1080 l 772 926 l 154 926 l 154 617 l 617 617 l 617 463 l 154 463 l 154 154 m 463 1235 l 309 1235 l 309 1389 l 463 1389 l 463 1235 z "},"ė":{"ha":926,"x_min":0,"x_max":772,"o":"m 617 617 l 154 617 l 154 772 l 617 772 l 617 617 m 154 309 l 154 154 l 0 154 l 0 617 l 154 617 l 154 463 l 617 463 l 617 617 l 772 617 l 772 309 l 154 309 m 772 0 l 154 0 l 154 154 l 772 154 l 772 0 m 463 926 l 309 926 l 309 1080 l 463 1080 l 463 926 z "},"Ċ":{"ha":926,"x_min":0,"x_max":772,"o":"m 154 154 l 0 154 l 0 926 l 154 926 l 154 154 m 772 154 l 617 154 l 617 309 l 772 309 l 772 154 m 772 772 l 617 772 l 617 926 l 772 926 l 772 772 m 617 0 l 154 0 l 154 154 l 617 154 l 617 0 m 617 926 l 154 926 l 154 1080 l 617 1080 l 617 926 m 463 1235 l 309 1235 l 309 1389 l 463 1389 l 463 1235 z "},"ċ":{"ha":926,"x_min":0,"x_max":772,"o":"m 154 154 l 0 154 l 0 617 l 154 617 l 154 154 m 772 617 l 154 617 l 154 772 l 772 772 l 772 617 m 772 0 l 154 0 l 154 154 l 772 154 l 772 0 m 463 926 l 309 926 l 309 1080 l 463 1080 l 463 926 z "},"Ż":{"ha":926,"x_min":0,"x_max":772,"o":"m 154 154 l 772 154 l 772 0 l 0 0 l 0 309 l 154 309 l 154 154 m 617 617 l 463 617 l 463 772 l 617 772 l 617 617 m 463 463 l 309 463 l 309 617 l 463 617 l 463 463 m 309 309 l 154 309 l 154 463 l 309 463 l 309 309 m 617 926 l 0 926 l 0 1080 l 772 1080 l 772 772 l 617 772 l 617 926 m 463 1235 l 309 1235 l 309 1389 l 463 1389 l 463 1235 z "},"ż":{"ha":926,"x_min":0,"x_max":772,"o":"m 617 617 l 0 617 l 0 772 l 772 772 l 772 463 l 617 463 l 617 617 m 617 309 l 154 309 l 154 463 l 617 463 l 617 309 m 154 154 l 772 154 l 772 0 l 0 0 l 0 309 l 154 309 l 154 154 m 463 926 l 309 926 l 309 1080 l 463 1080 l 463 926 z "},"Ą":{"ha":926,"x_min":0,"x_max":772,"o":"m 463 926 l 309 926 l 309 1080 l 463 1080 l 463 926 m 154 309 l 154 0 l 0 0 l 0 617 l 154 617 l 154 463 l 617 463 l 617 617 l 772 617 l 772 0 l 617 0 l 617 309 l 154 309 m 617 617 l 463 617 l 463 926 l 617 926 l 617 617 m 309 617 l 154 617 l 154 926 l 309 926 l 309 617 m 772 -309 l 617 -309 l 617 -154 l 772 -154 l 772 -309 m 617 -154 l 463 -154 l 463 0 l 617 0 l 617 -154 z "},"ą":{"ha":926,"x_min":0,"x_max":772,"o":"m 154 154 l 0 154 l 0 617 l 154 617 l 154 154 m 617 463 l 463 463 l 463 617 l 617 617 l 617 772 l 772 772 l 772 0 l 617 0 l 617 154 l 463 154 l 463 309 l 617 309 l 617 463 m 463 0 l 154 0 l 154 154 l 463 154 l 463 0 m 463 617 l 154 617 l 154 772 l 463 772 l 463 617 m 617 -154 l 463 -154 l 463 0 l 617 0 l 617 -154 m 772 -309 l 617 -309 l 617 -154 l 772 -154 l 772 -309 z "},"Ć":{"ha":926,"x_min":0,"x_max":772,"o":"m 154 154 l 0 154 l 0 926 l 154 926 l 154 154 m 463 1080 l 617 1080 l 617 926 l 154 926 l 154 1080 l 309 1080 l 309 1235 l 463 1235 l 463 1080 m 617 1235 l 463 1235 l 463 1389 l 617 1389 l 617 1235 m 617 0 l 154 0 l 154 154 l 617 154 l 617 0 m 772 772 l 617 772 l 617 926 l 772 926 l 772 772 m 772 154 l 617 154 l 617 309 l 772 309 l 772 154 z "},"ć":{"ha":926,"x_min":0,"x_max":772,"o":"m 154 154 l 0 154 l 0 617 l 154 617 l 154 154 m 772 617 l 154 617 l 154 772 l 772 772 l 772 617 m 772 0 l 154 0 l 154 154 l 772 154 l 772 0 m 617 1080 l 463 1080 l 463 1235 l 617 1235 l 617 1080 m 463 926 l 309 926 l 309 1080 l 463 1080 l 463 926 z "},"Ę":{"ha":926,"x_min":0,"x_max":772,"o":"m 463 0 l 0 0 l 0 1080 l 772 1080 l 772 926 l 154 926 l 154 617 l 617 617 l 617 463 l 154 463 l 154 154 l 772 154 l 772 0 l 617 0 l 617 -154 l 463 -154 l 463 0 m 772 -309 l 617 -309 l 617 -154 l 772 -154 l 772 -309 z "},"ę":{"ha":926,"x_min":0,"x_max":772,"o":"m 617 617 l 154 617 l 154 772 l 617 772 l 617 617 m 772 -309 l 617 -309 l 617 -154 l 772 -154 l 772 -309 m 463 0 l 154 0 l 154 154 l 772 154 l 772 0 l 617 0 l 617 -154 l 463 -154 l 463 0 m 154 309 l 154 154 l 0 154 l 0 617 l 154 617 l 154 463 l 617 463 l 617 617 l 772 617 l 772 309 l 154 309 z "},"Ł":{"ha":926,"x_min":-154,"x_max":772,"o":"m 0 309 l -154 309 l -154 463 l 0 463 l 0 1080 l 154 1080 l 154 617 l 309 617 l 309 463 l 154 463 l 154 154 l 772 154 l 772 0 l 0 0 l 0 309 m 463 617 l 309 617 l 309 772 l 463 772 l 463 617 z "},"ł":{"ha":463,"x_min":-154,"x_max":309,"o":"m 0 309 l -154 309 l -154 463 l 0 463 l 0 1080 l 154 1080 l 154 617 l 309 617 l 309 463 l 154 463 l 154 0 l 0 0 l 0 309 z "},"Ń":{"ha":1080,"x_min":0,"x_max":926,"o":"m 463 617 l 309 617 l 309 926 l 463 926 l 463 617 m 617 1080 l 463 1080 l 463 1235 l 617 1235 l 617 1080 m 772 1235 l 617 1235 l 617 1389 l 772 1389 l 772 1235 m 617 309 l 463 309 l 463 617 l 617 617 l 617 309 m 154 926 l 154 0 l 0 0 l 0 1080 l 309 1080 l 309 926 l 154 926 m 772 309 l 772 1080 l 926 1080 l 926 0 l 772 0 l 772 154 l 617 154 l 617 309 l 772 309 z "},"ń":{"ha":926,"x_min":0,"x_max":772,"o":"m 154 463 l 154 0 l 0 0 l 0 772 l 154 772 l 154 617 l 309 617 l 309 463 l 154 463 m 463 926 l 309 926 l 309 1080 l 463 1080 l 463 926 m 617 1080 l 463 1080 l 463 1235 l 617 1235 l 617 1080 m 772 0 l 617 0 l 617 617 l 772 617 l 772 0 m 617 617 l 309 617 l 309 772 l 617 772 l 617 617 z "},"Ś":{"ha":926,"x_min":0,"x_max":772,"o":"m 154 154 l 0 154 l 0 309 l 154 309 l 154 154 m 463 1080 l 617 1080 l 617 926 l 154 926 l 154 1080 l 309 1080 l 309 1235 l 463 1235 l 463 1080 m 617 1235 l 463 1235 l 463 1389 l 617 1389 l 617 1235 m 617 463 l 154 463 l 154 617 l 617 617 l 617 463 m 154 617 l 0 617 l 0 926 l 154 926 l 154 617 m 772 772 l 617 772 l 617 926 l 772 926 l 772 772 m 772 154 l 617 154 l 617 463 l 772 463 l 772 154 m 617 0 l 154 0 l 154 154 l 617 154 l 617 0 z "},"ś":{"ha":926,"x_min":0,"x_max":772,"o":"m 617 0 l 0 0 l 0 154 l 617 154 l 617 0 m 772 154 l 617 154 l 617 309 l 772 309 l 772 154 m 617 309 l 154 309 l 154 463 l 617 463 l 617 309 m 154 463 l 0 463 l 0 617 l 154 617 l 154 463 m 772 617 l 154 617 l 154 772 l 772 772 l 772 617 m 617 1080 l 463 1080 l 463 1235 l 617 1235 l 617 1080 m 463 926 l 309 926 l 309 1080 l 463 1080 l 463 926 z "},"Ź":{"ha":926,"x_min":0,"x_max":772,"o":"m 154 154 l 772 154 l 772 0 l 0 0 l 0 309 l 154 309 l 154 154 m 463 1080 l 772 1080 l 772 772 l 617 772 l 617 926 l 0 926 l 0 1080 l 309 1080 l 309 1235 l 463 1235 l 463 1080 m 617 1235 l 463 1235 l 463 1389 l 617 1389 l 617 1235 m 309 309 l 154 309 l 154 463 l 309 463 l 309 309 m 463 463 l 309 463 l 309 617 l 463 617 l 463 463 m 617 617 l 463 617 l 463 772 l 617 772 l 617 617 z "},"ź":{"ha":926,"x_min":0,"x_max":772,"o":"m 617 617 l 0 617 l 0 772 l 772 772 l 772 463 l 617 463 l 617 617 m 617 309 l 154 309 l 154 463 l 617 463 l 617 309 m 154 154 l 772 154 l 772 0 l 0 0 l 0 309 l 154 309 l 154 154 m 617 1080 l 463 1080 l 463 1235 l 617 1235 l 617 1080 m 463 926 l 309 926 l 309 1080 l 463 1080 l 463 926 z "},"Į":{"ha":617,"x_min":0,"x_max":463,"o":"m 463 -309 l 309 -309 l 309 -154 l 463 -154 l 463 -309 m 154 0 l 0 0 l 0 154 l 154 154 l 154 926 l 0 926 l 0 1080 l 463 1080 l 463 926 l 309 926 l 309 154 l 463 154 l 463 0 l 309 0 l 309 -154 l 154 -154 l 154 0 z "},"į":{"ha":309,"x_min":-154,"x_max":154,"o":"m 154 0 l 0 0 l 0 772 l 154 772 l 154 0 m 154 -309 l 0 -309 l 0 -154 l 154 -154 l 154 -309 m 0 -154 l -154 -154 l -154 0 l 0 0 l 0 -154 m 154 926 l 0 926 l 0 1080 l 154 1080 l 154 926 z "},"Ų":{"ha":926,"x_min":0,"x_max":772,"o":"m 154 154 l 0 154 l 0 1080 l 154 1080 l 154 154 m 772 -309 l 617 -309 l 617 -154 l 772 -154 l 772 -309 m 463 0 l 154 0 l 154 154 l 617 154 l 617 -154 l 463 -154 l 463 0 m 772 154 l 617 154 l 617 1080 l 772 1080 l 772 154 z "},"ų":{"ha":926,"x_min":0,"x_max":772,"o":"m 154 154 l 0 154 l 0 772 l 154 772 l 154 154 m 772 -309 l 617 -309 l 617 -154 l 772 -154 l 772 -309 m 463 0 l 154 0 l 154 154 l 617 154 l 617 -154 l 463 -154 l 463 0 m 772 154 l 617 154 l 617 772 l 772 772 l 772 154 z "},"Õ":{"ha":926,"x_min":0,"x_max":772,"o":"m 154 154 l 0 154 l 0 926 l 154 926 l 154 154 m 772 1235 l 617 1235 l 617 1389 l 772 1389 l 772 1235 m 154 1235 l 309 1235 l 309 1080 l 463 1080 l 463 1235 l 617 1235 l 617 926 l 154 926 l 154 1235 m 463 1235 l 309 1235 l 309 1389 l 463 1389 l 463 1235 m 617 0 l 154 0 l 154 154 l 617 154 l 617 0 m 772 154 l 617 154 l 617 926 l 772 926 l 772 154 z "},"õ":{"ha":926,"x_min":0,"x_max":772,"o":"m 154 154 l 0 154 l 0 617 l 154 617 l 154 154 m 617 617 l 154 617 l 154 772 l 617 772 l 617 617 m 772 154 l 617 154 l 617 617 l 772 617 l 772 154 m 617 0 l 154 0 l 154 154 l 617 154 l 617 0 m 309 926 l 154 926 l 154 1080 l 309 1080 l 309 926 m 463 1080 l 309 1080 l 309 1235 l 463 1235 l 463 1080 m 617 926 l 463 926 l 463 1080 l 617 1080 l 617 926 m 772 1080 l 617 1080 l 617 1235 l 772 1235 l 772 1080 z "},"₵":{"ha":926,"x_min":0,"x_max":772,"o":"m 154 154 l 0 154 l 0 926 l 154 926 l 154 154 m 463 154 l 617 154 l 617 0 l 463 0 l 463 -154 l 309 -154 l 309 0 l 154 0 l 154 154 l 309 154 l 309 926 l 154 926 l 154 1080 l 309 1080 l 309 1235 l 463 1235 l 463 1080 l 617 1080 l 617 926 l 463 926 l 463 154 m 772 772 l 617 772 l 617 926 l 772 926 l 772 772 m 772 154 l 617 154 l 617 309 l 772 309 l 772 154 z "},"₸":{"ha":926,"x_min":0,"x_max":772,"o":"m 772 926 l 0 926 l 0 1080 l 772 1080 l 772 926 m 772 772 l 772 617 l 463 617 l 463 0 l 309 0 l 309 617 l 0 617 l 0 772 l 772 772 z "},"₽":{"ha":926,"x_min":-154,"x_max":772,"o":"m 772 617 l 617 617 l 617 926 l 772 926 l 772 617 m 0 463 l -154 463 l -154 617 l 0 617 l 0 1080 l 617 1080 l 617 926 l 154 926 l 154 617 l 617 617 l 617 463 l 154 463 l 154 309 l 463 309 l 463 154 l 154 154 l 154 0 l 0 0 l 0 154 l -154 154 l -154 309 l 0 309 l 0 463 z "},"₹":{"ha":926,"x_min":154,"x_max":772,"o":"m 772 0 l 617 0 l 617 154 l 772 154 l 772 0 m 617 617 l 617 463 l 463 463 l 463 617 l 154 617 l 154 772 l 463 772 l 463 926 l 154 926 l 154 1080 l 772 1080 l 772 926 l 617 926 l 617 772 l 772 772 l 772 617 l 617 617 m 463 309 l 154 309 l 154 463 l 463 463 l 463 309 m 617 154 l 463 154 l 463 309 l 617 309 l 617 154 z "},"₺":{"ha":926,"x_min":0,"x_max":772,"o":"m 772 154 l 617 154 l 617 309 l 772 309 l 772 154 m 309 154 l 617 154 l 617 0 l 154 0 l 154 309 l 0 309 l 0 463 l 154 463 l 154 617 l 0 617 l 0 772 l 154 772 l 154 1080 l 309 1080 l 309 926 l 463 926 l 463 772 l 309 772 l 309 617 l 463 617 l 463 463 l 309 463 l 309 154 z "},"₠":{"ha":926,"x_min":0,"x_max":772,"o":"m 463 154 l 772 154 l 772 0 l 309 0 l 309 309 l 154 309 l 154 463 l 309 463 l 309 772 l 772 772 l 772 617 l 463 617 l 463 463 l 772 463 l 772 309 l 463 309 l 463 154 m 154 463 l 0 463 l 0 926 l 154 926 l 154 463 m 463 926 l 154 926 l 154 1080 l 463 1080 l 463 926 z "},"₭":{"ha":926,"x_min":-154,"x_max":772,"o":"m 772 926 l 617 926 l 617 1080 l 772 1080 l 772 926 m 0 617 l 0 1080 l 154 1080 l 154 617 l 309 617 l 309 772 l 463 772 l 463 617 l 772 617 l 772 463 l 463 463 l 463 309 l 309 309 l 309 463 l 154 463 l 154 0 l 0 0 l 0 463 l -154 463 l -154 617 l 0 617 m 617 154 l 463 154 l 463 309 l 617 309 l 617 154 m 772 0 l 617 0 l 617 154 l 772 154 l 772 0 m 617 772 l 463 772 l 463 926 l 617 926 l 617 772 z "},"←":{"ha":926,"x_min":0,"x_max":772,"o":"m 463 772 l 309 772 l 309 926 l 463 926 l 463 772 m 463 154 l 309 154 l 309 309 l 463 309 l 463 154 m 154 617 l 154 772 l 309 772 l 309 617 l 772 617 l 772 463 l 309 463 l 309 309 l 154 309 l 154 463 l 0 463 l 0 617 l 154 617 z "},"↑":{"ha":926,"x_min":0,"x_max":772,"o":"m 154 463 l 0 463 l 0 617 l 154 617 l 154 463 m 772 463 l 617 463 l 617 617 l 772 617 l 772 463 m 309 617 l 154 617 l 154 772 l 309 772 l 309 926 l 463 926 l 463 772 l 617 772 l 617 617 l 463 617 l 463 154 l 309 154 l 309 617 z "},"→":{"ha":926,"x_min":0,"x_max":772,"o":"m 309 772 l 309 926 l 463 926 l 463 772 l 309 772 m 309 154 l 309 309 l 463 309 l 463 154 l 309 154 m 463 617 l 463 772 l 617 772 l 617 617 l 772 617 l 772 463 l 617 463 l 617 309 l 463 309 l 463 463 l 0 463 l 0 617 l 463 617 z "},"↓":{"ha":926,"x_min":0,"x_max":772,"o":"m 617 617 l 772 617 l 772 463 l 617 463 l 617 617 m 0 617 l 154 617 l 154 463 l 0 463 l 0 617 m 463 463 l 617 463 l 617 309 l 463 309 l 463 154 l 309 154 l 309 309 l 154 309 l 154 463 l 309 463 l 309 926 l 463 926 l 463 463 z "},"≡":{"ha":617,"x_min":0,"x_max":463,"o":"m 463 772 l 0 772 l 0 926 l 463 926 l 463 772 m 463 154 l 0 154 l 0 309 l 463 309 l 463 154 m 463 463 l 0 463 l 0 617 l 463 617 l 463 463 z "},"▲":{"ha":926,"x_min":0,"x_max":772,"o":"m 309 772 l 309 926 l 463 926 l 463 772 l 617 772 l 617 463 l 772 463 l 772 154 l 0 154 l 0 463 l 154 463 l 154 772 l 309 772 z "},"▼":{"ha":926,"x_min":0,"x_max":772,"o":"m 463 309 l 463 154 l 309 154 l 309 309 l 154 309 l 154 617 l 0 617 l 0 926 l 772 926 l 772 617 l 617 617 l 617 309 l 463 309 z "},"◄":{"ha":926,"x_min":0,"x_max":772,"o":"m 154 463 l 0 463 l 0 617 l 154 617 l 154 772 l 463 772 l 463 926 l 772 926 l 772 154 l 463 154 l 463 309 l 154 309 l 154 463 z "},"►":{"ha":926,"x_min":0,"x_max":772,"o":"m 617 617 l 772 617 l 772 463 l 617 463 l 617 309 l 309 309 l 309 154 l 0 154 l 0 926 l 309 926 l 309 772 l 617 772 l 617 617 z "},"●":{"ha":926,"x_min":0,"x_max":772,"o":"m 617 617 l 772 617 l 772 463 l 617 463 l 617 309 l 463 309 l 463 154 l 309 154 l 309 309 l 154 309 l 154 463 l 0 463 l 0 617 l 154 617 l 154 772 l 309 772 l 309 926 l 463 926 l 463 772 l 617 772 l 617 617 z "},"Ġ":{"ha":926,"x_min":0,"x_max":772,"o":"m 154 154 l 0 154 l 0 926 l 154 926 l 154 154 m 463 1235 l 309 1235 l 309 1389 l 463 1389 l 463 1235 m 617 154 l 617 463 l 309 463 l 309 617 l 772 617 l 772 0 l 154 0 l 154 154 l 617 154 m 617 926 l 154 926 l 154 1080 l 617 1080 l 617 926 z "},"ġ":{"ha":926,"x_min":0,"x_max":772,"o":"m 154 154 l 0 154 l 0 617 l 154 617 l 154 154 m 463 926 l 309 926 l 309 1080 l 463 1080 l 463 926 m 617 154 l 463 154 l 463 309 l 617 309 l 617 463 l 463 463 l 463 617 l 617 617 l 617 772 l 772 772 l 772 -154 l 617 -154 l 617 154 m 463 617 l 154 617 l 154 772 l 463 772 l 463 617 m 463 0 l 154 0 l 154 154 l 463 154 l 463 0 m 617 -309 l 154 -309 l 154 -154 l 617 -154 l 617 -309 z "},"Ě":{"ha":926,"x_min":0,"x_max":772,"o":"m 309 1235 l 154 1235 l 154 1389 l 309 1389 l 309 1235 m 617 1235 l 463 1235 l 463 1389 l 617 1389 l 617 1235 m 463 1080 l 772 1080 l 772 926 l 154 926 l 154 617 l 617 617 l 617 463 l 154 463 l 154 154 l 772 154 l 772 0 l 0 0 l 0 1080 l 309 1080 l 309 1235 l 463 1235 l 463 1080 z "},"ě":{"ha":926,"x_min":0,"x_max":772,"o":"m 617 617 l 154 617 l 154 772 l 617 772 l 617 617 m 154 309 l 154 154 l 0 154 l 0 617 l 154 617 l 154 463 l 617 463 l 617 617 l 772 617 l 772 309 l 154 309 m 772 0 l 154 0 l 154 154 l 772 154 l 772 0 m 463 926 l 309 926 l 309 1080 l 463 1080 l 463 926 m 309 1080 l 154 1080 l 154 1235 l 309 1235 l 309 1080 m 617 1080 l 463 1080 l 463 1235 l 617 1235 l 617 1080 z "},"Ĺ":{"ha":926,"x_min":0,"x_max":772,"o":"m 0 0 l 0 1080 l 154 1080 l 154 154 l 772 154 l 772 0 l 0 0 m 617 1235 l 463 1235 l 463 1389 l 617 1389 l 617 1235 m 463 1080 l 309 1080 l 309 1235 l 463 1235 l 463 1080 z "},"ĺ":{"ha":309,"x_min":0,"x_max":309,"o":"m 309 1235 l 154 1235 l 154 1389 l 309 1389 l 309 1235 m 154 0 l 0 0 l 0 1235 l 154 1235 l 154 0 z "},"Ŀ":{"ha":926,"x_min":0,"x_max":772,"o":"m 0 0 l 0 1080 l 154 1080 l 154 154 l 772 154 l 772 0 l 0 0 m 463 463 l 309 463 l 309 617 l 463 617 l 463 463 z "},"ŀ":{"ha":617,"x_min":0,"x_max":463,"o":"m 154 0 l 0 0 l 0 1080 l 154 1080 l 154 0 m 463 463 l 309 463 l 309 617 l 463 617 l 463 463 z "},"Ň":{"ha":1080,"x_min":0,"x_max":926,"o":"m 463 617 l 309 617 l 309 926 l 463 926 l 463 617 m 463 1235 l 309 1235 l 309 1389 l 463 1389 l 463 1235 m 617 1080 l 463 1080 l 463 1235 l 617 1235 l 617 1080 m 772 1235 l 617 1235 l 617 1389 l 772 1389 l 772 1235 m 617 309 l 463 309 l 463 617 l 617 617 l 617 309 m 154 926 l 154 0 l 0 0 l 0 1080 l 309 1080 l 309 926 l 154 926 m 772 309 l 772 1080 l 926 1080 l 926 0 l 772 0 l 772 154 l 617 154 l 617 309 l 772 309 z "},"ň":{"ha":926,"x_min":0,"x_max":772,"o":"m 154 463 l 154 0 l 0 0 l 0 772 l 154 772 l 154 617 l 309 617 l 309 463 l 154 463 m 617 1080 l 463 1080 l 463 1235 l 617 1235 l 617 1080 m 309 1080 l 154 1080 l 154 1235 l 309 1235 l 309 1080 m 463 926 l 309 926 l 309 1080 l 463 1080 l 463 926 m 772 0 l 617 0 l 617 617 l 772 617 l 772 0 m 617 617 l 309 617 l 309 772 l 617 772 l 617 617 z "},"Ō":{"ha":926,"x_min":0,"x_max":772,"o":"m 154 154 l 0 154 l 0 926 l 154 926 l 154 154 m 772 154 l 617 154 l 617 926 l 772 926 l 772 154 m 617 926 l 154 926 l 154 1080 l 617 1080 l 617 926 m 617 0 l 154 0 l 154 154 l 617 154 l 617 0 m 617 1235 l 154 1235 l 154 1389 l 617 1389 l 617 1235 z "},"ō":{"ha":926,"x_min":0,"x_max":772,"o":"m 154 154 l 0 154 l 0 617 l 154 617 l 154 154 m 617 617 l 154 617 l 154 772 l 617 772 l 617 617 m 772 154 l 617 154 l 617 617 l 772 617 l 772 154 m 617 0 l 154 0 l 154 154 l 617 154 l 617 0 m 617 926 l 154 926 l 154 1080 l 617 1080 l 617 926 z "},"Ŕ":{"ha":926,"x_min":0,"x_max":772,"o":"m 772 617 l 617 617 l 617 926 l 772 926 l 772 617 m 463 1080 l 617 1080 l 617 926 l 154 926 l 154 617 l 617 617 l 617 463 l 463 463 l 463 309 l 309 309 l 309 463 l 154 463 l 154 0 l 0 0 l 0 1080 l 309 1080 l 309 1235 l 463 1235 l 463 1080 m 617 1235 l 463 1235 l 463 1389 l 617 1389 l 617 1235 m 617 154 l 463 154 l 463 309 l 617 309 l 617 154 m 772 0 l 617 0 l 617 154 l 772 154 l 772 0 z "},"ŕ":{"ha":772,"x_min":0,"x_max":617,"o":"m 463 463 l 309 463 l 309 617 l 463 617 l 463 463 m 154 309 l 154 0 l 0 0 l 0 772 l 154 772 l 154 463 l 309 463 l 309 309 l 154 309 m 617 1080 l 463 1080 l 463 1235 l 617 1235 l 617 1080 m 463 926 l 309 926 l 309 1080 l 463 1080 l 463 926 m 617 617 l 463 617 l 463 772 l 617 772 l 617 617 z "},"Ŗ":{"ha":926,"x_min":0,"x_max":772,"o":"m 772 617 l 617 617 l 617 926 l 772 926 l 772 617 m 772 0 l 617 0 l 617 154 l 772 154 l 772 0 m 617 154 l 463 154 l 463 309 l 617 309 l 617 154 m 617 1080 l 617 926 l 154 926 l 154 617 l 617 617 l 617 463 l 463 463 l 463 309 l 309 309 l 309 463 l 154 463 l 154 0 l 0 0 l 0 1080 l 617 1080 m 463 -154 l 309 -154 l 309 0 l 463 0 l 463 -154 m 309 -309 l 154 -309 l 154 -154 l 309 -154 l 309 -309 z "},"ŗ":{"ha":772,"x_min":0,"x_max":617,"o":"m 463 463 l 309 463 l 309 617 l 463 617 l 463 463 m 154 309 l 154 0 l 0 0 l 0 772 l 154 772 l 154 463 l 309 463 l 309 309 l 154 309 m 463 -154 l 309 -154 l 309 0 l 463 0 l 463 -154 m 309 -309 l 154 -309 l 154 -154 l 309 -154 l 309 -309 m 617 617 l 463 617 l 463 772 l 617 772 l 617 617 z "},"Ř":{"ha":926,"x_min":0,"x_max":772,"o":"m 772 617 l 617 617 l 617 926 l 772 926 l 772 617 m 617 1235 l 463 1235 l 463 1389 l 617 1389 l 617 1235 m 463 1080 l 617 1080 l 617 926 l 154 926 l 154 617 l 617 617 l 617 463 l 463 463 l 463 309 l 309 309 l 309 463 l 154 463 l 154 0 l 0 0 l 0 1080 l 309 1080 l 309 1235 l 463 1235 l 463 1080 m 309 1235 l 154 1235 l 154 1389 l 309 1389 l 309 1235 m 617 154 l 463 154 l 463 309 l 617 309 l 617 154 m 772 0 l 617 0 l 617 154 l 772 154 l 772 0 z "},"ř":{"ha":772,"x_min":0,"x_max":617,"o":"m 463 463 l 309 463 l 309 617 l 463 617 l 463 463 m 154 309 l 154 0 l 0 0 l 0 772 l 154 772 l 154 463 l 309 463 l 309 309 l 154 309 m 463 926 l 309 926 l 309 1080 l 463 1080 l 463 926 m 309 1080 l 154 1080 l 154 1235 l 309 1235 l 309 1080 m 617 1080 l 463 1080 l 463 1235 l 617 1235 l 617 1080 m 617 617 l 463 617 l 463 772 l 617 772 l 617 617 z "},"Ş":{"ha":926,"x_min":0,"x_max":772,"o":"m 154 154 l 0 154 l 0 309 l 154 309 l 154 154 m 309 -309 l 154 -309 l 154 -154 l 309 -154 l 309 -309 m 309 0 l 154 0 l 154 154 l 617 154 l 617 0 l 463 0 l 463 -154 l 309 -154 l 309 0 m 617 463 l 154 463 l 154 617 l 617 617 l 617 463 m 154 617 l 0 617 l 0 926 l 154 926 l 154 617 m 772 772 l 617 772 l 617 926 l 772 926 l 772 772 m 617 926 l 154 926 l 154 1080 l 617 1080 l 617 926 m 772 154 l 617 154 l 617 463 l 772 463 l 772 154 z "},"ş":{"ha":926,"x_min":0,"x_max":772,"o":"m 772 154 l 617 154 l 617 309 l 772 309 l 772 154 m 309 -309 l 154 -309 l 154 -154 l 309 -154 l 309 -309 m 309 0 l 0 0 l 0 154 l 617 154 l 617 0 l 463 0 l 463 -154 l 309 -154 l 309 0 m 772 617 l 154 617 l 154 772 l 772 772 l 772 617 m 154 463 l 0 463 l 0 617 l 154 617 l 154 463 m 617 309 l 154 309 l 154 463 l 617 463 l 617 309 z "},"Ţ":{"ha":926,"x_min":0,"x_max":772,"o":"m 309 926 l 0 926 l 0 1080 l 772 1080 l 772 926 l 463 926 l 463 -154 l 309 -154 l 309 926 m 309 -309 l 154 -309 l 154 -154 l 309 -154 l 309 -309 z "},"ţ":{"ha":617,"x_min":0,"x_max":463,"o":"m 309 0 l 154 0 l 154 617 l 0 617 l 0 772 l 154 772 l 154 1080 l 309 1080 l 309 772 l 463 772 l 463 617 l 309 617 l 309 154 l 463 154 l 463 -154 l 309 -154 l 309 0 m 309 -309 l 154 -309 l 154 -154 l 309 -154 l 309 -309 z "},"Ÿ":{"ha":926,"x_min":0,"x_max":772,"o":"m 154 617 l 0 617 l 0 1080 l 154 1080 l 154 617 m 463 463 l 463 0 l 309 0 l 309 463 l 154 463 l 154 617 l 617 617 l 617 463 l 463 463 m 772 617 l 617 617 l 617 1080 l 772 1080 l 772 617 m 309 1235 l 154 1235 l 154 1389 l 309 1389 l 309 1235 m 617 1235 l 463 1235 l 463 1389 l 617 1389 l 617 1235 z "},"Ǣ":{"ha":1080,"x_min":0,"x_max":926,"o":"m 463 926 l 154 926 l 154 1080 l 463 1080 l 463 926 m 772 1235 l 309 1235 l 309 1389 l 772 1389 l 772 1235 m 926 926 l 617 926 l 617 1080 l 926 1080 l 926 926 m 463 617 l 463 926 l 617 926 l 617 617 l 926 617 l 926 463 l 617 463 l 617 154 l 926 154 l 926 0 l 463 0 l 463 463 l 154 463 l 154 0 l 0 0 l 0 926 l 154 926 l 154 617 l 463 617 z "},"ǣ":{"ha":1235,"x_min":0,"x_max":1080,"o":"m 154 154 l 0 154 l 0 617 l 154 617 l 154 154 m 772 926 l 309 926 l 309 1080 l 772 1080 l 772 926 m 463 617 l 154 617 l 154 772 l 926 772 l 926 617 l 617 617 l 617 463 l 926 463 l 926 309 l 617 309 l 617 154 l 1080 154 l 1080 0 l 154 0 l 154 154 l 463 154 l 463 617 m 1080 463 l 926 463 l 926 617 l 1080 617 l 1080 463 z "},"Ǽ":{"ha":1080,"x_min":0,"x_max":926,"o":"m 463 926 l 154 926 l 154 1080 l 463 1080 l 463 926 m 617 1080 l 463 1080 l 463 1235 l 617 1235 l 617 1080 m 772 1235 l 617 1235 l 617 1389 l 772 1389 l 772 1235 m 926 926 l 617 926 l 617 1080 l 926 1080 l 926 926 m 463 617 l 463 926 l 617 926 l 617 617 l 926 617 l 926 463 l 617 463 l 617 154 l 926 154 l 926 0 l 463 0 l 463 463 l 154 463 l 154 0 l 0 0 l 0 926 l 154 926 l 154 617 l 463 617 z "},"ǽ":{"ha":1235,"x_min":0,"x_max":1080,"o":"m 154 154 l 0 154 l 0 617 l 154 617 l 154 154 m 617 926 l 463 926 l 463 1080 l 617 1080 l 617 926 m 772 1080 l 617 1080 l 617 1235 l 772 1235 l 772 1080 m 463 617 l 154 617 l 154 772 l 926 772 l 926 617 l 617 617 l 617 463 l 926 463 l 926 309 l 617 309 l 617 154 l 1080 154 l 1080 0 l 154 0 l 154 154 l 463 154 l 463 617 m 1080 463 l 926 463 l 926 617 l 1080 617 l 1080 463 z "},"Ǿ":{"ha":926,"x_min":0,"x_max":772,"o":"m 617 0 l 154 0 l 154 154 l 617 154 l 617 0 m 463 1080 l 617 1080 l 617 926 l 154 926 l 154 1080 l 309 1080 l 309 1235 l 463 1235 l 463 1080 m 617 1235 l 463 1235 l 463 1389 l 617 1389 l 617 1235 m 617 772 l 617 926 l 772 926 l 772 154 l 617 154 l 617 617 l 463 617 l 463 772 l 617 772 m 463 463 l 309 463 l 309 617 l 463 617 l 463 463 m 154 309 l 154 154 l 0 154 l 0 926 l 154 926 l 154 463 l 309 463 l 309 309 l 154 309 z "},"ǿ":{"ha":926,"x_min":0,"x_max":772,"o":"m 463 309 l 309 309 l 309 463 l 463 463 l 463 309 m 154 154 l 0 154 l 0 617 l 154 617 l 154 309 l 309 309 l 309 154 l 617 154 l 617 0 l 154 0 l 154 154 m 463 617 l 154 617 l 154 772 l 617 772 l 617 617 l 772 617 l 772 154 l 617 154 l 617 463 l 463 463 l 463 617 m 617 1080 l 463 1080 l 463 1235 l 617 1235 l 617 1080 m 463 926 l 309 926 l 309 1080 l 463 1080 l 463 926 z "},"Ǫ":{"ha":926,"x_min":0,"x_max":772,"o":"m 154 154 l 0 154 l 0 926 l 154 926 l 154 154 m 772 -309 l 617 -309 l 617 -154 l 772 -154 l 772 -309 m 463 0 l 154 0 l 154 154 l 617 154 l 617 -154 l 463 -154 l 463 0 m 617 926 l 154 926 l 154 1080 l 617 1080 l 617 926 m 772 154 l 617 154 l 617 926 l 772 926 l 772 154 z "},"ǫ":{"ha":926,"x_min":0,"x_max":772,"o":"m 154 154 l 0 154 l 0 617 l 154 617 l 154 154 m 772 -309 l 617 -309 l 617 -154 l 772 -154 l 772 -309 m 463 0 l 154 0 l 154 154 l 617 154 l 617 -154 l 463 -154 l 463 0 m 772 154 l 617 154 l 617 617 l 772 617 l 772 154 m 617 617 l 154 617 l 154 772 l 617 772 l 617 617 z "},"Ǵ":{"ha":926,"x_min":0,"x_max":772,"o":"m 154 154 l 0 154 l 0 926 l 154 926 l 154 154 m 463 1080 l 617 1080 l 617 926 l 154 926 l 154 1080 l 309 1080 l 309 1235 l 463 1235 l 463 1080 m 617 1235 l 463 1235 l 463 1389 l 617 1389 l 617 1235 m 617 154 l 617 463 l 309 463 l 309 617 l 772 617 l 772 0 l 154 0 l 154 154 l 617 154 z "},"ǵ":{"ha":926,"x_min":0,"x_max":772,"o":"m 154 154 l 0 154 l 0 617 l 154 617 l 154 154 m 617 154 l 463 154 l 463 309 l 617 309 l 617 463 l 463 463 l 463 617 l 617 617 l 617 772 l 772 772 l 772 -154 l 617 -154 l 617 154 m 463 617 l 154 617 l 154 772 l 463 772 l 463 617 m 463 0 l 154 0 l 154 154 l 463 154 l 463 0 m 617 -309 l 154 -309 l 154 -154 l 617 -154 l 617 -309 m 617 1080 l 463 1080 l 463 1235 l 617 1235 l 617 1080 m 463 926 l 309 926 l 309 1080 l 463 1080 l 463 926 z "},"Ȧ":{"ha":926,"x_min":0,"x_max":772,"o":"m 463 926 l 309 926 l 309 1080 l 463 1080 l 463 926 m 154 309 l 154 0 l 0 0 l 0 617 l 154 617 l 154 463 l 617 463 l 617 617 l 772 617 l 772 0 l 617 0 l 617 309 l 154 309 m 617 617 l 463 617 l 463 926 l 617 926 l 617 617 m 309 617 l 154 617 l 154 926 l 309 926 l 309 617 m 463 1235 l 309 1235 l 309 1389 l 463 1389 l 463 1235 z "},"ȧ":{"ha":926,"x_min":0,"x_max":772,"o":"m 154 154 l 0 154 l 0 617 l 154 617 l 154 154 m 617 463 l 463 463 l 463 617 l 617 617 l 617 772 l 772 772 l 772 0 l 617 0 l 617 154 l 463 154 l 463 309 l 617 309 l 617 463 m 463 0 l 154 0 l 154 154 l 463 154 l 463 0 m 463 617 l 154 617 l 154 772 l 463 772 l 463 617 m 463 926 l 309 926 l 309 1080 l 463 1080 l 463 926 z "},"Ѐ":{"ha":926,"x_min":0,"x_max":772,"o":"m 309 1235 l 154 1235 l 154 1389 l 309 1389 l 309 1235 m 463 1080 l 772 1080 l 772 926 l 154 926 l 154 617 l 772 617 l 772 463 l 154 463 l 154 154 l 772 154 l 772 0 l 0 0 l 0 1080 l 309 1080 l 309 1235 l 463 1235 l 463 1080 z "},"ѐ":{"ha":926,"x_min":0,"x_max":772,"o":"m 617 617 l 154 617 l 154 772 l 617 772 l 617 617 m 154 309 l 154 154 l 0 154 l 0 617 l 154 617 l 154 463 l 617 463 l 617 617 l 772 617 l 772 309 l 154 309 m 772 0 l 154 0 l 154 154 l 772 154 l 772 0 m 309 1080 l 154 1080 l 154 1235 l 309 1235 l 309 1080 m 463 926 l 309 926 l 309 1080 l 463 1080 l 463 926 z "},"Ѓ":{"ha":926,"x_min":0,"x_max":772,"o":"m 617 1235 l 463 1235 l 463 1389 l 617 1389 l 617 1235 m 154 926 l 154 0 l 0 0 l 0 1080 l 309 1080 l 309 1235 l 463 1235 l 463 1080 l 772 1080 l 772 926 l 154 926 z "},"ѓ":{"ha":772,"x_min":0,"x_max":617,"o":"m 154 617 l 154 0 l 0 0 l 0 772 l 617 772 l 617 617 l 154 617 m 309 926 l 154 926 l 154 1080 l 309 1080 l 309 926 m 463 1080 l 309 1080 l 309 1235 l 463 1235 l 463 1080 z "},"Ѕ":{"ha":926,"x_min":0,"x_max":772,"o":"m 154 154 l 0 154 l 0 309 l 154 309 l 154 154 m 617 0 l 154 0 l 154 154 l 617 154 l 617 0 m 772 154 l 617 154 l 617 463 l 772 463 l 772 154 m 617 926 l 154 926 l 154 1080 l 617 1080 l 617 926 m 772 772 l 617 772 l 617 926 l 772 926 l 772 772 m 154 617 l 0 617 l 0 926 l 154 926 l 154 617 m 617 463 l 154 463 l 154 617 l 617 617 l 617 463 z "},"ѕ":{"ha":926,"x_min":0,"x_max":772,"o":"m 617 0 l 0 0 l 0 154 l 617 154 l 617 0 m 772 154 l 617 154 l 617 309 l 772 309 l 772 154 m 617 309 l 154 309 l 154 463 l 617 463 l 617 309 m 154 463 l 0 463 l 0 617 l 154 617 l 154 463 m 772 617 l 154 617 l 154 772 l 772 772 l 772 617 z "},"Ќ":{"ha":926,"x_min":0,"x_max":772,"o":"m 154 463 l 154 0 l 0 0 l 0 1080 l 154 1080 l 154 617 l 309 617 l 309 463 l 154 463 m 772 926 l 617 926 l 617 1080 l 772 1080 l 772 926 m 617 772 l 463 772 l 463 926 l 617 926 l 617 772 m 463 617 l 309 617 l 309 772 l 463 772 l 463 617 m 772 0 l 617 0 l 617 154 l 772 154 l 772 0 m 617 154 l 463 154 l 463 309 l 617 309 l 617 154 m 463 309 l 309 309 l 309 463 l 463 463 l 463 309 m 617 1235 l 463 1235 l 463 1389 l 617 1389 l 617 1235 m 463 1080 l 309 1080 l 309 1235 l 463 1235 l 463 1080 z "},"ќ":{"ha":926,"x_min":0,"x_max":772,"o":"m 154 309 l 154 0 l 0 0 l 0 772 l 154 772 l 154 463 l 463 463 l 463 309 l 154 309 m 772 0 l 617 0 l 617 154 l 772 154 l 772 0 m 617 154 l 463 154 l 463 309 l 617 309 l 617 154 m 772 617 l 617 617 l 617 772 l 772 772 l 772 617 m 617 463 l 463 463 l 463 617 l 617 617 l 617 463 m 617 1080 l 463 1080 l 463 1235 l 617 1235 l 617 1080 m 463 926 l 309 926 l 309 1080 l 463 1080 l 463 926 z "},"ѝ":{"ha":926,"x_min":0,"x_max":772,"o":"m 772 1080 l 772 0 l 617 0 l 617 772 l 463 772 l 463 1080 l 772 1080 m 463 1080 l 309 1080 l 309 1235 l 463 1235 l 463 1080 m 309 1235 l 154 1235 l 154 1389 l 309 1389 l 309 1235 m 463 309 l 309 309 l 309 772 l 463 772 l 463 309 m 0 0 l 0 1080 l 154 1080 l 154 309 l 309 309 l 309 0 l 0 0 z "},"Ѝ":{"ha":926,"x_min":0,"x_max":772,"o":"m 154 154 l 154 0 l 0 0 l 0 772 l 154 772 l 154 309 l 309 309 l 309 154 l 154 154 m 463 926 l 309 926 l 309 1080 l 463 1080 l 463 926 m 309 1080 l 154 1080 l 154 1235 l 309 1235 l 309 1080 m 617 617 l 617 772 l 772 772 l 772 0 l 617 0 l 617 463 l 463 463 l 463 617 l 617 617 m 463 309 l 309 309 l 309 463 l 463 463 l 463 309 z "},"Ў":{"ha":926,"x_min":0,"x_max":772,"o":"m 772 617 l 617 617 l 617 1080 l 772 1080 l 772 617 m 617 1235 l 463 1235 l 463 1389 l 617 1389 l 617 1235 m 463 1080 l 309 1080 l 309 1235 l 463 1235 l 463 1080 m 309 1235 l 154 1235 l 154 1389 l 309 1389 l 309 1235 m 463 463 l 463 617 l 617 617 l 617 154 l 463 154 l 463 309 l 309 309 l 309 463 l 463 463 m 309 463 l 154 463 l 154 617 l 309 617 l 309 463 m 154 617 l 0 617 l 0 1080 l 154 1080 l 154 617 m 463 0 l 0 0 l 0 154 l 463 154 l 463 0 z "},"ў":{"ha":926,"x_min":0,"x_max":772,"o":"m 772 309 l 617 309 l 617 772 l 772 772 l 772 309 m 617 1080 l 463 1080 l 463 1235 l 617 1235 l 617 1080 m 463 926 l 309 926 l 309 1080 l 463 1080 l 463 926 m 309 1080 l 154 1080 l 154 1235 l 309 1235 l 309 1080 m 617 309 l 617 0 l 463 0 l 463 154 l 154 154 l 154 309 l 617 309 m 154 309 l 0 309 l 0 772 l 154 772 l 154 309 m 463 -154 l 0 -154 l 0 0 l 463 0 l 463 -154 z "},"Ӕ":{"ha":1080,"x_min":0,"x_max":926,"o":"m 463 926 l 154 926 l 154 1080 l 463 1080 l 463 926 m 926 926 l 617 926 l 617 1080 l 926 1080 l 926 926 m 463 617 l 463 926 l 617 926 l 617 617 l 926 617 l 926 463 l 617 463 l 617 154 l 926 154 l 926 0 l 463 0 l 463 463 l 154 463 l 154 0 l 0 0 l 0 926 l 154 926 l 154 617 l 463 617 z "},"ӕ":{"ha":1235,"x_min":0,"x_max":1080,"o":"m 154 154 l 0 154 l 0 617 l 154 617 l 154 154 m 463 617 l 154 617 l 154 772 l 926 772 l 926 617 l 617 617 l 617 463 l 926 463 l 926 309 l 617 309 l 617 154 l 1080 154 l 1080 0 l 154 0 l 154 154 l 463 154 l 463 617 m 1080 463 l 926 463 l 926 617 l 1080 617 l 1080 463 z "},"Ȩ":{"ha":926,"x_min":0,"x_max":772,"o":"m 309 0 l 0 0 l 0 1080 l 772 1080 l 772 926 l 154 926 l 154 617 l 617 617 l 617 463 l 154 463 l 154 154 l 772 154 l 772 0 l 463 0 l 463 -154 l 309 -154 l 309 0 m 309 -309 l 154 -309 l 154 -154 l 309 -154 l 309 -309 z "},"ȩ":{"ha":926,"x_min":0,"x_max":772,"o":"m 617 617 l 154 617 l 154 772 l 617 772 l 617 617 m 309 -309 l 154 -309 l 154 -154 l 309 -154 l 309 -309 m 309 0 l 154 0 l 154 154 l 772 154 l 772 0 l 463 0 l 463 -154 l 309 -154 l 309 0 m 154 309 l 154 154 l 0 154 l 0 617 l 154 617 l 154 463 l 617 463 l 617 617 l 772 617 l 772 309 l 154 309 z "},"Ȥ":{"ha":926,"x_min":0,"x_max":772,"o":"m 617 617 l 463 617 l 463 772 l 617 772 l 617 617 m 617 0 l 0 0 l 0 309 l 154 309 l 154 154 l 772 154 l 772 -154 l 617 -154 l 617 0 m 617 926 l 0 926 l 0 1080 l 772 1080 l 772 772 l 617 772 l 617 926 m 309 309 l 154 309 l 154 463 l 309 463 l 309 309 m 463 463 l 309 463 l 309 617 l 463 617 l 463 463 z "},"ȥ":{"ha":926,"x_min":0,"x_max":772,"o":"m 617 617 l 0 617 l 0 772 l 772 772 l 772 463 l 617 463 l 617 617 m 617 0 l 0 0 l 0 309 l 154 309 l 154 154 l 772 154 l 772 -154 l 617 -154 l 617 0 m 617 309 l 154 309 l 154 463 l 617 463 l 617 309 z "},"Ǧ":{"ha":926,"x_min":0,"x_max":772,"o":"m 154 154 l 0 154 l 0 926 l 154 926 l 154 154 m 309 1235 l 154 1235 l 154 1389 l 309 1389 l 309 1235 m 463 1080 l 617 1080 l 617 926 l 154 926 l 154 1080 l 309 1080 l 309 1235 l 463 1235 l 463 1080 m 617 1235 l 463 1235 l 463 1389 l 617 1389 l 617 1235 m 617 154 l 617 463 l 309 463 l 309 617 l 772 617 l 772 0 l 154 0 l 154 154 l 617 154 z "},"ǧ":{"ha":926,"x_min":0,"x_max":772,"o":"m 154 154 l 0 154 l 0 617 l 154 617 l 154 154 m 617 1080 l 463 1080 l 463 1235 l 617 1235 l 617 1080 m 309 1080 l 154 1080 l 154 1235 l 309 1235 l 309 1080 m 463 926 l 309 926 l 309 1080 l 463 1080 l 463 926 m 617 154 l 463 154 l 463 309 l 617 309 l 617 463 l 463 463 l 463 617 l 617 617 l 617 772 l 772 772 l 772 -154 l 617 -154 l 617 154 m 463 617 l 154 617 l 154 772 l 463 772 l 463 617 m 463 0 l 154 0 l 154 154 l 463 154 l 463 0 m 617 -309 l 154 -309 l 154 -154 l 617 -154 l 617 -309 z "},"Ǩ":{"ha":926,"x_min":0,"x_max":772,"o":"m 154 463 l 154 0 l 0 0 l 0 1080 l 154 1080 l 154 617 l 309 617 l 309 463 l 154 463 m 772 926 l 617 926 l 617 1080 l 772 1080 l 772 926 m 617 772 l 463 772 l 463 926 l 617 926 l 617 772 m 463 617 l 309 617 l 309 772 l 463 772 l 463 617 m 772 0 l 617 0 l 617 154 l 772 154 l 772 0 m 617 154 l 463 154 l 463 309 l 617 309 l 617 154 m 463 309 l 309 309 l 309 463 l 463 463 l 463 309 m 309 1235 l 154 1235 l 154 1389 l 309 1389 l 309 1235 m 463 1080 l 309 1080 l 309 1235 l 463 1235 l 463 1080 m 617 1235 l 463 1235 l 463 1389 l 617 1389 l 617 1235 z "},"ǩ":{"ha":772,"x_min":0,"x_max":617,"o":"m 617 0 l 463 0 l 463 154 l 617 154 l 617 0 m 617 1080 l 463 1080 l 463 1235 l 617 1235 l 617 1080 m 309 1080 l 154 1080 l 154 1235 l 309 1235 l 309 1080 m 463 926 l 309 926 l 309 1080 l 463 1080 l 463 926 m 154 309 l 154 0 l 0 0 l 0 1080 l 154 1080 l 154 463 l 309 463 l 309 309 l 154 309 m 463 463 l 309 463 l 309 617 l 463 617 l 463 463 m 617 617 l 463 617 l 463 772 l 617 772 l 617 617 m 463 154 l 309 154 l 309 309 l 463 309 l 463 154 z "},"Ã":{"ha":926,"x_min":0,"x_max":772,"o":"m 463 926 l 309 926 l 309 1080 l 463 1080 l 463 926 m 154 309 l 154 0 l 0 0 l 0 617 l 154 617 l 154 463 l 617 463 l 617 617 l 772 617 l 772 0 l 617 0 l 617 309 l 154 309 m 617 617 l 463 617 l 463 926 l 617 926 l 617 617 m 309 617 l 154 617 l 154 926 l 309 926 l 309 617 m 309 1080 l 154 1080 l 154 1235 l 309 1235 l 309 1080 m 463 1235 l 309 1235 l 309 1389 l 463 1389 l 463 1235 m 617 1080 l 463 1080 l 463 1235 l 617 1235 l 617 1080 m 772 1235 l 617 1235 l 617 1389 l 772 1389 l 772 1235 z "},"ã":{"ha":926,"x_min":0,"x_max":772,"o":"m 154 154 l 0 154 l 0 617 l 154 617 l 154 154 m 617 463 l 463 463 l 463 617 l 617 617 l 617 772 l 772 772 l 772 0 l 617 0 l 617 154 l 463 154 l 463 309 l 617 309 l 617 463 m 463 0 l 154 0 l 154 154 l 463 154 l 463 0 m 463 617 l 154 617 l 154 772 l 463 772 l 463 617 m 309 926 l 154 926 l 154 1080 l 309 1080 l 309 926 m 463 1080 l 309 1080 l 309 1235 l 463 1235 l 463 1080 m 617 926 l 463 926 l 463 1080 l 617 1080 l 617 926 m 772 1080 l 617 1080 l 617 1235 l 772 1235 l 772 1080 z "},"₿":{"ha":926,"x_min":-154,"x_max":772,"o":"m 772 154 l 617 154 l 617 463 l 772 463 l 772 154 m 154 1080 l 154 1235 l 309 1235 l 309 1080 l 463 1080 l 463 1235 l 617 1235 l 617 926 l 154 926 l 154 617 l 617 617 l 617 463 l 154 463 l 154 154 l 617 154 l 617 -154 l 463 -154 l 463 0 l 309 0 l 309 -154 l 154 -154 l 154 0 l -154 0 l -154 154 l 0 154 l 0 926 l -154 926 l -154 1080 l 154 1080 m 772 617 l 617 617 l 617 926 l 772 926 l 772 617 z "},"ə":{"ha":926,"x_min":0,"x_max":772,"o":"m 154 154 l 617 154 l 617 0 l 154 0 l 154 154 m 617 463 l 617 617 l 772 617 l 772 154 l 617 154 l 617 309 l 154 309 l 154 154 l 0 154 l 0 463 l 617 463 m 0 772 l 617 772 l 617 617 l 0 617 l 0 772 z "},"Â":{"ha":926,"x_min":0,"x_max":772,"o":"m 463 926 l 309 926 l 309 1080 l 463 1080 l 463 926 m 154 309 l 154 0 l 0 0 l 0 617 l 154 617 l 154 463 l 617 463 l 617 617 l 772 617 l 772 0 l 617 0 l 617 309 l 154 309 m 617 617 l 463 617 l 463 926 l 617 926 l 617 617 m 309 617 l 154 617 l 154 926 l 309 926 l 309 617 m 463 1235 l 309 1235 l 309 1389 l 463 1389 l 463 1235 m 309 1080 l 154 1080 l 154 1235 l 309 1235 l 309 1080 m 617 1080 l 463 1080 l 463 1235 l 617 1235 l 617 1080 z "},"â":{"ha":926,"x_min":0,"x_max":772,"o":"m 154 154 l 0 154 l 0 617 l 154 617 l 154 154 m 617 463 l 463 463 l 463 617 l 617 617 l 617 772 l 772 772 l 772 0 l 617 0 l 617 154 l 463 154 l 463 309 l 617 309 l 617 463 m 463 0 l 154 0 l 154 154 l 463 154 l 463 0 m 463 617 l 154 617 l 154 772 l 463 772 l 463 617 m 617 926 l 463 926 l 463 1080 l 617 1080 l 617 926 m 463 1080 l 309 1080 l 309 1235 l 463 1235 l 463 1080 m 309 926 l 154 926 l 154 1080 l 309 1080 l 309 926 z "},"Ê":{"ha":926,"x_min":0,"x_max":772,"o":"m 463 1235 l 309 1235 l 309 1389 l 463 1389 l 463 1235 m 154 1080 l 154 1235 l 309 1235 l 309 1080 l 463 1080 l 463 1235 l 617 1235 l 617 1080 l 772 1080 l 772 926 l 154 926 l 154 617 l 617 617 l 617 463 l 154 463 l 154 154 l 772 154 l 772 0 l 0 0 l 0 1080 l 154 1080 z "},"ê":{"ha":926,"x_min":0,"x_max":772,"o":"m 617 617 l 154 617 l 154 772 l 617 772 l 617 617 m 154 309 l 154 154 l 0 154 l 0 617 l 154 617 l 154 463 l 617 463 l 617 617 l 772 617 l 772 309 l 154 309 m 772 0 l 154 0 l 154 154 l 772 154 l 772 0 m 617 926 l 463 926 l 463 1080 l 617 1080 l 617 926 m 463 1080 l 309 1080 l 309 1235 l 463 1235 l 463 1080 m 309 926 l 154 926 l 154 1080 l 309 1080 l 309 926 z "},"Î":{"ha":617,"x_min":0,"x_max":463,"o":"m 309 1235 l 154 1235 l 154 1389 l 309 1389 l 309 1235 m 0 1235 l 154 1235 l 154 1080 l 309 1080 l 309 1235 l 463 1235 l 463 926 l 309 926 l 309 154 l 463 154 l 463 0 l 0 0 l 0 154 l 154 154 l 154 926 l 0 926 l 0 1235 z "},"î":{"ha":617,"x_min":0,"x_max":463,"o":"m 309 0 l 154 0 l 154 772 l 309 772 l 309 0 m 463 926 l 309 926 l 309 1080 l 463 1080 l 463 926 m 309 1080 l 154 1080 l 154 1235 l 309 1235 l 309 1080 m 154 926 l 0 926 l 0 1080 l 154 1080 l 154 926 z "},"Ô":{"ha":926,"x_min":0,"x_max":772,"o":"m 154 154 l 0 154 l 0 926 l 154 926 l 154 154 m 154 1235 l 309 1235 l 309 1080 l 463 1080 l 463 1235 l 617 1235 l 617 926 l 154 926 l 154 1235 m 463 1235 l 309 1235 l 309 1389 l 463 1389 l 463 1235 m 617 0 l 154 0 l 154 154 l 617 154 l 617 0 m 772 154 l 617 154 l 617 926 l 772 926 l 772 154 z "},"ô":{"ha":926,"x_min":0,"x_max":772,"o":"m 154 154 l 0 154 l 0 617 l 154 617 l 154 154 m 617 617 l 154 617 l 154 772 l 617 772 l 617 617 m 772 154 l 617 154 l 617 617 l 772 617 l 772 154 m 617 0 l 154 0 l 154 154 l 617 154 l 617 0 m 617 926 l 463 926 l 463 1080 l 617 1080 l 617 926 m 463 1080 l 309 1080 l 309 1235 l 463 1235 l 463 1080 m 309 926 l 154 926 l 154 1080 l 309 1080 l 309 926 z "},"Û":{"ha":926,"x_min":0,"x_max":772,"o":"m 154 154 l 0 154 l 0 1080 l 154 1080 l 154 154 m 617 0 l 154 0 l 154 154 l 617 154 l 617 0 m 772 154 l 617 154 l 617 1080 l 772 1080 l 772 154 m 463 1235 l 309 1235 l 309 1389 l 463 1389 l 463 1235 m 309 1080 l 154 1080 l 154 1235 l 309 1235 l 309 1080 m 617 1080 l 463 1080 l 463 1235 l 617 1235 l 617 1080 z "},"û":{"ha":926,"x_min":0,"x_max":772,"o":"m 154 154 l 0 154 l 0 772 l 154 772 l 154 154 m 772 154 l 617 154 l 617 772 l 772 772 l 772 154 m 617 0 l 154 0 l 154 154 l 617 154 l 617 0 m 617 926 l 463 926 l 463 1080 l 617 1080 l 617 926 m 463 1080 l 309 1080 l 309 1235 l 463 1235 l 463 1080 m 309 926 l 154 926 l 154 1080 l 309 1080 l 309 926 z "},"Ĉ":{"ha":926,"x_min":0,"x_max":772,"o":"m 154 154 l 0 154 l 0 926 l 154 926 l 154 154 m 154 1235 l 309 1235 l 309 1080 l 463 1080 l 463 1235 l 617 1235 l 617 926 l 154 926 l 154 1235 m 463 1235 l 309 1235 l 309 1389 l 463 1389 l 463 1235 m 617 0 l 154 0 l 154 154 l 617 154 l 617 0 m 772 772 l 617 772 l 617 926 l 772 926 l 772 772 m 772 154 l 617 154 l 617 309 l 772 309 l 772 154 z "},"ĉ":{"ha":926,"x_min":0,"x_max":772,"o":"m 154 154 l 0 154 l 0 617 l 154 617 l 154 154 m 772 617 l 154 617 l 154 772 l 772 772 l 772 617 m 772 0 l 154 0 l 154 154 l 772 154 l 772 0 m 617 926 l 463 926 l 463 1080 l 617 1080 l 617 926 m 463 1080 l 309 1080 l 309 1235 l 463 1235 l 463 1080 m 309 926 l 154 926 l 154 1080 l 309 1080 l 309 926 z "},"Ñ":{"ha":1080,"x_min":0,"x_max":926,"o":"m 463 617 l 309 617 l 309 926 l 463 926 l 463 617 m 309 926 l 154 926 l 154 0 l 0 0 l 0 1080 l 154 1080 l 154 1235 l 309 1235 l 309 926 m 617 1080 l 463 1080 l 463 1235 l 617 1235 l 617 1080 m 463 1235 l 309 1235 l 309 1389 l 463 1389 l 463 1235 m 772 1235 l 617 1235 l 617 1389 l 772 1389 l 772 1235 m 772 309 l 772 1080 l 926 1080 l 926 0 l 772 0 l 772 154 l 617 154 l 617 309 l 772 309 m 617 309 l 463 309 l 463 617 l 617 617 l 617 309 z "},"ñ":{"ha":926,"x_min":0,"x_max":772,"o":"m 154 463 l 154 0 l 0 0 l 0 772 l 154 772 l 154 617 l 309 617 l 309 463 l 154 463 m 772 0 l 617 0 l 617 617 l 772 617 l 772 0 m 617 617 l 309 617 l 309 772 l 617 772 l 617 617 m 309 926 l 154 926 l 154 1080 l 309 1080 l 309 926 m 463 1080 l 309 1080 l 309 1235 l 463 1235 l 463 1080 m 617 926 l 463 926 l 463 1080 l 617 1080 l 617 926 m 772 1080 l 617 1080 l 617 1235 l 772 1235 l 772 1080 z "},"Ĩ":{"ha":617,"x_min":0,"x_max":617,"o":"m 617 1235 l 463 1235 l 463 1389 l 617 1389 l 617 1235 m 309 1080 l 309 1235 l 463 1235 l 463 926 l 309 926 l 309 154 l 463 154 l 463 0 l 0 0 l 0 154 l 154 154 l 154 926 l 0 926 l 0 1235 l 154 1235 l 154 1080 l 309 1080 m 309 1235 l 154 1235 l 154 1389 l 309 1389 l 309 1235 z "},"ĩ":{"ha":309,"x_min":-154,"x_max":463,"o":"m 154 0 l 0 0 l 0 772 l 154 772 l 154 0 m 0 926 l -154 926 l -154 1080 l 0 1080 l 0 926 m 154 1080 l 0 1080 l 0 1235 l 154 1235 l 154 1080 m 309 926 l 154 926 l 154 1080 l 309 1080 l 309 926 m 463 1080 l 309 1080 l 309 1235 l 463 1235 l 463 1080 z "},"Ũ":{"ha":926,"x_min":0,"x_max":772,"o":"m 154 154 l 0 154 l 0 1080 l 154 1080 l 154 154 m 617 0 l 154 0 l 154 154 l 617 154 l 617 0 m 772 154 l 617 154 l 617 1080 l 772 1080 l 772 154 m 772 1235 l 617 1235 l 617 1389 l 772 1389 l 772 1235 m 463 1235 l 309 1235 l 309 1389 l 463 1389 l 463 1235 m 617 1080 l 463 1080 l 463 1235 l 617 1235 l 617 1080 m 309 1080 l 154 1080 l 154 1235 l 309 1235 l 309 1080 z "},"ũ":{"ha":926,"x_min":0,"x_max":772,"o":"m 154 154 l 0 154 l 0 772 l 154 772 l 154 154 m 772 154 l 617 154 l 617 772 l 772 772 l 772 154 m 617 0 l 154 0 l 154 154 l 617 154 l 617 0 m 309 926 l 154 926 l 154 1080 l 309 1080 l 309 926 m 463 1080 l 309 1080 l 309 1235 l 463 1235 l 463 1080 m 617 926 l 463 926 l 463 1080 l 617 1080 l 617 926 m 772 1080 l 617 1080 l 617 1235 l 772 1235 l 772 1080 z "},"Ĝ":{"ha":926,"x_min":0,"x_max":772,"o":"m 154 154 l 0 154 l 0 926 l 154 926 l 154 154 m 154 1235 l 309 1235 l 309 1080 l 463 1080 l 463 1235 l 617 1235 l 617 926 l 154 926 l 154 1235 m 463 1235 l 309 1235 l 309 1389 l 463 1389 l 463 1235 m 617 154 l 617 463 l 309 463 l 309 617 l 772 617 l 772 0 l 154 0 l 154 154 l 617 154 z "},"ĝ":{"ha":926,"x_min":0,"x_max":772,"o":"m 154 154 l 0 154 l 0 617 l 154 617 l 154 154 m 617 154 l 463 154 l 463 309 l 617 309 l 617 463 l 463 463 l 463 617 l 617 617 l 617 772 l 772 772 l 772 -154 l 617 -154 l 617 154 m 463 617 l 154 617 l 154 772 l 463 772 l 463 617 m 463 0 l 154 0 l 154 154 l 463 154 l 463 0 m 617 -309 l 154 -309 l 154 -154 l 617 -154 l 617 -309 m 617 926 l 463 926 l 463 1080 l 617 1080 l 617 926 m 463 1080 l 309 1080 l 309 1235 l 463 1235 l 463 1080 m 309 926 l 154 926 l 154 1080 l 309 1080 l 309 926 z "},"Ŝ":{"ha":926,"x_min":0,"x_max":772,"o":"m 154 154 l 0 154 l 0 309 l 154 309 l 154 154 m 154 1235 l 309 1235 l 309 1080 l 463 1080 l 463 1235 l 617 1235 l 617 926 l 154 926 l 154 1235 m 463 1235 l 309 1235 l 309 1389 l 463 1389 l 463 1235 m 617 463 l 154 463 l 154 617 l 617 617 l 617 463 m 154 617 l 0 617 l 0 926 l 154 926 l 154 617 m 772 772 l 617 772 l 617 926 l 772 926 l 772 772 m 772 154 l 617 154 l 617 463 l 772 463 l 772 154 m 617 0 l 154 0 l 154 154 l 617 154 l 617 0 z "},"ŝ":{"ha":926,"x_min":0,"x_max":772,"o":"m 617 0 l 0 0 l 0 154 l 617 154 l 617 0 m 772 154 l 617 154 l 617 309 l 772 309 l 772 154 m 617 309 l 154 309 l 154 463 l 617 463 l 617 309 m 154 463 l 0 463 l 0 617 l 154 617 l 154 463 m 772 617 l 154 617 l 154 772 l 772 772 l 772 617 m 617 926 l 463 926 l 463 1080 l 617 1080 l 617 926 m 463 1080 l 309 1080 l 309 1235 l 463 1235 l 463 1080 m 309 926 l 154 926 l 154 1080 l 309 1080 l 309 926 z "},"Ỳ":{"ha":926,"x_min":0,"x_max":772,"o":"m 154 617 l 0 617 l 0 1080 l 154 1080 l 154 617 m 463 463 l 463 0 l 309 0 l 309 463 l 154 463 l 154 617 l 617 617 l 617 463 l 463 463 m 772 617 l 617 617 l 617 1080 l 772 1080 l 772 617 m 309 1235 l 154 1235 l 154 1389 l 309 1389 l 309 1235 m 463 1080 l 309 1080 l 309 1235 l 463 1235 l 463 1080 z "},"ỳ":{"ha":926,"x_min":0,"x_max":772,"o":"m 772 463 l 617 463 l 617 772 l 772 772 l 772 463 m 154 463 l 0 463 l 0 772 l 154 772 l 154 463 m 463 -154 l 309 -154 l 309 154 l 463 154 l 463 -154 m 309 -309 l 0 -309 l 0 -154 l 309 -154 l 309 -309 m 309 154 l 154 154 l 154 463 l 309 463 l 309 154 m 617 154 l 463 154 l 463 463 l 617 463 l 617 154 m 309 1080 l 154 1080 l 154 1235 l 309 1235 l 309 1080 m 463 926 l 309 926 l 309 1080 l 463 1080 l 463 926 z "},"Ő":{"ha":926,"x_min":0,"x_max":772,"o":"m 154 154 l 0 154 l 0 926 l 154 926 l 154 154 m 463 1080 l 463 1389 l 617 1389 l 617 926 l 154 926 l 154 1389 l 309 1389 l 309 1080 l 463 1080 m 617 0 l 154 0 l 154 154 l 617 154 l 617 0 m 772 154 l 617 154 l 617 926 l 772 926 l 772 154 z "},"ő":{"ha":926,"x_min":0,"x_max":772,"o":"m 154 154 l 0 154 l 0 617 l 154 617 l 154 154 m 617 617 l 154 617 l 154 772 l 617 772 l 617 617 m 772 154 l 617 154 l 617 617 l 772 617 l 772 154 m 617 0 l 154 0 l 154 154 l 617 154 l 617 0 m 309 926 l 154 926 l 154 1235 l 309 1235 l 309 926 m 617 926 l 463 926 l 463 1235 l 617 1235 l 617 926 z "},"Ű":{"ha":926,"x_min":0,"x_max":772,"o":"m 154 154 l 0 154 l 0 1080 l 154 1080 l 154 154 m 617 0 l 154 0 l 154 154 l 617 154 l 617 0 m 772 154 l 617 154 l 617 1080 l 772 1080 l 772 154 m 617 1080 l 463 1080 l 463 1389 l 617 1389 l 617 1080 m 309 1080 l 154 1080 l 154 1389 l 309 1389 l 309 1080 z "},"ű":{"ha":926,"x_min":0,"x_max":772,"o":"m 154 154 l 0 154 l 0 772 l 154 772 l 154 154 m 772 154 l 617 154 l 617 772 l 772 772 l 772 154 m 617 0 l 154 0 l 154 154 l 617 154 l 617 0 m 309 926 l 154 926 l 154 1235 l 309 1235 l 309 926 m 617 926 l 463 926 l 463 1235 l 617 1235 l 617 926 z "},"ẞ":{"ha":926,"x_min":0,"x_max":772,"o":"m 154 0 l 0 0 l 0 926 l 154 926 l 154 0 m 617 0 l 309 0 l 309 154 l 617 154 l 617 0 m 772 154 l 617 154 l 617 309 l 772 309 l 772 154 m 617 926 l 154 926 l 154 1080 l 617 1080 l 617 926 m 463 463 l 309 463 l 309 617 l 463 617 l 463 463 m 617 309 l 463 309 l 463 463 l 617 463 l 617 309 m 617 617 l 463 617 l 463 772 l 617 772 l 617 617 m 772 772 l 617 772 l 617 926 l 772 926 l 772 772 z "},"Đ":{"ha":926,"x_min":-154,"x_max":772,"o":"m 772 309 l 617 309 l 617 772 l 772 772 l 772 309 m 0 617 l 0 1080 l 463 1080 l 463 926 l 154 926 l 154 617 l 309 617 l 309 463 l 154 463 l 154 154 l 463 154 l 463 0 l 0 0 l 0 463 l -154 463 l -154 617 l 0 617 m 617 154 l 463 154 l 463 309 l 617 309 l 617 154 m 617 772 l 463 772 l 463 926 l 617 926 l 617 772 z "},"đ":{"ha":1080,"x_min":0,"x_max":926,"o":"m 154 154 l 0 154 l 0 617 l 154 617 l 154 154 m 772 772 l 772 0 l 617 0 l 617 154 l 463 154 l 463 309 l 617 309 l 617 463 l 463 463 l 463 617 l 617 617 l 617 772 l 463 772 l 463 926 l 617 926 l 617 1080 l 772 1080 l 772 926 l 926 926 l 926 772 l 772 772 m 463 617 l 154 617 l 154 772 l 463 772 l 463 617 m 463 0 l 154 0 l 154 154 l 463 154 l 463 0 z "},"İ":{"ha":617,"x_min":0,"x_max":463,"o":"m 463 1080 l 463 926 l 309 926 l 309 154 l 463 154 l 463 0 l 0 0 l 0 154 l 154 154 l 154 926 l 0 926 l 0 1080 l 463 1080 m 309 1235 l 154 1235 l 154 1389 l 309 1389 l 309 1235 z "},"Ľ":{"ha":926,"x_min":0,"x_max":772,"o":"m 0 0 l 0 1080 l 154 1080 l 154 154 l 772 154 l 772 0 l 0 0 m 772 772 l 617 772 l 617 1080 l 772 1080 l 772 772 z "},"ľ":{"ha":617,"x_min":0,"x_max":463,"o":"m 154 0 l 0 0 l 0 1080 l 154 1080 l 154 0 m 463 772 l 309 772 l 309 1080 l 463 1080 l 463 772 z "},"Ť":{"ha":926,"x_min":0,"x_max":772,"o":"m 463 1080 l 772 1080 l 772 926 l 463 926 l 463 0 l 309 0 l 309 926 l 0 926 l 0 1080 l 309 1080 l 309 1235 l 463 1235 l 463 1080 m 617 1235 l 463 1235 l 463 1389 l 617 1389 l 617 1235 m 309 1235 l 154 1235 l 154 1389 l 309 1389 l 309 1235 z "},"ť":{"ha":772,"x_min":0,"x_max":617,"o":"m 309 772 l 463 772 l 463 617 l 309 617 l 309 154 l 463 154 l 463 0 l 154 0 l 154 617 l 0 617 l 0 772 l 154 772 l 154 1080 l 309 1080 l 309 772 m 617 772 l 463 772 l 463 1080 l 617 1080 l 617 772 z "},"Ḅ":{"ha":926,"x_min":0,"x_max":772,"o":"m 154 154 l 617 154 l 617 0 l 0 0 l 0 1080 l 617 1080 l 617 926 l 154 926 l 154 617 l 617 617 l 617 463 l 154 463 l 154 154 m 772 154 l 617 154 l 617 463 l 772 463 l 772 154 m 772 617 l 617 617 l 617 926 l 772 926 l 772 617 m 463 -309 l 309 -309 l 309 -154 l 463 -154 l 463 -309 z "},"ḅ":{"ha":926,"x_min":0,"x_max":772,"o":"m 617 154 l 617 617 l 772 617 l 772 154 l 617 154 m 154 617 l 309 617 l 309 463 l 154 463 l 154 309 l 309 309 l 309 154 l 154 154 l 154 0 l 0 0 l 0 1080 l 154 1080 l 154 617 m 309 0 l 309 154 l 617 154 l 617 0 l 309 0 m 309 617 l 309 772 l 617 772 l 617 617 l 309 617 m 463 -309 l 309 -309 l 309 -154 l 463 -154 l 463 -309 z "},"Ḍ":{"ha":926,"x_min":0,"x_max":772,"o":"m 463 1080 l 463 926 l 154 926 l 154 154 l 463 154 l 463 0 l 0 0 l 0 1080 l 463 1080 m 772 309 l 617 309 l 617 772 l 772 772 l 772 309 m 617 772 l 463 772 l 463 926 l 617 926 l 617 772 m 617 154 l 463 154 l 463 309 l 617 309 l 617 154 m 463 -309 l 309 -309 l 309 -154 l 463 -154 l 463 -309 z "},"ḍ":{"ha":926,"x_min":0,"x_max":772,"o":"m 154 154 l 0 154 l 0 617 l 154 617 l 154 154 m 617 463 l 463 463 l 463 617 l 617 617 l 617 1080 l 772 1080 l 772 0 l 617 0 l 617 154 l 463 154 l 463 309 l 617 309 l 617 463 m 463 0 l 154 0 l 154 154 l 463 154 l 463 0 m 463 617 l 154 617 l 154 772 l 463 772 l 463 617 m 463 -309 l 309 -309 l 309 -154 l 463 -154 l 463 -309 z "},"Ị":{"ha":617,"x_min":0,"x_max":463,"o":"m 463 1080 l 463 926 l 309 926 l 309 154 l 463 154 l 463 0 l 0 0 l 0 154 l 154 154 l 154 926 l 0 926 l 0 1080 l 463 1080 m 309 -309 l 154 -309 l 154 -154 l 309 -154 l 309 -309 z "},"ị":{"ha":309,"x_min":0,"x_max":154,"o":"m 154 0 l 0 0 l 0 772 l 154 772 l 154 0 m 154 926 l 0 926 l 0 1080 l 154 1080 l 154 926 m 154 -309 l 0 -309 l 0 -154 l 154 -154 l 154 -309 z "},"Ọ":{"ha":926,"x_min":0,"x_max":772,"o":"m 154 154 l 0 154 l 0 926 l 154 926 l 154 154 m 772 154 l 617 154 l 617 926 l 772 926 l 772 154 m 617 926 l 154 926 l 154 1080 l 617 1080 l 617 926 m 617 0 l 154 0 l 154 154 l 617 154 l 617 0 m 463 -309 l 309 -309 l 309 -154 l 463 -154 l 463 -309 z "},"ọ":{"ha":926,"x_min":0,"x_max":772,"o":"m 154 154 l 0 154 l 0 617 l 154 617 l 154 154 m 617 617 l 154 617 l 154 772 l 617 772 l 617 617 m 772 154 l 617 154 l 617 617 l 772 617 l 772 154 m 617 0 l 154 0 l 154 154 l 617 154 l 617 0 m 463 -309 l 309 -309 l 309 -154 l 463 -154 l 463 -309 z "},"Ụ":{"ha":926,"x_min":0,"x_max":772,"o":"m 154 154 l 0 154 l 0 1080 l 154 1080 l 154 154 m 617 0 l 154 0 l 154 154 l 617 154 l 617 0 m 772 154 l 617 154 l 617 1080 l 772 1080 l 772 154 m 463 -309 l 309 -309 l 309 -154 l 463 -154 l 463 -309 z "},"ụ":{"ha":926,"x_min":0,"x_max":772,"o":"m 154 154 l 0 154 l 0 772 l 154 772 l 154 154 m 772 154 l 617 154 l 617 772 l 772 772 l 772 154 m 617 0 l 154 0 l 154 154 l 617 154 l 617 0 m 463 -309 l 309 -309 l 309 -154 l 463 -154 l 463 -309 z "},"Ṅ":{"ha":1080,"x_min":0,"x_max":926,"o":"m 463 617 l 309 617 l 309 926 l 463 926 l 463 617 m 617 309 l 463 309 l 463 617 l 617 617 l 617 309 m 154 926 l 154 0 l 0 0 l 0 1080 l 309 1080 l 309 926 l 154 926 m 772 309 l 772 1080 l 926 1080 l 926 0 l 772 0 l 772 154 l 617 154 l 617 309 l 772 309 m 463 1235 l 309 1235 l 309 1389 l 463 1389 l 463 1235 z "},"ṅ":{"ha":926,"x_min":0,"x_max":772,"o":"m 154 463 l 154 0 l 0 0 l 0 772 l 154 772 l 154 617 l 309 617 l 309 463 l 154 463 m 772 0 l 617 0 l 617 617 l 772 617 l 772 0 m 617 617 l 309 617 l 309 772 l 617 772 l 617 617 m 463 926 l 309 926 l 309 1080 l 463 1080 l 463 926 z "},"Ṇ":{"ha":1080,"x_min":0,"x_max":926,"o":"m 463 617 l 309 617 l 309 926 l 463 926 l 463 617 m 617 309 l 463 309 l 463 617 l 617 617 l 617 309 m 154 926 l 154 0 l 0 0 l 0 1080 l 309 1080 l 309 926 l 154 926 m 772 309 l 772 1080 l 926 1080 l 926 0 l 772 0 l 772 154 l 617 154 l 617 309 l 772 309 m 463 -309 l 309 -309 l 309 -154 l 463 -154 l 463 -309 z "},"ṇ":{"ha":926,"x_min":0,"x_max":772,"o":"m 154 463 l 154 0 l 0 0 l 0 772 l 154 772 l 154 617 l 309 617 l 309 463 l 154 463 m 772 0 l 617 0 l 617 617 l 772 617 l 772 0 m 617 617 l 309 617 l 309 772 l 617 772 l 617 617 m 463 -309 l 309 -309 l 309 -154 l 463 -154 l 463 -309 z "},"Ḷ":{"ha":926,"x_min":0,"x_max":772,"o":"m 0 0 l 0 1080 l 154 1080 l 154 154 l 772 154 l 772 0 l 0 0 m 463 -309 l 309 -309 l 309 -154 l 463 -154 l 463 -309 z "},"ḷ":{"ha":309,"x_min":0,"x_max":154,"o":"m 154 0 l 0 0 l 0 1080 l 154 1080 l 154 0 m 154 -309 l 0 -309 l 0 -154 l 154 -154 l 154 -309 z "},"Ș":{"ha":926,"x_min":0,"x_max":772,"o":"m 154 154 l 0 154 l 0 309 l 154 309 l 154 154 m 309 0 l 154 0 l 154 154 l 617 154 l 617 0 l 463 0 l 463 -154 l 309 -154 l 309 0 m 309 -309 l 154 -309 l 154 -154 l 309 -154 l 309 -309 m 617 463 l 154 463 l 154 617 l 617 617 l 617 463 m 154 617 l 0 617 l 0 926 l 154 926 l 154 617 m 772 772 l 617 772 l 617 926 l 772 926 l 772 772 m 617 926 l 154 926 l 154 1080 l 617 1080 l 617 926 m 772 154 l 617 154 l 617 463 l 772 463 l 772 154 z "},"ș":{"ha":926,"x_min":0,"x_max":772,"o":"m 772 154 l 617 154 l 617 309 l 772 309 l 772 154 m 309 0 l 0 0 l 0 154 l 617 154 l 617 0 l 463 0 l 463 -154 l 309 -154 l 309 0 m 309 -309 l 154 -309 l 154 -154 l 309 -154 l 309 -309 m 772 617 l 154 617 l 154 772 l 772 772 l 772 617 m 154 463 l 0 463 l 0 617 l 154 617 l 154 463 m 617 309 l 154 309 l 154 463 l 617 463 l 617 309 z "},"Ț":{"ha":926,"x_min":0,"x_max":772,"o":"m 309 -309 l 154 -309 l 154 -154 l 309 -154 l 309 -309 m 309 926 l 0 926 l 0 1080 l 772 1080 l 772 926 l 463 926 l 463 -154 l 309 -154 l 309 926 z "},"ț":{"ha":617,"x_min":0,"x_max":463,"o":"m 154 -309 l 0 -309 l 0 -154 l 154 -154 l 154 -309 m 154 617 l 0 617 l 0 772 l 154 772 l 154 1080 l 309 1080 l 309 772 l 463 772 l 463 617 l 309 617 l 309 154 l 463 154 l 463 0 l 309 0 l 309 -154 l 154 -154 l 154 617 z "},"Ȟ":{"ha":926,"x_min":0,"x_max":772,"o":"m 154 463 l 154 0 l 0 0 l 0 1080 l 154 1080 l 154 617 l 617 617 l 617 1080 l 772 1080 l 772 0 l 617 0 l 617 463 l 154 463 m 309 1235 l 154 1235 l 154 1389 l 309 1389 l 309 1235 m 463 1080 l 309 1080 l 309 1235 l 463 1235 l 463 1080 m 617 1235 l 463 1235 l 463 1389 l 617 1389 l 617 1235 z "},"ȟ":{"ha":926,"x_min":0,"x_max":772,"o":"m 154 463 l 154 0 l 0 0 l 0 1080 l 154 1080 l 154 617 l 309 617 l 309 463 l 154 463 m 772 0 l 617 0 l 617 617 l 772 617 l 772 0 m 617 617 l 309 617 l 309 772 l 617 772 l 617 617 m 309 1235 l 154 1235 l 154 1389 l 309 1389 l 309 1235 m 463 1080 l 309 1080 l 309 1235 l 463 1235 l 463 1080 m 617 1235 l 463 1235 l 463 1389 l 617 1389 l 617 1235 z "},"Ạ":{"ha":926,"x_min":0,"x_max":772,"o":"m 463 926 l 309 926 l 309 1080 l 463 1080 l 463 926 m 154 309 l 154 0 l 0 0 l 0 617 l 154 617 l 154 463 l 617 463 l 617 617 l 772 617 l 772 0 l 617 0 l 617 309 l 154 309 m 617 617 l 463 617 l 463 926 l 617 926 l 617 617 m 309 617 l 154 617 l 154 926 l 309 926 l 309 617 m 463 -309 l 309 -309 l 309 -154 l 463 -154 l 463 -309 z "},"ạ":{"ha":926,"x_min":0,"x_max":772,"o":"m 154 154 l 0 154 l 0 617 l 154 617 l 154 154 m 617 463 l 463 463 l 463 617 l 617 617 l 617 772 l 772 772 l 772 0 l 617 0 l 617 154 l 463 154 l 463 309 l 617 309 l 617 463 m 463 0 l 154 0 l 154 154 l 463 154 l 463 0 m 463 617 l 154 617 l 154 772 l 463 772 l 463 617 m 463 -309 l 309 -309 l 309 -154 l 463 -154 l 463 -309 z "},"Ẹ":{"ha":926,"x_min":0,"x_max":772,"o":"m 154 154 l 772 154 l 772 0 l 0 0 l 0 1080 l 772 1080 l 772 926 l 154 926 l 154 617 l 617 617 l 617 463 l 154 463 l 154 154 m 463 -309 l 309 -309 l 309 -154 l 463 -154 l 463 -309 z "},"ẹ":{"ha":926,"x_min":0,"x_max":772,"o":"m 617 617 l 154 617 l 154 772 l 617 772 l 617 617 m 154 309 l 154 154 l 0 154 l 0 617 l 154 617 l 154 463 l 617 463 l 617 617 l 772 617 l 772 309 l 154 309 m 772 0 l 154 0 l 154 154 l 772 154 l 772 0 m 463 -309 l 309 -309 l 309 -154 l 463 -154 l 463 -309 z "},"Ṣ":{"ha":926,"x_min":0,"x_max":772,"o":"m 154 154 l 0 154 l 0 309 l 154 309 l 154 154 m 617 0 l 154 0 l 154 154 l 617 154 l 617 0 m 772 154 l 617 154 l 617 463 l 772 463 l 772 154 m 617 926 l 154 926 l 154 1080 l 617 1080 l 617 926 m 772 772 l 617 772 l 617 926 l 772 926 l 772 772 m 154 617 l 0 617 l 0 926 l 154 926 l 154 617 m 617 463 l 154 463 l 154 617 l 617 617 l 617 463 m 463 -309 l 309 -309 l 309 -154 l 463 -154 l 463 -309 z "},"ṣ":{"ha":926,"x_min":0,"x_max":772,"o":"m 617 0 l 0 0 l 0 154 l 617 154 l 617 0 m 772 154 l 617 154 l 617 309 l 772 309 l 772 154 m 617 309 l 154 309 l 154 463 l 617 463 l 617 309 m 154 463 l 0 463 l 0 617 l 154 617 l 154 463 m 772 617 l 154 617 l 154 772 l 772 772 l 772 617 m 463 -309 l 309 -309 l 309 -154 l 463 -154 l 463 -309 z "},"Ө":{"ha":926,"x_min":0,"x_max":772,"o":"m 617 926 l 154 926 l 154 1080 l 617 1080 l 617 926 m 154 463 l 154 154 l 0 154 l 0 926 l 154 926 l 154 617 l 617 617 l 617 926 l 772 926 l 772 154 l 617 154 l 617 463 l 154 463 m 617 0 l 154 0 l 154 154 l 617 154 l 617 0 z "},"ө":{"ha":926,"x_min":0,"x_max":772,"o":"m 617 617 l 154 617 l 154 772 l 617 772 l 617 617 m 154 309 l 154 154 l 0 154 l 0 617 l 154 617 l 154 463 l 617 463 l 617 617 l 772 617 l 772 154 l 617 154 l 617 309 l 154 309 m 617 0 l 154 0 l 154 154 l 617 154 l 617 0 z "},"Ү":{"ha":926,"x_min":0,"x_max":772,"o":"m 154 617 l 0 617 l 0 1080 l 154 1080 l 154 617 m 463 463 l 463 0 l 309 0 l 309 463 l 154 463 l 154 617 l 617 617 l 617 463 l 463 463 m 772 617 l 617 617 l 617 1080 l 772 1080 l 772 617 z "},"ү":{"ha":926,"x_min":0,"x_max":772,"o":"m 772 309 l 617 309 l 617 772 l 772 772 l 772 309 m 309 154 l 154 154 l 154 309 l 617 309 l 617 154 l 463 154 l 463 -154 l 309 -154 l 309 154 m 154 309 l 0 309 l 0 772 l 154 772 l 154 309 z "},"Ә":{"ha":926,"x_min":0,"x_max":772,"o":"m 617 926 l 154 926 l 154 1080 l 617 1080 l 617 926 m 154 772 l 0 772 l 0 926 l 154 926 l 154 772 m 617 617 l 617 926 l 772 926 l 772 154 l 617 154 l 617 463 l 154 463 l 154 154 l 0 154 l 0 617 l 617 617 m 617 0 l 154 0 l 154 154 l 617 154 l 617 0 z "},"ә":{"ha":926,"x_min":0,"x_max":772,"o":"m 154 154 l 617 154 l 617 0 l 154 0 l 154 154 m 617 463 l 617 617 l 772 617 l 772 154 l 617 154 l 617 309 l 154 309 l 154 154 l 0 154 l 0 463 l 617 463 m 0 772 l 617 772 l 617 617 l 0 617 l 0 772 z "},"Җ":{"ha":1235,"x_min":0,"x_max":1080,"o":"m 154 772 l 0 772 l 0 1080 l 154 1080 l 154 772 m 926 309 l 772 309 l 772 463 l 926 463 l 926 309 m 926 617 l 772 617 l 772 772 l 926 772 l 926 617 m 309 309 l 154 309 l 154 463 l 309 463 l 309 309 m 309 617 l 154 617 l 154 772 l 309 772 l 309 617 m 617 463 l 617 0 l 463 0 l 463 463 l 309 463 l 309 617 l 463 617 l 463 1080 l 617 1080 l 617 617 l 772 617 l 772 463 l 617 463 m 154 0 l 0 0 l 0 309 l 154 309 l 154 0 m 1080 -154 l 926 -154 l 926 309 l 1080 309 l 1080 -154 m 1080 772 l 926 772 l 926 1080 l 1080 1080 l 1080 772 z "},"җ":{"ha":926,"x_min":0,"x_max":772,"o":"m 463 463 l 617 463 l 617 309 l 463 309 l 463 0 l 309 0 l 309 309 l 154 309 l 154 463 l 309 463 l 309 772 l 463 772 l 463 463 m 772 -154 l 617 -154 l 617 309 l 772 309 l 772 -154 m 772 463 l 617 463 l 617 772 l 772 772 l 772 463 m 154 0 l 0 0 l 0 309 l 154 309 l 154 0 m 154 463 l 0 463 l 0 772 l 154 772 l 154 463 z "},"Ң":{"ha":926,"x_min":0,"x_max":772,"o":"m 154 463 l 154 0 l 0 0 l 0 1080 l 154 1080 l 154 617 l 617 617 l 617 1080 l 772 1080 l 772 -154 l 617 -154 l 617 463 l 154 463 z "},"ң":{"ha":926,"x_min":0,"x_max":772,"o":"m 154 309 l 154 0 l 0 0 l 0 772 l 154 772 l 154 463 l 617 463 l 617 772 l 772 772 l 772 -154 l 617 -154 l 617 309 l 154 309 z "},"Ḥ":{"ha":926,"x_min":0,"x_max":772,"o":"m 154 463 l 154 0 l 0 0 l 0 1080 l 154 1080 l 154 617 l 617 617 l 617 1080 l 772 1080 l 772 0 l 617 0 l 617 463 l 154 463 m 463 -309 l 309 -309 l 309 -154 l 463 -154 l 463 -309 z "},"ḥ":{"ha":926,"x_min":0,"x_max":772,"o":"m 154 463 l 154 0 l 0 0 l 0 1080 l 154 1080 l 154 617 l 309 617 l 309 463 l 154 463 m 772 0 l 617 0 l 617 617 l 772 617 l 772 0 m 617 617 l 309 617 l 309 772 l 617 772 l 617 617 m 463 -309 l 309 -309 l 309 -154 l 463 -154 l 463 -309 z "},"Ҳ":{"ha":926,"x_min":0,"x_max":772,"o":"m 154 772 l 0 772 l 0 1080 l 154 1080 l 154 772 m 772 772 l 617 772 l 617 1080 l 772 1080 l 772 772 m 154 0 l 0 0 l 0 309 l 154 309 l 154 0 m 772 -154 l 617 -154 l 617 309 l 772 309 l 772 -154 m 463 463 l 309 463 l 309 617 l 463 617 l 463 463 m 309 617 l 154 617 l 154 772 l 309 772 l 309 617 m 617 617 l 463 617 l 463 772 l 617 772 l 617 617 m 309 309 l 154 309 l 154 463 l 309 463 l 309 309 m 617 309 l 463 309 l 463 463 l 617 463 l 617 309 z "},"ҳ":{"ha":926,"x_min":0,"x_max":772,"o":"m 154 0 l 0 0 l 0 154 l 154 154 l 154 0 m 309 154 l 154 154 l 154 309 l 309 309 l 309 154 m 463 309 l 309 309 l 309 463 l 463 463 l 463 309 m 154 617 l 0 617 l 0 772 l 154 772 l 154 617 m 309 463 l 154 463 l 154 617 l 309 617 l 309 463 m 617 154 l 463 154 l 463 309 l 617 309 l 617 154 m 772 -154 l 617 -154 l 617 154 l 772 154 l 772 -154 m 617 463 l 463 463 l 463 617 l 617 617 l 617 463 m 772 617 l 617 617 l 617 772 l 772 772 l 772 617 z "},"Қ":{"ha":926,"x_min":0,"x_max":772,"o":"m 154 463 l 154 0 l 0 0 l 0 1080 l 154 1080 l 154 617 l 309 617 l 309 463 l 154 463 m 772 926 l 617 926 l 617 1080 l 772 1080 l 772 926 m 617 772 l 463 772 l 463 926 l 617 926 l 617 772 m 463 617 l 309 617 l 309 772 l 463 772 l 463 617 m 772 -154 l 617 -154 l 617 154 l 772 154 l 772 -154 m 617 154 l 463 154 l 463 309 l 617 309 l 617 154 m 463 309 l 309 309 l 309 463 l 463 463 l 463 309 z "},"қ":{"ha":926,"x_min":0,"x_max":772,"o":"m 154 309 l 154 0 l 0 0 l 0 772 l 154 772 l 154 463 l 463 463 l 463 309 l 154 309 m 772 -154 l 617 -154 l 617 154 l 772 154 l 772 -154 m 617 154 l 463 154 l 463 309 l 617 309 l 617 154 m 772 617 l 617 617 l 617 772 l 772 772 l 772 617 m 617 463 l 463 463 l 463 617 l 617 617 l 617 463 z "},"Һ":{"ha":926,"x_min":0,"x_max":772,"o":"m 772 0 l 617 0 l 617 617 l 772 617 l 772 0 m 154 617 l 154 0 l 0 0 l 0 1080 l 154 1080 l 154 772 l 617 772 l 617 617 l 154 617 z "},"һ":{"ha":926,"x_min":0,"x_max":772,"o":"m 154 463 l 154 0 l 0 0 l 0 1080 l 154 1080 l 154 617 l 309 617 l 309 463 l 154 463 m 772 0 l 617 0 l 617 617 l 772 617 l 772 0 m 617 617 l 309 617 l 309 772 l 617 772 l 617 617 z "},"Ə":{"ha":926,"x_min":0,"x_max":772,"o":"m 617 926 l 154 926 l 154 1080 l 617 1080 l 617 926 m 154 772 l 0 772 l 0 926 l 154 926 l 154 772 m 617 617 l 617 926 l 772 926 l 772 154 l 617 154 l 617 463 l 154 463 l 154 154 l 0 154 l 0 617 l 617 617 m 617 0 l 154 0 l 154 154 l 617 154 l 617 0 z "},"∏":{"ha":926,"x_min":0,"x_max":772,"o":"m 617 926 l 154 926 l 154 -154 l 0 -154 l 0 1080 l 772 1080 l 772 -154 l 617 -154 l 617 926 z "},"≠":{"ha":926,"x_min":0,"x_max":772,"o":"m 617 772 l 772 772 l 772 617 l 463 617 l 463 463 l 772 463 l 772 309 l 309 309 l 309 0 l 154 0 l 154 309 l 0 309 l 0 463 l 309 463 l 309 617 l 0 617 l 0 772 l 463 772 l 463 1080 l 617 1080 l 617 772 z "},"Ħ":{"ha":926,"x_min":0,"x_max":772,"o":"m 772 0 l 617 0 l 617 463 l 154 463 l 154 0 l 0 0 l 0 1080 l 154 1080 l 154 926 l 617 926 l 617 1080 l 772 1080 l 772 0 m 154 772 l 154 617 l 617 617 l 617 772 l 154 772 z "},"ħ":{"ha":926,"x_min":0,"x_max":772,"o":"m 772 0 l 617 0 l 617 617 l 772 617 l 772 0 m 154 772 l 154 617 l 309 617 l 309 463 l 154 463 l 154 0 l 0 0 l 0 1080 l 154 1080 l 154 926 l 309 926 l 309 772 l 154 772 m 617 617 l 309 617 l 309 772 l 617 772 l 617 617 z "},"Ḻ":{"ha":926,"x_min":0,"x_max":772,"o":"m 0 0 l 0 1080 l 154 1080 l 154 154 l 772 154 l 772 0 l 0 0 m 617 -309 l 154 -309 l 154 -154 l 617 -154 l 617 -309 z "},"ḻ":{"ha":309,"x_min":-154,"x_max":309,"o":"m 154 0 l 0 0 l 0 1080 l 154 1080 l 154 0 m 309 -309 l -154 -309 l -154 -154 l 309 -154 l 309 -309 z "},"Ṉ":{"ha":1080,"x_min":0,"x_max":926,"o":"m 463 617 l 309 617 l 309 926 l 463 926 l 463 617 m 617 309 l 463 309 l 463 617 l 617 617 l 617 309 m 154 926 l 154 0 l 0 0 l 0 1080 l 309 1080 l 309 926 l 154 926 m 772 309 l 772 1080 l 926 1080 l 926 0 l 772 0 l 772 154 l 617 154 l 617 309 l 772 309 m 617 -309 l 154 -309 l 154 -154 l 617 -154 l 617 -309 z "},"ṉ":{"ha":926,"x_min":0,"x_max":772,"o":"m 154 463 l 154 0 l 0 0 l 0 772 l 154 772 l 154 617 l 309 617 l 309 463 l 154 463 m 772 0 l 617 0 l 617 617 l 772 617 l 772 0 m 617 617 l 309 617 l 309 772 l 617 772 l 617 617 m 617 -309 l 154 -309 l 154 -154 l 617 -154 l 617 -309 z "},"Ǎ":{"ha":926,"x_min":0,"x_max":772,"o":"m 154 309 l 154 0 l 0 0 l 0 617 l 154 617 l 154 463 l 617 463 l 617 617 l 772 617 l 772 0 l 617 0 l 617 309 l 154 309 m 617 1235 l 463 1235 l 463 1389 l 617 1389 l 617 1235 m 309 1235 l 154 1235 l 154 1389 l 309 1389 l 309 1235 m 463 926 l 309 926 l 309 1235 l 463 1235 l 463 926 m 309 617 l 154 617 l 154 926 l 309 926 l 309 617 m 617 617 l 463 617 l 463 926 l 617 926 l 617 617 z "},"ǎ":{"ha":926,"x_min":0,"x_max":772,"o":"m 154 154 l 0 154 l 0 617 l 154 617 l 154 154 m 617 463 l 463 463 l 463 617 l 617 617 l 617 772 l 772 772 l 772 0 l 617 0 l 617 154 l 463 154 l 463 309 l 617 309 l 617 463 m 463 0 l 154 0 l 154 154 l 463 154 l 463 0 m 463 617 l 154 617 l 154 772 l 463 772 l 463 617 m 463 926 l 309 926 l 309 1080 l 463 1080 l 463 926 m 309 1080 l 154 1080 l 154 1235 l 309 1235 l 309 1080 m 617 1080 l 463 1080 l 463 1235 l 617 1235 l 617 1080 z "},"Ǐ":{"ha":617,"x_min":0,"x_max":463,"o":"m 309 1080 l 463 1080 l 463 926 l 309 926 l 309 154 l 463 154 l 463 0 l 0 0 l 0 154 l 154 154 l 154 926 l 0 926 l 0 1080 l 154 1080 l 154 1235 l 309 1235 l 309 1080 m 463 1235 l 309 1235 l 309 1389 l 463 1389 l 463 1235 m 154 1235 l 0 1235 l 0 1389 l 154 1389 l 154 1235 z "},"ǐ":{"ha":309,"x_min":-154,"x_max":309,"o":"m 154 0 l 0 0 l 0 772 l 154 772 l 154 0 m 154 926 l 0 926 l 0 1080 l 154 1080 l 154 926 m 0 1080 l -154 1080 l -154 1235 l 0 1235 l 0 1080 m 309 1080 l 154 1080 l 154 1235 l 309 1235 l 309 1080 z "},"Ǒ":{"ha":926,"x_min":0,"x_max":772,"o":"m 154 154 l 0 154 l 0 926 l 154 926 l 154 154 m 617 1235 l 463 1235 l 463 1389 l 617 1389 l 617 1235 m 309 1235 l 154 1235 l 154 1389 l 309 1389 l 309 1235 m 463 1080 l 617 1080 l 617 926 l 154 926 l 154 1080 l 309 1080 l 309 1235 l 463 1235 l 463 1080 m 617 0 l 154 0 l 154 154 l 617 154 l 617 0 m 772 154 l 617 154 l 617 926 l 772 926 l 772 154 z "},"ǒ":{"ha":926,"x_min":0,"x_max":772,"o":"m 154 154 l 0 154 l 0 617 l 154 617 l 154 154 m 617 617 l 154 617 l 154 772 l 617 772 l 617 617 m 772 154 l 617 154 l 617 617 l 772 617 l 772 154 m 617 0 l 154 0 l 154 154 l 617 154 l 617 0 m 463 926 l 309 926 l 309 1080 l 463 1080 l 463 926 m 309 1080 l 154 1080 l 154 1235 l 309 1235 l 309 1080 m 617 1080 l 463 1080 l 463 1235 l 617 1235 l 617 1080 z "},"Ǔ":{"ha":926,"x_min":0,"x_max":772,"o":"m 154 154 l 0 154 l 0 1080 l 154 1080 l 154 154 m 617 0 l 154 0 l 154 154 l 617 154 l 617 0 m 772 154 l 617 154 l 617 1080 l 772 1080 l 772 154 m 463 1080 l 309 1080 l 309 1235 l 463 1235 l 463 1080 m 309 1235 l 154 1235 l 154 1389 l 309 1389 l 309 1235 m 617 1235 l 463 1235 l 463 1389 l 617 1389 l 617 1235 z "},"ǔ":{"ha":926,"x_min":0,"x_max":772,"o":"m 154 154 l 0 154 l 0 772 l 154 772 l 154 154 m 772 154 l 617 154 l 617 772 l 772 772 l 772 154 m 617 0 l 154 0 l 154 154 l 617 154 l 617 0 m 463 926 l 309 926 l 309 1080 l 463 1080 l 463 926 m 309 1080 l 154 1080 l 154 1235 l 309 1235 l 309 1080 m 617 1080 l 463 1080 l 463 1235 l 617 1235 l 617 1080 z "},"Ẽ":{"ha":926,"x_min":0,"x_max":772,"o":"m 772 1235 l 617 1235 l 617 1389 l 772 1389 l 772 1235 m 463 1080 l 463 1235 l 617 1235 l 617 1080 l 772 1080 l 772 926 l 154 926 l 154 617 l 617 617 l 617 463 l 154 463 l 154 154 l 772 154 l 772 0 l 0 0 l 0 1080 l 154 1080 l 154 1235 l 309 1235 l 309 1080 l 463 1080 m 463 1235 l 309 1235 l 309 1389 l 463 1389 l 463 1235 z "},"ẽ":{"ha":926,"x_min":0,"x_max":772,"o":"m 617 617 l 154 617 l 154 772 l 617 772 l 617 617 m 154 309 l 154 154 l 0 154 l 0 617 l 154 617 l 154 463 l 617 463 l 617 617 l 772 617 l 772 309 l 154 309 m 772 0 l 154 0 l 154 154 l 772 154 l 772 0 m 309 926 l 154 926 l 154 1080 l 309 1080 l 309 926 m 463 1080 l 309 1080 l 309 1235 l 463 1235 l 463 1080 m 617 926 l 463 926 l 463 1080 l 617 1080 l 617 926 m 772 1080 l 617 1080 l 617 1235 l 772 1235 l 772 1080 z "},"Ɔ":{"ha":926,"x_min":0,"x_max":772,"o":"m 617 154 l 617 926 l 772 926 l 772 154 l 617 154 m 0 154 l 0 463 l 154 463 l 154 154 l 0 154 m 0 617 l 0 926 l 154 926 l 154 617 l 0 617 m 154 0 l 154 154 l 617 154 l 617 0 l 154 0 m 154 926 l 154 1080 l 617 1080 l 617 926 l 154 926 z "},"ɔ":{"ha":926,"x_min":0,"x_max":772,"o":"m 154 463 l 0 463 l 0 617 l 154 617 l 154 463 m 617 617 l 154 617 l 154 772 l 617 772 l 617 617 m 772 154 l 617 154 l 617 617 l 772 617 l 772 154 m 617 0 l 154 0 l 154 154 l 617 154 l 617 0 m 154 154 l 0 154 l 0 309 l 154 309 l 154 154 z "},"ĸ":{"ha":926,"x_min":0,"x_max":772,"o":"m 154 309 l 154 0 l 0 0 l 0 772 l 154 772 l 154 463 l 463 463 l 463 309 l 154 309 m 772 0 l 617 0 l 617 154 l 772 154 l 772 0 m 617 154 l 463 154 l 463 309 l 617 309 l 617 154 m 772 617 l 617 617 l 617 772 l 772 772 l 772 617 m 617 463 l 463 463 l 463 617 l 617 617 l 617 463 z "},"Å":{"ha":926,"x_min":0,"x_max":772,"o":"m 463 926 l 309 926 l 309 1080 l 463 1080 l 463 926 m 463 1235 l 309 1235 l 309 1389 l 463 1389 l 463 1235 m 617 1080 l 463 1080 l 463 1235 l 617 1235 l 617 1080 m 309 1080 l 154 1080 l 154 1235 l 309 1235 l 309 1080 m 309 617 l 154 617 l 154 926 l 309 926 l 309 617 m 617 617 l 463 617 l 463 926 l 617 926 l 617 617 m 154 309 l 154 0 l 0 0 l 0 617 l 154 617 l 154 463 l 617 463 l 617 617 l 772 617 l 772 0 l 617 0 l 617 309 l 154 309 z "},"å":{"ha":926,"x_min":0,"x_max":772,"o":"m 154 154 l 0 154 l 0 617 l 154 617 l 154 154 m 463 1080 l 309 1080 l 309 1235 l 463 1235 l 463 1080 m 617 926 l 463 926 l 463 1080 l 617 1080 l 617 926 m 309 926 l 154 926 l 154 1080 l 309 1080 l 309 926 m 463 617 l 154 617 l 154 772 l 309 772 l 309 926 l 463 926 l 463 617 m 463 0 l 154 0 l 154 154 l 463 154 l 463 0 m 617 463 l 463 463 l 463 617 l 617 617 l 617 772 l 772 772 l 772 0 l 617 0 l 617 154 l 463 154 l 463 309 l 617 309 l 617 463 z "},"Ů":{"ha":926,"x_min":0,"x_max":772,"o":"m 154 154 l 0 154 l 0 1080 l 154 1080 l 154 154 m 617 0 l 154 0 l 154 154 l 617 154 l 617 0 m 772 154 l 617 154 l 617 1080 l 772 1080 l 772 154 m 463 926 l 309 926 l 309 1080 l 463 1080 l 463 926 m 309 1080 l 154 1080 l 154 1235 l 309 1235 l 309 1080 m 617 1080 l 463 1080 l 463 1235 l 617 1235 l 617 1080 m 463 1235 l 309 1235 l 309 1389 l 463 1389 l 463 1235 z "},"ů":{"ha":926,"x_min":0,"x_max":772,"o":"m 154 154 l 0 154 l 0 772 l 154 772 l 154 154 m 772 154 l 617 154 l 617 772 l 772 772 l 772 154 m 617 0 l 154 0 l 154 154 l 617 154 l 617 0 m 463 772 l 309 772 l 309 926 l 463 926 l 463 772 m 309 926 l 154 926 l 154 1080 l 309 1080 l 309 926 m 617 926 l 463 926 l 463 1080 l 617 1080 l 617 926 m 463 1080 l 309 1080 l 309 1235 l 463 1235 l 463 1080 z "},"Ǹ":{"ha":1080,"x_min":0,"x_max":926,"o":"m 463 617 l 309 617 l 309 926 l 463 926 l 463 617 m 617 309 l 463 309 l 463 617 l 617 617 l 617 309 m 154 926 l 154 0 l 0 0 l 0 1080 l 309 1080 l 309 926 l 154 926 m 772 309 l 772 1080 l 926 1080 l 926 0 l 772 0 l 772 154 l 617 154 l 617 309 l 772 309 m 463 1235 l 309 1235 l 309 1389 l 463 1389 l 463 1235 m 617 1080 l 463 1080 l 463 1235 l 617 1235 l 617 1080 z "},"ǹ":{"ha":926,"x_min":0,"x_max":772,"o":"m 154 463 l 154 0 l 0 0 l 0 772 l 154 772 l 154 617 l 309 617 l 309 463 l 154 463 m 772 0 l 617 0 l 617 617 l 772 617 l 772 0 m 617 617 l 309 617 l 309 772 l 617 772 l 617 617 m 309 1080 l 154 1080 l 154 1235 l 309 1235 l 309 1080 m 463 926 l 309 926 l 309 1080 l 463 1080 l 463 926 z "},"Ỹ":{"ha":926,"x_min":0,"x_max":772,"o":"m 154 617 l 0 617 l 0 1080 l 154 1080 l 154 617 m 463 463 l 463 0 l 309 0 l 309 463 l 154 463 l 154 617 l 617 617 l 617 463 l 463 463 m 772 617 l 617 617 l 617 1080 l 772 1080 l 772 617 m 772 1235 l 617 1235 l 617 1389 l 772 1389 l 772 1235 m 463 1235 l 309 1235 l 309 1389 l 463 1389 l 463 1235 m 617 1080 l 463 1080 l 463 1235 l 617 1235 l 617 1080 m 309 1080 l 154 1080 l 154 1235 l 309 1235 l 309 1080 z "},"ỹ":{"ha":926,"x_min":0,"x_max":772,"o":"m 772 463 l 617 463 l 617 772 l 772 772 l 772 463 m 154 463 l 0 463 l 0 772 l 154 772 l 154 463 m 463 -154 l 309 -154 l 309 154 l 463 154 l 463 -154 m 309 -309 l 0 -309 l 0 -154 l 309 -154 l 309 -309 m 309 154 l 154 154 l 154 463 l 309 463 l 309 154 m 617 154 l 463 154 l 463 463 l 617 463 l 617 154 m 309 926 l 154 926 l 154 1080 l 309 1080 l 309 926 m 463 1080 l 309 1080 l 309 1235 l 463 1235 l 463 1080 m 617 926 l 463 926 l 463 1080 l 617 1080 l 617 926 m 772 1080 l 617 1080 l 617 1235 l 772 1235 l 772 1080 z "},"Ȯ":{"ha":926,"x_min":0,"x_max":772,"o":"m 154 154 l 0 154 l 0 926 l 154 926 l 154 154 m 772 154 l 617 154 l 617 926 l 772 926 l 772 154 m 617 926 l 154 926 l 154 1080 l 617 1080 l 617 926 m 617 0 l 154 0 l 154 154 l 617 154 l 617 0 m 463 1235 l 309 1235 l 309 1389 l 463 1389 l 463 1235 z "},"ȯ":{"ha":926,"x_min":0,"x_max":772,"o":"m 154 154 l 0 154 l 0 617 l 154 617 l 154 154 m 617 617 l 154 617 l 154 772 l 617 772 l 617 617 m 772 154 l 617 154 l 617 617 l 772 617 l 772 154 m 617 0 l 154 0 l 154 154 l 617 154 l 617 0 m 463 926 l 309 926 l 309 1080 l 463 1080 l 463 926 z "},"Ӝ":{"ha":1235,"x_min":0,"x_max":1080,"o":"m 154 772 l 0 772 l 0 1080 l 154 1080 l 154 772 m 926 309 l 772 309 l 772 463 l 926 463 l 926 309 m 926 617 l 772 617 l 772 772 l 926 772 l 926 617 m 309 309 l 154 309 l 154 463 l 309 463 l 309 309 m 309 617 l 154 617 l 154 772 l 309 772 l 309 617 m 617 463 l 617 0 l 463 0 l 463 463 l 309 463 l 309 617 l 463 617 l 463 1080 l 617 1080 l 617 617 l 772 617 l 772 463 l 617 463 m 154 0 l 0 0 l 0 309 l 154 309 l 154 0 m 1080 0 l 926 0 l 926 309 l 1080 309 l 1080 0 m 1080 772 l 926 772 l 926 1080 l 1080 1080 l 1080 772 m 463 1235 l 309 1235 l 309 1389 l 463 1389 l 463 1235 m 772 1235 l 617 1235 l 617 1389 l 772 1389 l 772 1235 z "},"ӝ":{"ha":926,"x_min":0,"x_max":772,"o":"m 463 463 l 617 463 l 617 309 l 463 309 l 463 0 l 309 0 l 309 309 l 154 309 l 154 463 l 309 463 l 309 772 l 463 772 l 463 463 m 772 0 l 617 0 l 617 309 l 772 309 l 772 0 m 772 463 l 617 463 l 617 772 l 772 772 l 772 463 m 154 0 l 0 0 l 0 309 l 154 309 l 154 0 m 154 463 l 0 463 l 0 772 l 154 772 l 154 463 m 309 926 l 154 926 l 154 1080 l 309 1080 l 309 926 m 617 926 l 463 926 l 463 1080 l 617 1080 l 617 926 z "},"Ӥ":{"ha":926,"x_min":0,"x_max":772,"o":"m 772 1080 l 772 0 l 617 0 l 617 772 l 463 772 l 463 1080 l 772 1080 m 463 309 l 309 309 l 309 772 l 463 772 l 463 309 m 0 0 l 0 1080 l 154 1080 l 154 309 l 309 309 l 309 0 l 0 0 m 309 1235 l 154 1235 l 154 1389 l 309 1389 l 309 1235 m 617 1235 l 463 1235 l 463 1389 l 617 1389 l 617 1235 z "},"ӥ":{"ha":926,"x_min":0,"x_max":772,"o":"m 154 154 l 154 0 l 0 0 l 0 772 l 154 772 l 154 309 l 309 309 l 309 154 l 154 154 m 617 617 l 617 772 l 772 772 l 772 0 l 617 0 l 617 463 l 463 463 l 463 617 l 617 617 m 463 309 l 309 309 l 309 463 l 463 463 l 463 309 m 309 926 l 154 926 l 154 1080 l 309 1080 l 309 926 m 617 926 l 463 926 l 463 1080 l 617 1080 l 617 926 z "},"Ӟ":{"ha":926,"x_min":0,"x_max":772,"o":"m 154 772 l 0 772 l 0 926 l 154 926 l 154 772 m 617 926 l 154 926 l 154 1080 l 617 1080 l 617 926 m 463 463 l 309 463 l 309 617 l 463 617 l 463 463 m 617 0 l 154 0 l 154 154 l 617 154 l 617 0 m 154 154 l 0 154 l 0 309 l 154 309 l 154 154 m 617 309 l 463 309 l 463 463 l 617 463 l 617 309 m 617 617 l 463 617 l 463 772 l 617 772 l 617 617 m 772 772 l 617 772 l 617 926 l 772 926 l 772 772 m 772 154 l 617 154 l 617 309 l 772 309 l 772 154 m 309 1235 l 154 1235 l 154 1389 l 309 1389 l 309 1235 m 617 1235 l 463 1235 l 463 1389 l 617 1389 l 617 1235 z "},"ӟ":{"ha":926,"x_min":0,"x_max":772,"o":"m 154 463 l 0 463 l 0 617 l 154 617 l 154 463 m 617 617 l 154 617 l 154 772 l 617 772 l 617 617 m 617 0 l 154 0 l 154 154 l 617 154 l 617 0 m 154 154 l 0 154 l 0 309 l 154 309 l 154 154 m 617 309 l 463 309 l 463 463 l 617 463 l 617 309 m 772 463 l 617 463 l 617 617 l 772 617 l 772 463 m 772 154 l 617 154 l 617 309 l 772 309 l 772 154 m 309 926 l 154 926 l 154 1080 l 309 1080 l 309 926 m 617 926 l 463 926 l 463 1080 l 617 1080 l 617 926 z "},"Ғ":{"ha":926,"x_min":0,"x_max":772,"o":"m 154 617 l 154 1080 l 772 1080 l 772 926 l 309 926 l 309 617 l 617 617 l 617 463 l 309 463 l 309 0 l 154 0 l 154 463 l 0 463 l 0 617 l 154 617 z "},"ғ":{"ha":772,"x_min":0,"x_max":617,"o":"m 154 463 l 154 772 l 617 772 l 617 617 l 309 617 l 309 463 l 463 463 l 463 309 l 309 309 l 309 0 l 154 0 l 154 309 l 0 309 l 0 463 l 154 463 z "},"Ẓ":{"ha":926,"x_min":0,"x_max":772,"o":"m 154 154 l 772 154 l 772 0 l 0 0 l 0 309 l 154 309 l 154 154 m 617 617 l 463 617 l 463 772 l 617 772 l 617 617 m 463 463 l 309 463 l 309 617 l 463 617 l 463 463 m 309 309 l 154 309 l 154 463 l 309 463 l 309 309 m 617 926 l 0 926 l 0 1080 l 772 1080 l 772 772 l 617 772 l 617 926 m 463 -309 l 309 -309 l 309 -154 l 463 -154 l 463 -309 z "},"ẓ":{"ha":926,"x_min":0,"x_max":772,"o":"m 617 617 l 0 617 l 0 772 l 772 772 l 772 463 l 617 463 l 617 617 m 617 309 l 154 309 l 154 463 l 617 463 l 617 309 m 154 154 l 772 154 l 772 0 l 0 0 l 0 309 l 154 309 l 154 154 m 463 -309 l 309 -309 l 309 -154 l 463 -154 l 463 -309 z "},"Α":{"ha":926,"x_min":0,"x_max":772,"o":"m 463 926 l 309 926 l 309 1080 l 463 1080 l 463 926 m 154 309 l 154 0 l 0 0 l 0 617 l 154 617 l 154 463 l 617 463 l 617 617 l 772 617 l 772 0 l 617 0 l 617 309 l 154 309 m 617 617 l 463 617 l 463 926 l 617 926 l 617 617 m 309 617 l 154 617 l 154 926 l 309 926 l 309 617 z "},"α":{"ha":926,"x_min":0,"x_max":772,"o":"m 154 154 l 0 154 l 0 617 l 154 617 l 154 154 m 617 463 l 463 463 l 463 617 l 617 617 l 617 772 l 772 772 l 772 0 l 617 0 l 617 154 l 463 154 l 463 309 l 617 309 l 617 463 m 463 0 l 154 0 l 154 154 l 463 154 l 463 0 m 463 617 l 154 617 l 154 772 l 463 772 l 463 617 z "},"Β":{"ha":926,"x_min":0,"x_max":772,"o":"m 154 154 l 617 154 l 617 0 l 0 0 l 0 1080 l 617 1080 l 617 926 l 154 926 l 154 617 l 617 617 l 617 463 l 154 463 l 154 154 m 772 154 l 617 154 l 617 463 l 772 463 l 772 154 m 772 617 l 617 617 l 617 926 l 772 926 l 772 617 z "},"β":{"ha":772,"x_min":0,"x_max":617,"o":"m 617 154 l 463 154 l 463 463 l 617 463 l 617 154 m 463 0 l 309 0 l 309 154 l 463 154 l 463 0 m 154 154 l 154 -154 l 0 -154 l 0 926 l 154 926 l 154 309 l 309 309 l 309 154 l 154 154 m 463 926 l 154 926 l 154 1080 l 463 1080 l 463 926 m 463 463 l 309 463 l 309 617 l 463 617 l 463 463 m 617 617 l 463 617 l 463 926 l 617 926 l 617 617 z "},"Γ":{"ha":926,"x_min":0,"x_max":772,"o":"m 154 926 l 154 0 l 0 0 l 0 1080 l 772 1080 l 772 926 l 154 926 z "},"γ":{"ha":926,"x_min":0,"x_max":772,"o":"m 772 309 l 617 309 l 617 772 l 772 772 l 772 309 m 309 309 l 309 154 l 154 154 l 154 309 l 309 309 m 154 309 l 0 309 l 0 772 l 154 772 l 154 309 m 463 -154 l 309 -154 l 309 154 l 463 154 l 463 -154 m 617 309 l 617 154 l 463 154 l 463 309 l 617 309 z "},"Δ":{"ha":926,"x_min":0,"x_max":772,"o":"m 463 926 l 309 926 l 309 1080 l 463 1080 l 463 926 m 617 154 l 617 463 l 772 463 l 772 0 l 0 0 l 0 463 l 154 463 l 154 154 l 617 154 m 309 463 l 154 463 l 154 926 l 309 926 l 309 463 m 617 463 l 463 463 l 463 926 l 617 926 l 617 463 z "},"δ":{"ha":772,"x_min":0,"x_max":617,"o":"m 154 154 l 0 154 l 0 617 l 154 617 l 154 154 m 463 617 l 154 617 l 154 772 l 463 772 l 463 617 m 617 154 l 463 154 l 463 617 l 617 617 l 617 154 m 463 0 l 154 0 l 154 154 l 463 154 l 463 0 m 617 926 l 154 926 l 154 1080 l 617 1080 l 617 926 m 154 772 l 0 772 l 0 926 l 154 926 l 154 772 z "},"Ε":{"ha":926,"x_min":0,"x_max":772,"o":"m 154 154 l 772 154 l 772 0 l 0 0 l 0 1080 l 772 1080 l 772 926 l 154 926 l 154 617 l 617 617 l 617 463 l 154 463 l 154 154 z "},"ε":{"ha":772,"x_min":0,"x_max":617,"o":"m 154 617 l 154 772 l 617 772 l 617 617 l 154 617 m 154 0 l 154 154 l 617 154 l 617 0 l 154 0 m 154 309 l 154 463 l 463 463 l 463 309 l 154 309 m 0 463 l 0 617 l 154 617 l 154 463 l 0 463 m 0 154 l 0 309 l 154 309 l 154 154 l 0 154 z "},"Ζ":{"ha":926,"x_min":0,"x_max":772,"o":"m 154 154 l 772 154 l 772 0 l 0 0 l 0 309 l 154 309 l 154 154 m 617 617 l 463 617 l 463 772 l 617 772 l 617 617 m 463 463 l 309 463 l 309 617 l 463 617 l 463 463 m 309 309 l 154 309 l 154 463 l 309 463 l 309 309 m 617 926 l 0 926 l 0 1080 l 772 1080 l 772 772 l 617 772 l 617 926 z "},"ζ":{"ha":772,"x_min":0,"x_max":617,"o":"m 463 617 l 309 617 l 309 772 l 463 772 l 463 617 m 309 463 l 154 463 l 154 617 l 309 617 l 309 463 m 463 926 l 0 926 l 0 1080 l 617 1080 l 617 772 l 463 772 l 463 926 m 617 -154 l 463 -154 l 463 0 l 617 0 l 617 -154 m 463 0 l 154 0 l 154 154 l 463 154 l 463 0 m 154 154 l 0 154 l 0 463 l 154 463 l 154 154 z "},"Η":{"ha":926,"x_min":0,"x_max":772,"o":"m 154 463 l 154 0 l 0 0 l 0 1080 l 154 1080 l 154 617 l 617 617 l 617 1080 l 772 1080 l 772 0 l 617 0 l 617 463 l 154 463 z "},"η":{"ha":926,"x_min":0,"x_max":772,"o":"m 154 463 l 154 0 l 0 0 l 0 772 l 154 772 l 154 617 l 309 617 l 309 463 l 154 463 m 772 -154 l 617 -154 l 617 617 l 772 617 l 772 -154 m 617 617 l 309 617 l 309 772 l 617 772 l 617 617 z "},"Θ":{"ha":926,"x_min":0,"x_max":772,"o":"m 617 926 l 154 926 l 154 1080 l 617 1080 l 617 926 m 154 463 l 154 154 l 0 154 l 0 926 l 154 926 l 154 617 l 617 617 l 617 926 l 772 926 l 772 154 l 617 154 l 617 463 l 154 463 m 617 0 l 154 0 l 154 154 l 617 154 l 617 0 z "},"θ":{"ha":926,"x_min":0,"x_max":772,"o":"m 617 617 l 154 617 l 154 772 l 617 772 l 617 617 m 154 309 l 154 154 l 0 154 l 0 617 l 154 617 l 154 463 l 617 463 l 617 617 l 772 617 l 772 154 l 617 154 l 617 309 l 154 309 m 617 0 l 154 0 l 154 154 l 617 154 l 617 0 z "},"Ι":{"ha":617,"x_min":0,"x_max":463,"o":"m 463 1080 l 463 926 l 309 926 l 309 154 l 463 154 l 463 0 l 0 0 l 0 154 l 154 154 l 154 926 l 0 926 l 0 1080 l 463 1080 z "},"ι":{"ha":309,"x_min":0,"x_max":154,"o":"m 154 0 l 0 0 l 0 772 l 154 772 l 154 0 z "},"Κ":{"ha":926,"x_min":0,"x_max":772,"o":"m 154 463 l 154 0 l 0 0 l 0 1080 l 154 1080 l 154 617 l 309 617 l 309 463 l 154 463 m 772 926 l 617 926 l 617 1080 l 772 1080 l 772 926 m 617 772 l 463 772 l 463 926 l 617 926 l 617 772 m 463 617 l 309 617 l 309 772 l 463 772 l 463 617 m 772 0 l 617 0 l 617 154 l 772 154 l 772 0 m 617 154 l 463 154 l 463 309 l 617 309 l 617 154 m 463 309 l 309 309 l 309 463 l 463 463 l 463 309 z "},"κ":{"ha":772,"x_min":0,"x_max":617,"o":"m 617 0 l 463 0 l 463 154 l 617 154 l 617 0 m 154 309 l 154 0 l 0 0 l 0 772 l 154 772 l 154 463 l 309 463 l 309 309 l 154 309 m 463 463 l 309 463 l 309 617 l 463 617 l 463 463 m 617 617 l 463 617 l 463 772 l 617 772 l 617 617 m 463 154 l 309 154 l 309 309 l 463 309 l 463 154 z "},"Λ":{"ha":926,"x_min":0,"x_max":772,"o":"m 463 926 l 309 926 l 309 1080 l 463 1080 l 463 926 m 772 0 l 617 0 l 617 463 l 772 463 l 772 0 m 617 463 l 463 463 l 463 926 l 617 926 l 617 463 m 154 0 l 0 0 l 0 463 l 154 463 l 154 0 m 309 463 l 154 463 l 154 926 l 309 926 l 309 463 z "},"λ":{"ha":772,"x_min":0,"x_max":617,"o":"m 309 772 l 154 772 l 154 1080 l 309 1080 l 309 772 m 309 617 l 309 772 l 463 772 l 463 463 l 309 463 l 309 309 l 154 309 l 154 617 l 309 617 m 154 0 l 0 0 l 0 309 l 154 309 l 154 0 m 617 0 l 463 0 l 463 463 l 617 463 l 617 0 z "},"Μ":{"ha":1235,"x_min":0,"x_max":1080,"o":"m 154 772 l 154 0 l 0 0 l 0 1080 l 154 1080 l 154 926 l 309 926 l 309 772 l 154 772 m 926 772 l 772 772 l 772 926 l 926 926 l 926 1080 l 1080 1080 l 1080 0 l 926 0 l 926 772 m 772 617 l 617 617 l 617 772 l 772 772 l 772 617 m 617 463 l 463 463 l 463 617 l 617 617 l 617 463 m 463 617 l 309 617 l 309 772 l 463 772 l 463 617 z "},"μ":{"ha":926,"x_min":0,"x_max":772,"o":"m 772 154 l 617 154 l 617 772 l 772 772 l 772 154 m 154 0 l 154 -154 l 0 -154 l 0 772 l 154 772 l 154 154 l 617 154 l 617 0 l 154 0 z "},"Ν":{"ha":1080,"x_min":0,"x_max":926,"o":"m 463 617 l 309 617 l 309 926 l 463 926 l 463 617 m 617 309 l 463 309 l 463 617 l 617 617 l 617 309 m 154 926 l 154 0 l 0 0 l 0 1080 l 309 1080 l 309 926 l 154 926 m 772 309 l 772 1080 l 926 1080 l 926 0 l 772 0 l 772 154 l 617 154 l 617 309 l 772 309 z "},"ν":{"ha":926,"x_min":0,"x_max":772,"o":"m 463 0 l 309 0 l 309 154 l 463 154 l 463 0 m 309 154 l 154 154 l 154 309 l 309 309 l 309 154 m 617 154 l 463 154 l 463 309 l 617 309 l 617 154 m 154 309 l 0 309 l 0 772 l 154 772 l 154 309 m 772 309 l 617 309 l 617 772 l 772 772 l 772 309 z "},"Ξ":{"ha":926,"x_min":0,"x_max":772,"o":"m 772 926 l 0 926 l 0 1080 l 772 1080 l 772 926 m 772 0 l 0 0 l 0 154 l 772 154 l 772 0 m 617 463 l 154 463 l 154 617 l 617 617 l 617 463 z "},"ξ":{"ha":772,"x_min":0,"x_max":617,"o":"m 154 926 l 154 1080 l 617 1080 l 617 926 l 154 926 m 0 772 l 0 926 l 154 926 l 154 772 l 0 772 m 154 617 l 154 772 l 463 772 l 463 617 l 154 617 m 0 154 l 0 617 l 154 617 l 154 154 l 0 154 m 154 0 l 154 154 l 463 154 l 463 0 l 154 0 m 617 -154 l 463 -154 l 463 0 l 617 0 l 617 -154 z "},"Ο":{"ha":926,"x_min":0,"x_max":772,"o":"m 154 154 l 0 154 l 0 926 l 154 926 l 154 154 m 772 154 l 617 154 l 617 926 l 772 926 l 772 154 m 617 926 l 154 926 l 154 1080 l 617 1080 l 617 926 m 617 0 l 154 0 l 154 154 l 617 154 l 617 0 z "},"ο":{"ha":926,"x_min":0,"x_max":772,"o":"m 154 154 l 0 154 l 0 617 l 154 617 l 154 154 m 617 617 l 154 617 l 154 772 l 617 772 l 617 617 m 772 154 l 617 154 l 617 617 l 772 617 l 772 154 m 617 0 l 154 0 l 154 154 l 617 154 l 617 0 z "},"Ρ":{"ha":926,"x_min":0,"x_max":772,"o":"m 772 617 l 617 617 l 617 926 l 772 926 l 772 617 m 617 1080 l 617 926 l 154 926 l 154 617 l 617 617 l 617 463 l 154 463 l 154 0 l 0 0 l 0 1080 l 617 1080 z "},"ρ":{"ha":772,"x_min":0,"x_max":617,"o":"m 463 617 l 154 617 l 154 772 l 463 772 l 463 617 m 154 0 l 154 -309 l 0 -309 l 0 617 l 154 617 l 154 154 l 463 154 l 463 0 l 154 0 m 617 154 l 463 154 l 463 617 l 617 617 l 617 154 z "},"Σ":{"ha":772,"x_min":0,"x_max":617,"o":"m 0 1080 l 617 1080 l 617 926 l 154 926 l 154 772 l 0 772 l 0 1080 m 463 463 l 309 463 l 309 617 l 463 617 l 463 463 m 309 309 l 154 309 l 154 463 l 309 463 l 309 309 m 154 154 l 617 154 l 617 0 l 0 0 l 0 309 l 154 309 l 154 154 m 309 617 l 154 617 l 154 772 l 309 772 l 309 617 z "},"σ":{"ha":926,"x_min":0,"x_max":772,"o":"m 154 154 l 0 154 l 0 617 l 154 617 l 154 154 m 463 0 l 154 0 l 154 154 l 463 154 l 463 0 m 463 617 l 154 617 l 154 772 l 772 772 l 772 617 l 617 617 l 617 154 l 463 154 l 463 617 z "},"Τ":{"ha":926,"x_min":0,"x_max":772,"o":"m 309 926 l 0 926 l 0 1080 l 772 1080 l 772 926 l 463 926 l 463 0 l 309 0 l 309 926 z "},"τ":{"ha":926,"x_min":0,"x_max":772,"o":"m 309 617 l 0 617 l 0 772 l 772 772 l 772 617 l 463 617 l 463 0 l 309 0 l 309 617 z "},"Υ":{"ha":926,"x_min":0,"x_max":772,"o":"m 154 617 l 0 617 l 0 1080 l 154 1080 l 154 617 m 463 463 l 463 0 l 309 0 l 309 463 l 154 463 l 154 617 l 617 617 l 617 463 l 463 463 m 772 617 l 617 617 l 617 1080 l 772 1080 l 772 617 z "},"υ":{"ha":926,"x_min":0,"x_max":772,"o":"m 154 154 l 0 154 l 0 772 l 154 772 l 154 154 m 772 154 l 617 154 l 617 772 l 772 772 l 772 154 m 617 0 l 154 0 l 154 154 l 617 154 l 617 0 z "},"Φ":{"ha":1235,"x_min":0,"x_max":1080,"o":"m 154 309 l 0 309 l 0 772 l 154 772 l 154 309 m 617 926 l 926 926 l 926 772 l 617 772 l 617 309 l 926 309 l 926 154 l 617 154 l 617 0 l 463 0 l 463 154 l 154 154 l 154 309 l 463 309 l 463 772 l 154 772 l 154 926 l 463 926 l 463 1080 l 617 1080 l 617 926 m 1080 309 l 926 309 l 926 772 l 1080 772 l 1080 309 z "},"φ":{"ha":926,"x_min":0,"x_max":772,"o":"m 772 309 l 617 309 l 617 617 l 772 617 l 772 309 m 463 154 l 463 -154 l 309 -154 l 309 154 l 154 154 l 154 309 l 309 309 l 309 772 l 617 772 l 617 617 l 463 617 l 463 309 l 617 309 l 617 154 l 463 154 m 154 309 l 0 309 l 0 617 l 154 617 l 154 309 z "},"Χ":{"ha":926,"x_min":0,"x_max":772,"o":"m 154 772 l 0 772 l 0 1080 l 154 1080 l 154 772 m 772 772 l 617 772 l 617 1080 l 772 1080 l 772 772 m 154 0 l 0 0 l 0 309 l 154 309 l 154 0 m 772 0 l 617 0 l 617 309 l 772 309 l 772 0 m 463 463 l 309 463 l 309 617 l 463 617 l 463 463 m 309 617 l 154 617 l 154 772 l 309 772 l 309 617 m 617 617 l 463 617 l 463 772 l 617 772 l 617 617 m 309 309 l 154 309 l 154 463 l 309 463 l 309 309 m 617 309 l 463 309 l 463 463 l 617 463 l 617 309 z "},"χ":{"ha":926,"x_min":0,"x_max":772,"o":"m 154 -154 l 0 -154 l 0 0 l 154 0 l 154 -154 m 309 0 l 154 0 l 154 154 l 309 154 l 309 0 m 463 154 l 309 154 l 309 463 l 463 463 l 463 154 m 154 617 l 0 617 l 0 772 l 154 772 l 154 617 m 309 463 l 154 463 l 154 617 l 309 617 l 309 463 m 617 0 l 463 0 l 463 154 l 617 154 l 617 0 m 772 -154 l 617 -154 l 617 0 l 772 0 l 772 -154 m 617 463 l 463 463 l 463 617 l 617 617 l 617 463 m 772 617 l 617 617 l 617 772 l 772 772 l 772 617 z "},"Ψ":{"ha":926,"x_min":0,"x_max":772,"o":"m 463 463 l 463 0 l 309 0 l 309 463 l 154 463 l 154 617 l 309 617 l 309 1080 l 463 1080 l 463 617 l 617 617 l 617 463 l 463 463 m 772 617 l 617 617 l 617 1080 l 772 1080 l 772 617 m 154 617 l 0 617 l 0 1080 l 154 1080 l 154 617 z "},"ψ":{"ha":926,"x_min":0,"x_max":772,"o":"m 463 154 l 463 -154 l 309 -154 l 309 154 l 154 154 l 154 309 l 309 309 l 309 772 l 463 772 l 463 309 l 617 309 l 617 154 l 463 154 m 772 309 l 617 309 l 617 772 l 772 772 l 772 309 m 154 309 l 0 309 l 0 772 l 154 772 l 154 309 z "},"Ω":{"ha":926,"x_min":0,"x_max":772,"o":"m 154 309 l 0 309 l 0 926 l 154 926 l 154 309 m 617 154 l 772 154 l 772 0 l 463 0 l 463 309 l 617 309 l 617 154 m 309 0 l 0 0 l 0 154 l 154 154 l 154 309 l 309 309 l 309 0 m 617 926 l 154 926 l 154 1080 l 617 1080 l 617 926 m 772 309 l 617 309 l 617 926 l 772 926 l 772 309 z "},"ω":{"ha":926,"x_min":0,"x_max":772,"o":"m 154 154 l 0 154 l 0 617 l 154 617 l 154 154 m 772 154 l 617 154 l 617 617 l 772 617 l 772 154 m 463 154 l 309 154 l 309 463 l 463 463 l 463 154 m 309 0 l 154 0 l 154 154 l 309 154 l 309 0 m 617 0 l 463 0 l 463 154 l 617 154 l 617 0 m 309 617 l 154 617 l 154 772 l 309 772 l 309 617 m 617 617 l 463 617 l 463 772 l 617 772 l 617 617 z "},"Π":{"ha":926,"x_min":0,"x_max":772,"o":"m 617 926 l 154 926 l 154 0 l 0 0 l 0 1080 l 772 1080 l 772 0 l 617 0 l 617 926 z "},"π":{"ha":926,"x_min":0,"x_max":772,"o":"m 309 617 l 309 0 l 154 0 l 154 617 l 0 617 l 0 772 l 772 772 l 772 617 l 617 617 l 617 0 l 463 0 l 463 617 l 309 617 z "},"Ϊ":{"ha":617,"x_min":0,"x_max":463,"o":"m 463 1080 l 463 926 l 309 926 l 309 154 l 463 154 l 463 0 l 0 0 l 0 154 l 154 154 l 154 926 l 0 926 l 0 1080 l 463 1080 m 154 1235 l 0 1235 l 0 1389 l 154 1389 l 154 1235 m 463 1235 l 309 1235 l 309 1389 l 463 1389 l 463 1235 z "},"ϊ":{"ha":309,"x_min":-154,"x_max":309,"o":"m 154 0 l 0 0 l 0 772 l 154 772 l 154 0 m 0 926 l -154 926 l -154 1080 l 0 1080 l 0 926 m 309 926 l 154 926 l 154 1080 l 309 1080 l 309 926 z "},"Ϋ":{"ha":926,"x_min":0,"x_max":772,"o":"m 154 617 l 0 617 l 0 1080 l 154 1080 l 154 617 m 463 463 l 463 0 l 309 0 l 309 463 l 154 463 l 154 617 l 617 617 l 617 463 l 463 463 m 772 617 l 617 617 l 617 1080 l 772 1080 l 772 617 m 309 1235 l 154 1235 l 154 1389 l 309 1389 l 309 1235 m 617 1235 l 463 1235 l 463 1389 l 617 1389 l 617 1235 z "},"ϋ":{"ha":926,"x_min":0,"x_max":772,"o":"m 154 154 l 0 154 l 0 772 l 154 772 l 154 154 m 772 154 l 617 154 l 617 772 l 772 772 l 772 154 m 617 0 l 154 0 l 154 154 l 617 154 l 617 0 m 309 926 l 154 926 l 154 1080 l 309 1080 l 309 926 m 617 926 l 463 926 l 463 1080 l 617 1080 l 617 926 z "},"ς":{"ha":926,"x_min":0,"x_max":772,"o":"m 154 154 l 0 154 l 0 617 l 154 617 l 154 154 m 617 617 l 154 617 l 154 772 l 617 772 l 617 617 m 463 -309 l 309 -309 l 309 -154 l 463 -154 l 463 -309 m 463 0 l 154 0 l 154 154 l 463 154 l 463 0 m 617 -154 l 463 -154 l 463 0 l 617 0 l 617 -154 m 772 463 l 617 463 l 617 617 l 772 617 l 772 463 z "},"Ά":{"ha":926,"x_min":0,"x_max":772,"o":"m 463 926 l 309 926 l 309 1080 l 463 1080 l 463 926 m 154 926 l 309 926 l 309 617 l 154 617 l 154 772 l 0 772 l 0 1080 l 154 1080 l 154 926 m 617 617 l 463 617 l 463 926 l 617 926 l 617 617 m 154 309 l 154 0 l 0 0 l 0 617 l 154 617 l 154 463 l 617 463 l 617 617 l 772 617 l 772 0 l 617 0 l 617 309 l 154 309 z "},"ά":{"ha":926,"x_min":0,"x_max":772,"o":"m 154 154 l 0 154 l 0 617 l 154 617 l 154 154 m 617 463 l 463 463 l 463 617 l 617 617 l 617 772 l 772 772 l 772 0 l 617 0 l 617 154 l 463 154 l 463 309 l 617 309 l 617 463 m 463 0 l 154 0 l 154 154 l 463 154 l 463 0 m 463 617 l 154 617 l 154 772 l 463 772 l 463 617 m 463 926 l 309 926 l 309 1235 l 463 1235 l 463 926 z "},"Έ":{"ha":1080,"x_min":0,"x_max":926,"o":"m 926 1080 l 926 926 l 309 926 l 309 617 l 772 617 l 772 463 l 309 463 l 309 154 l 926 154 l 926 0 l 154 0 l 154 772 l 0 772 l 0 1080 l 926 1080 z "},"έ":{"ha":772,"x_min":0,"x_max":617,"o":"m 154 617 l 154 772 l 617 772 l 617 617 l 154 617 m 154 0 l 154 154 l 617 154 l 617 0 l 154 0 m 154 309 l 154 463 l 463 463 l 463 309 l 154 309 m 0 463 l 0 617 l 154 617 l 154 463 l 0 463 m 0 154 l 0 309 l 154 309 l 154 154 l 0 154 m 463 926 l 309 926 l 309 1235 l 463 1235 l 463 926 z "},"Ή":{"ha":1080,"x_min":0,"x_max":926,"o":"m 309 1080 l 309 617 l 772 617 l 772 1080 l 926 1080 l 926 0 l 772 0 l 772 463 l 309 463 l 309 0 l 154 0 l 154 772 l 0 772 l 0 1080 l 309 1080 z "},"ή":{"ha":926,"x_min":0,"x_max":772,"o":"m 154 463 l 154 0 l 0 0 l 0 772 l 154 772 l 154 617 l 309 617 l 309 463 l 154 463 m 772 -154 l 617 -154 l 617 617 l 772 617 l 772 -154 m 617 617 l 309 617 l 309 772 l 617 772 l 617 617 m 463 926 l 309 926 l 309 1235 l 463 1235 l 463 926 z "},"Ί":{"ha":772,"x_min":0,"x_max":617,"o":"m 617 1080 l 617 926 l 463 926 l 463 154 l 617 154 l 617 0 l 154 0 l 154 154 l 309 154 l 309 926 l 154 926 l 154 772 l 0 772 l 0 1080 l 617 1080 z "},"ί":{"ha":309,"x_min":0,"x_max":154,"o":"m 154 0 l 0 0 l 0 772 l 154 772 l 154 0 m 154 926 l 0 926 l 0 1235 l 154 1235 l 154 926 z "},"Ό":{"ha":1080,"x_min":0,"x_max":926,"o":"m 926 154 l 772 154 l 772 926 l 926 926 l 926 154 m 154 926 l 309 926 l 309 154 l 154 154 l 154 772 l 0 772 l 0 1080 l 154 1080 l 154 926 m 772 0 l 309 0 l 309 154 l 772 154 l 772 0 m 772 926 l 309 926 l 309 1080 l 772 1080 l 772 926 z "},"ό":{"ha":926,"x_min":0,"x_max":772,"o":"m 154 154 l 0 154 l 0 617 l 154 617 l 154 154 m 617 617 l 154 617 l 154 772 l 617 772 l 617 617 m 772 154 l 617 154 l 617 617 l 772 617 l 772 154 m 617 0 l 154 0 l 154 154 l 617 154 l 617 0 m 463 926 l 309 926 l 309 1235 l 463 1235 l 463 926 z "},"Ύ":{"ha":1080,"x_min":0,"x_max":926,"o":"m 617 463 l 617 0 l 463 0 l 463 463 l 309 463 l 309 617 l 772 617 l 772 463 l 617 463 m 309 1080 l 309 617 l 154 617 l 154 772 l 0 772 l 0 1080 l 309 1080 m 926 617 l 772 617 l 772 1080 l 926 1080 l 926 617 z "},"ύ":{"ha":926,"x_min":0,"x_max":772,"o":"m 154 154 l 0 154 l 0 772 l 154 772 l 154 154 m 772 154 l 617 154 l 617 772 l 772 772 l 772 154 m 617 0 l 154 0 l 154 154 l 617 154 l 617 0 m 463 926 l 309 926 l 309 1235 l 463 1235 l 463 926 z "},"Ώ":{"ha":1080,"x_min":0,"x_max":926,"o":"m 926 309 l 772 309 l 772 926 l 926 926 l 926 309 m 154 926 l 309 926 l 309 309 l 154 309 l 154 772 l 0 772 l 0 1080 l 154 1080 l 154 926 m 772 154 l 926 154 l 926 0 l 617 0 l 617 309 l 772 309 l 772 154 m 463 0 l 154 0 l 154 154 l 309 154 l 309 309 l 463 309 l 463 0 m 772 926 l 309 926 l 309 1080 l 772 1080 l 772 926 z "},"ώ":{"ha":926,"x_min":0,"x_max":772,"o":"m 154 154 l 0 154 l 0 617 l 154 617 l 154 154 m 772 154 l 617 154 l 617 617 l 772 617 l 772 154 m 463 154 l 309 154 l 309 463 l 463 463 l 463 154 m 309 0 l 154 0 l 154 154 l 309 154 l 309 0 m 617 0 l 463 0 l 463 154 l 617 154 l 617 0 m 309 617 l 154 617 l 154 772 l 309 772 l 309 617 m 617 617 l 463 617 l 463 772 l 617 772 l 617 617 m 463 926 l 309 926 l 309 1235 l 463 1235 l 463 926 z "},"ΐ":{"ha":309,"x_min":-309,"x_max":463,"o":"m 154 0 l 0 0 l 0 772 l 154 772 l 154 0 m -154 926 l -309 926 l -309 1080 l -154 1080 l -154 926 m 463 926 l 309 926 l 309 1080 l 463 1080 l 463 926 m 154 926 l 0 926 l 0 1235 l 154 1235 l 154 926 z "},"ΰ":{"ha":926,"x_min":0,"x_max":772,"o":"m 154 154 l 0 154 l 0 772 l 154 772 l 154 154 m 772 154 l 617 154 l 617 772 l 772 772 l 772 154 m 617 0 l 154 0 l 154 154 l 617 154 l 617 0 m 154 926 l 0 926 l 0 1080 l 154 1080 l 154 926 m 772 926 l 617 926 l 617 1080 l 772 1080 l 772 926 m 463 926 l 309 926 l 309 1235 l 463 1235 l 463 926 z "},"Ḃ":{"ha":926,"x_min":0,"x_max":772,"o":"m 154 154 l 617 154 l 617 0 l 0 0 l 0 1080 l 617 1080 l 617 926 l 154 926 l 154 617 l 617 617 l 617 463 l 154 463 l 154 154 m 772 154 l 617 154 l 617 463 l 772 463 l 772 154 m 772 617 l 617 617 l 617 926 l 772 926 l 772 617 m 463 1235 l 309 1235 l 309 1389 l 463 1389 l 463 1235 z "},"ḃ":{"ha":926,"x_min":0,"x_max":772,"o":"m 617 154 l 617 617 l 772 617 l 772 154 l 617 154 m 154 617 l 309 617 l 309 463 l 154 463 l 154 309 l 309 309 l 309 154 l 154 154 l 154 0 l 0 0 l 0 1080 l 154 1080 l 154 617 m 309 0 l 309 154 l 617 154 l 617 0 l 309 0 m 309 617 l 309 772 l 617 772 l 617 617 l 309 617 m 463 926 l 309 926 l 309 1080 l 463 1080 l 463 926 z "},"Ḋ":{"ha":926,"x_min":0,"x_max":772,"o":"m 463 1080 l 463 926 l 154 926 l 154 154 l 463 154 l 463 0 l 0 0 l 0 1080 l 463 1080 m 772 309 l 617 309 l 617 772 l 772 772 l 772 309 m 617 772 l 463 772 l 463 926 l 617 926 l 617 772 m 617 154 l 463 154 l 463 309 l 617 309 l 617 154 m 309 1235 l 154 1235 l 154 1389 l 309 1389 l 309 1235 z "},"ḋ":{"ha":926,"x_min":0,"x_max":772,"o":"m 154 154 l 0 154 l 0 617 l 154 617 l 154 154 m 617 463 l 463 463 l 463 617 l 617 617 l 617 1080 l 772 1080 l 772 0 l 617 0 l 617 154 l 463 154 l 463 309 l 617 309 l 617 463 m 463 0 l 154 0 l 154 154 l 463 154 l 463 0 m 463 617 l 154 617 l 154 772 l 463 772 l 463 617 m 463 926 l 309 926 l 309 1080 l 463 1080 l 463 926 z "},"Ḟ":{"ha":926,"x_min":0,"x_max":772,"o":"m 772 1080 l 772 926 l 154 926 l 154 617 l 617 617 l 617 463 l 154 463 l 154 0 l 0 0 l 0 1080 l 772 1080 m 463 1235 l 309 1235 l 309 1389 l 463 1389 l 463 1235 z "},"ḟ":{"ha":617,"x_min":0,"x_max":463,"o":"m 309 772 l 463 772 l 463 617 l 309 617 l 309 0 l 154 0 l 154 617 l 0 617 l 0 772 l 154 772 l 154 1080 l 463 1080 l 463 926 l 309 926 l 309 772 m 309 1235 l 154 1235 l 154 1389 l 309 1389 l 309 1235 z "},"Ṁ":{"ha":1235,"x_min":0,"x_max":1080,"o":"m 154 772 l 154 0 l 0 0 l 0 1080 l 154 1080 l 154 926 l 309 926 l 309 772 l 154 772 m 926 772 l 772 772 l 772 926 l 926 926 l 926 1080 l 1080 1080 l 1080 0 l 926 0 l 926 772 m 772 617 l 617 617 l 617 772 l 772 772 l 772 617 m 617 463 l 463 463 l 463 617 l 617 617 l 617 463 m 463 617 l 309 617 l 309 772 l 463 772 l 463 617 m 617 1235 l 463 1235 l 463 1389 l 617 1389 l 617 1235 z "},"ṁ":{"ha":1235,"x_min":0,"x_max":1080,"o":"m 617 0 l 463 0 l 463 617 l 617 617 l 617 0 m 463 772 l 463 617 l 154 617 l 154 0 l 0 0 l 0 772 l 463 772 m 926 617 l 617 617 l 617 772 l 926 772 l 926 617 m 1080 0 l 926 0 l 926 617 l 1080 617 l 1080 0 m 617 926 l 463 926 l 463 1080 l 617 1080 l 617 926 z "},"Ṗ":{"ha":926,"x_min":0,"x_max":772,"o":"m 772 617 l 617 617 l 617 926 l 772 926 l 772 617 m 617 1080 l 617 926 l 154 926 l 154 617 l 617 617 l 617 463 l 154 463 l 154 0 l 0 0 l 0 1080 l 617 1080 m 463 1235 l 309 1235 l 309 1389 l 463 1389 l 463 1235 z "},"ṗ":{"ha":926,"x_min":0,"x_max":772,"o":"m 617 154 l 617 617 l 772 617 l 772 154 l 617 154 m 154 309 l 309 309 l 309 154 l 154 154 l 154 -309 l 0 -309 l 0 772 l 154 772 l 154 617 l 309 617 l 309 463 l 154 463 l 154 309 m 309 617 l 309 772 l 617 772 l 617 617 l 309 617 m 309 0 l 309 154 l 617 154 l 617 0 l 309 0 m 463 926 l 309 926 l 309 1080 l 463 1080 l 463 926 z "},"Ṡ":{"ha":926,"x_min":0,"x_max":772,"o":"m 154 154 l 0 154 l 0 309 l 154 309 l 154 154 m 617 0 l 154 0 l 154 154 l 617 154 l 617 0 m 772 154 l 617 154 l 617 463 l 772 463 l 772 154 m 617 926 l 154 926 l 154 1080 l 617 1080 l 617 926 m 772 772 l 617 772 l 617 926 l 772 926 l 772 772 m 154 617 l 0 617 l 0 926 l 154 926 l 154 617 m 617 463 l 154 463 l 154 617 l 617 617 l 617 463 m 463 1235 l 309 1235 l 309 1389 l 463 1389 l 463 1235 z "},"ṡ":{"ha":926,"x_min":0,"x_max":772,"o":"m 617 0 l 0 0 l 0 154 l 617 154 l 617 0 m 772 154 l 617 154 l 617 309 l 772 309 l 772 154 m 617 309 l 154 309 l 154 463 l 617 463 l 617 309 m 154 463 l 0 463 l 0 617 l 154 617 l 154 463 m 772 617 l 154 617 l 154 772 l 772 772 l 772 617 m 463 926 l 309 926 l 309 1080 l 463 1080 l 463 926 z "},"Ṫ":{"ha":926,"x_min":0,"x_max":772,"o":"m 309 926 l 0 926 l 0 1080 l 772 1080 l 772 926 l 463 926 l 463 0 l 309 0 l 309 926 m 463 1235 l 309 1235 l 309 1389 l 463 1389 l 463 1235 z "},"ṫ":{"ha":617,"x_min":0,"x_max":463,"o":"m 309 772 l 463 772 l 463 617 l 309 617 l 309 154 l 463 154 l 463 0 l 154 0 l 154 617 l 0 617 l 0 772 l 154 772 l 154 1080 l 309 1080 l 309 772 m 309 1235 l 154 1235 l 154 1389 l 309 1389 l 309 1235 z "},"Ď":{"ha":926,"x_min":0,"x_max":772,"o":"m 772 309 l 617 309 l 617 772 l 772 772 l 772 309 m 463 1235 l 309 1235 l 309 1389 l 463 1389 l 463 1235 m 154 1235 l 0 1235 l 0 1389 l 154 1389 l 154 1235 m 309 1080 l 463 1080 l 463 926 l 154 926 l 154 154 l 463 154 l 463 0 l 0 0 l 0 1080 l 154 1080 l 154 1235 l 309 1235 l 309 1080 m 617 154 l 463 154 l 463 309 l 617 309 l 617 154 m 617 772 l 463 772 l 463 926 l 617 926 l 617 772 z "},"ď":{"ha":1235,"x_min":0,"x_max":1080,"o":"m 154 154 l 0 154 l 0 617 l 154 617 l 154 154 m 617 463 l 463 463 l 463 617 l 617 617 l 617 1080 l 772 1080 l 772 0 l 617 0 l 617 154 l 463 154 l 463 309 l 617 309 l 617 463 m 463 0 l 154 0 l 154 154 l 463 154 l 463 0 m 463 617 l 154 617 l 154 772 l 463 772 l 463 617 m 1080 772 l 926 772 l 926 1080 l 1080 1080 l 1080 772 z "},"ʻ":{"ha":309,"x_min":0,"x_max":154,"o":"m 154 926 l 0 926 l 0 1235 l 154 1235 l 154 926 z "},"Ŋ":{"ha":926,"x_min":0,"x_max":772,"o":"m 154 772 l 154 0 l 0 0 l 0 1080 l 154 1080 l 154 926 l 309 926 l 309 772 l 154 772 m 772 154 l 617 154 l 617 926 l 772 926 l 772 154 m 617 926 l 309 926 l 309 1080 l 617 1080 l 617 926 m 617 0 l 463 0 l 463 154 l 617 154 l 617 0 z "},"ŋ":{"ha":926,"x_min":0,"x_max":772,"o":"m 154 463 l 154 0 l 0 0 l 0 772 l 154 772 l 154 617 l 309 617 l 309 463 l 154 463 m 772 0 l 617 0 l 617 617 l 772 617 l 772 0 m 617 617 l 309 617 l 309 772 l 617 772 l 617 617 m 617 -154 l 463 -154 l 463 0 l 617 0 l 617 -154 z "},"Ɛ":{"ha":926,"x_min":0,"x_max":772,"o":"m 617 772 l 617 926 l 772 926 l 772 772 l 617 772 m 154 926 l 154 1080 l 617 1080 l 617 926 l 154 926 m 309 463 l 309 617 l 463 617 l 463 463 l 309 463 m 154 0 l 154 154 l 617 154 l 617 0 l 154 0 m 617 154 l 617 309 l 772 309 l 772 154 l 617 154 m 154 309 l 154 463 l 309 463 l 309 309 l 154 309 m 154 617 l 154 772 l 309 772 l 309 617 l 154 617 m 0 772 l 0 926 l 154 926 l 154 772 l 0 772 m 0 154 l 0 309 l 154 309 l 154 154 l 0 154 z "},"ɛ":{"ha":926,"x_min":0,"x_max":772,"o":"m 617 463 l 617 617 l 772 617 l 772 463 l 617 463 m 154 617 l 154 772 l 617 772 l 617 617 l 154 617 m 154 0 l 154 154 l 617 154 l 617 0 l 154 0 m 617 154 l 617 309 l 772 309 l 772 154 l 617 154 m 154 309 l 154 463 l 309 463 l 309 309 l 154 309 m 0 463 l 0 617 l 154 617 l 154 463 l 0 463 m 0 154 l 0 309 l 154 309 l 154 154 l 0 154 z "},"Ɨ":{"ha":617,"x_min":0,"x_max":463,"o":"m 154 617 l 154 926 l 0 926 l 0 1080 l 463 1080 l 463 926 l 309 926 l 309 617 l 463 617 l 463 463 l 309 463 l 309 154 l 463 154 l 463 0 l 0 0 l 0 154 l 154 154 l 154 463 l 0 463 l 0 617 l 154 617 z "},"ɨ":{"ha":617,"x_min":0,"x_max":463,"o":"m 309 926 l 154 926 l 154 1080 l 309 1080 l 309 926 m 309 309 l 309 0 l 154 0 l 154 309 l 0 309 l 0 463 l 154 463 l 154 772 l 309 772 l 309 463 l 463 463 l 463 309 l 309 309 z "},"Ʉ":{"ha":926,"x_min":0,"x_max":772,"o":"m 617 0 l 154 0 l 154 154 l 617 154 l 617 0 m 154 463 l 154 154 l 0 154 l 0 1080 l 154 1080 l 154 617 l 617 617 l 617 1080 l 772 1080 l 772 154 l 617 154 l 617 463 l 154 463 z "},"ʉ":{"ha":926,"x_min":0,"x_max":772,"o":"m 617 0 l 154 0 l 154 154 l 617 154 l 617 0 m 154 309 l 154 154 l 0 154 l 0 772 l 154 772 l 154 463 l 617 463 l 617 772 l 772 772 l 772 154 l 617 154 l 617 309 l 154 309 z "},"ʔ":{"ha":772,"x_min":0,"x_max":617,"o":"m 154 772 l 0 772 l 0 926 l 154 926 l 154 772 m 463 926 l 154 926 l 154 1080 l 463 1080 l 463 926 m 617 463 l 463 463 l 463 926 l 617 926 l 617 463 m 463 0 l 309 0 l 309 463 l 463 463 l 463 0 z "},"Ɖ":{"ha":926,"x_min":-154,"x_max":772,"o":"m 772 309 l 617 309 l 617 772 l 772 772 l 772 309 m 0 617 l 0 1080 l 463 1080 l 463 926 l 154 926 l 154 617 l 309 617 l 309 463 l 154 463 l 154 154 l 463 154 l 463 0 l 0 0 l 0 463 l -154 463 l -154 617 l 0 617 m 617 154 l 463 154 l 463 309 l 617 309 l 617 154 m 617 772 l 463 772 l 463 926 l 617 926 l 617 772 z "},"ɖ":{"ha":926,"x_min":0,"x_max":926,"o":"m 154 154 l 0 154 l 0 617 l 154 617 l 154 154 m 617 463 l 463 463 l 463 617 l 617 617 l 617 1080 l 772 1080 l 772 0 l 617 0 l 617 154 l 463 154 l 463 309 l 617 309 l 617 463 m 463 0 l 154 0 l 154 154 l 463 154 l 463 0 m 463 617 l 154 617 l 154 772 l 463 772 l 463 617 m 926 -154 l 772 -154 l 772 0 l 926 0 l 926 -154 z "},"Ɓ":{"ha":1080,"x_min":0,"x_max":926,"o":"m 926 154 l 772 154 l 772 463 l 926 463 l 926 154 m 772 1080 l 772 926 l 309 926 l 309 617 l 772 617 l 772 463 l 309 463 l 309 154 l 772 154 l 772 0 l 154 0 l 154 926 l 0 926 l 0 1080 l 772 1080 m 926 617 l 772 617 l 772 926 l 926 926 l 926 617 z "},"ɓ":{"ha":926,"x_min":0,"x_max":772,"o":"m 617 154 l 617 617 l 772 617 l 772 154 l 617 154 m 154 926 l 154 617 l 309 617 l 309 463 l 154 463 l 154 309 l 309 309 l 309 154 l 154 154 l 154 0 l 0 0 l 0 1080 l 309 1080 l 309 926 l 154 926 m 309 617 l 309 772 l 617 772 l 617 617 l 309 617 m 309 0 l 309 154 l 617 154 l 617 0 l 309 0 z "},"ʕ":{"ha":772,"x_min":0,"x_max":617,"o":"m 463 772 l 463 926 l 617 926 l 617 772 l 463 772 m 154 926 l 154 1080 l 463 1080 l 463 926 l 154 926 m 0 463 l 0 926 l 154 926 l 154 463 l 0 463 m 154 0 l 154 463 l 309 463 l 309 0 l 154 0 z "},"Ʋ":{"ha":926,"x_min":0,"x_max":772,"o":"m 154 154 l 0 154 l 0 1080 l 154 1080 l 154 154 m 772 154 l 617 154 l 617 926 l 463 926 l 463 1080 l 772 1080 l 772 154 m 617 0 l 154 0 l 154 154 l 617 154 l 617 0 z "},"ʋ":{"ha":926,"x_min":0,"x_max":772,"o":"m 154 154 l 0 154 l 0 772 l 154 772 l 154 154 m 772 154 l 617 154 l 617 617 l 463 617 l 463 772 l 772 772 l 772 154 m 617 0 l 154 0 l 154 154 l 617 154 l 617 0 z "},"Ṛ":{"ha":926,"x_min":0,"x_max":772,"o":"m 772 617 l 617 617 l 617 926 l 772 926 l 772 617 m 772 0 l 617 0 l 617 154 l 772 154 l 772 0 m 617 154 l 463 154 l 463 309 l 617 309 l 617 154 m 617 1080 l 617 926 l 154 926 l 154 617 l 617 617 l 617 463 l 463 463 l 463 309 l 309 309 l 309 463 l 154 463 l 154 0 l 0 0 l 0 1080 l 617 1080 m 463 -309 l 309 -309 l 309 -154 l 463 -154 l 463 -309 z "},"ṛ":{"ha":772,"x_min":0,"x_max":617,"o":"m 463 463 l 309 463 l 309 617 l 463 617 l 463 463 m 617 617 l 463 617 l 463 772 l 617 772 l 617 617 m 154 309 l 154 0 l 0 0 l 0 772 l 154 772 l 154 463 l 309 463 l 309 309 l 154 309 m 309 -309 l 154 -309 l 154 -154 l 309 -154 l 309 -309 z "},"Ṭ":{"ha":926,"x_min":0,"x_max":772,"o":"m 309 926 l 0 926 l 0 1080 l 772 1080 l 772 926 l 463 926 l 463 0 l 309 0 l 309 926 m 463 -309 l 309 -309 l 309 -154 l 463 -154 l 463 -309 z "},"ṭ":{"ha":617,"x_min":0,"x_max":463,"o":"m 309 772 l 463 772 l 463 617 l 309 617 l 309 154 l 463 154 l 463 0 l 154 0 l 154 617 l 0 617 l 0 772 l 154 772 l 154 1080 l 309 1080 l 309 772 m 309 -309 l 154 -309 l 154 -154 l 309 -154 l 309 -309 z "},"Ɣ":{"ha":926,"x_min":0,"x_max":772,"o":"m 463 154 l 309 154 l 309 309 l 463 309 l 463 154 m 309 309 l 154 309 l 154 617 l 309 617 l 309 309 m 617 309 l 463 309 l 463 617 l 617 617 l 617 309 m 154 617 l 0 617 l 0 1080 l 154 1080 l 154 617 m 772 617 l 617 617 l 617 1080 l 772 1080 l 772 617 m 309 0 l 154 0 l 154 154 l 309 154 l 309 0 m 463 -154 l 309 -154 l 309 0 l 463 0 l 463 -154 m 617 0 l 463 0 l 463 154 l 617 154 l 617 0 z "},"ɣ":{"ha":926,"x_min":0,"x_max":772,"o":"m 463 0 l 309 0 l 309 154 l 463 154 l 463 0 m 309 154 l 154 154 l 154 463 l 309 463 l 309 154 m 617 154 l 463 154 l 463 463 l 617 463 l 617 154 m 154 463 l 0 463 l 0 772 l 154 772 l 154 463 m 772 463 l 617 463 l 617 772 l 772 772 l 772 463 m 309 -154 l 154 -154 l 154 0 l 309 0 l 309 -154 m 463 -309 l 309 -309 l 309 -154 l 463 -154 l 463 -309 m 617 -154 l 463 -154 l 463 0 l 617 0 l 617 -154 z "},"Ʒ":{"ha":926,"x_min":0,"x_max":772,"o":"m 617 926 l 154 926 l 154 1080 l 617 1080 l 617 926 m 463 463 l 309 463 l 309 617 l 463 617 l 463 463 m 617 -154 l 154 -154 l 154 0 l 617 0 l 617 -154 m 154 0 l 0 0 l 0 154 l 154 154 l 154 0 m 617 309 l 463 309 l 463 463 l 617 463 l 617 309 m 617 617 l 463 617 l 463 772 l 617 772 l 617 617 m 772 772 l 617 772 l 617 926 l 772 926 l 772 772 m 772 0 l 617 0 l 617 309 l 772 309 l 772 0 z "},"ʒ":{"ha":926,"x_min":0,"x_max":772,"o":"m 617 617 l 154 617 l 154 772 l 617 772 l 617 617 m 617 -154 l 154 -154 l 154 0 l 617 0 l 617 -154 m 154 0 l 0 0 l 0 154 l 154 154 l 154 0 m 617 309 l 463 309 l 463 463 l 617 463 l 617 309 m 772 463 l 617 463 l 617 617 l 772 617 l 772 463 m 772 0 l 617 0 l 617 309 l 772 309 l 772 0 z "},"Ɲ":{"ha":1080,"x_min":-154,"x_max":926,"o":"m 463 617 l 309 617 l 309 926 l 463 926 l 463 617 m 617 309 l 463 309 l 463 617 l 617 617 l 617 309 m 154 926 l 154 0 l 0 0 l 0 1080 l 309 1080 l 309 926 l 154 926 m 772 309 l 772 1080 l 926 1080 l 926 0 l 772 0 l 772 154 l 617 154 l 617 309 l 772 309 m 0 -154 l -154 -154 l -154 0 l 0 0 l 0 -154 z "},"ɲ":{"ha":926,"x_min":-154,"x_max":772,"o":"m 154 463 l 154 0 l 0 0 l 0 772 l 154 772 l 154 617 l 309 617 l 309 463 l 154 463 m 772 0 l 617 0 l 617 617 l 772 617 l 772 0 m 617 617 l 309 617 l 309 772 l 617 772 l 617 617 m 0 -154 l -154 -154 l -154 0 l 0 0 l 0 -154 z "},"Ɗ":{"ha":1080,"x_min":0,"x_max":926,"o":"m 926 309 l 772 309 l 772 772 l 926 772 l 926 309 m 617 1080 l 617 926 l 309 926 l 309 154 l 617 154 l 617 0 l 154 0 l 154 926 l 0 926 l 0 1080 l 617 1080 m 772 154 l 617 154 l 617 309 l 772 309 l 772 154 m 772 772 l 617 772 l 617 926 l 772 926 l 772 772 z "},"ɗ":{"ha":1080,"x_min":0,"x_max":926,"o":"m 154 154 l 0 154 l 0 617 l 154 617 l 154 154 m 772 926 l 772 0 l 617 0 l 617 154 l 463 154 l 463 309 l 617 309 l 617 463 l 463 463 l 463 617 l 617 617 l 617 1080 l 926 1080 l 926 926 l 772 926 m 463 617 l 154 617 l 154 772 l 463 772 l 463 617 m 463 0 l 154 0 l 154 154 l 463 154 l 463 0 z "},"Ƙ":{"ha":1080,"x_min":0,"x_max":926,"o":"m 772 926 l 617 926 l 617 1080 l 772 1080 l 772 926 m 154 617 l 309 617 l 309 463 l 154 463 l 154 0 l 0 0 l 0 1080 l 154 1080 l 154 617 m 463 309 l 309 309 l 309 463 l 463 463 l 463 309 m 617 154 l 463 154 l 463 309 l 617 309 l 617 154 m 772 0 l 617 0 l 617 154 l 772 154 l 772 0 m 463 617 l 309 617 l 309 772 l 463 772 l 463 617 m 617 772 l 463 772 l 463 926 l 617 926 l 617 772 m 926 772 l 772 772 l 772 926 l 926 926 l 926 772 z "},"ƙ":{"ha":772,"x_min":0,"x_max":617,"o":"m 617 0 l 463 0 l 463 154 l 617 154 l 617 0 m 154 926 l 154 463 l 309 463 l 309 309 l 154 309 l 154 0 l 0 0 l 0 1080 l 309 1080 l 309 926 l 154 926 m 463 154 l 309 154 l 309 309 l 463 309 l 463 154 m 617 617 l 463 617 l 463 772 l 617 772 l 617 617 m 463 463 l 309 463 l 309 617 l 463 617 l 463 463 z "},"Ƴ":{"ha":1080,"x_min":0,"x_max":926,"o":"m 154 617 l 0 617 l 0 1080 l 154 1080 l 154 617 m 772 926 l 772 617 l 617 617 l 617 1080 l 926 1080 l 926 926 l 772 926 m 463 463 l 463 0 l 309 0 l 309 463 l 154 463 l 154 617 l 617 617 l 617 463 l 463 463 z "},"ƴ":{"ha":1080,"x_min":0,"x_max":926,"o":"m 154 463 l 0 463 l 0 772 l 154 772 l 154 463 m 772 617 l 772 463 l 617 463 l 617 772 l 926 772 l 926 617 l 772 617 m 617 154 l 463 154 l 463 463 l 617 463 l 617 154 m 309 154 l 154 154 l 154 463 l 309 463 l 309 154 m 309 -309 l 0 -309 l 0 -154 l 309 -154 l 309 -309 m 463 -154 l 309 -154 l 309 154 l 463 154 l 463 -154 z "},"Ḿ":{"ha":1235,"x_min":0,"x_max":1080,"o":"m 154 772 l 154 0 l 0 0 l 0 1080 l 154 1080 l 154 926 l 309 926 l 309 772 l 154 772 m 926 772 l 772 772 l 772 926 l 926 926 l 926 1080 l 1080 1080 l 1080 0 l 926 0 l 926 772 m 772 617 l 617 617 l 617 772 l 772 772 l 772 617 m 617 463 l 463 463 l 463 617 l 617 617 l 617 463 m 463 617 l 309 617 l 309 772 l 463 772 l 463 617 m 772 1235 l 617 1235 l 617 1389 l 772 1389 l 772 1235 m 617 1080 l 463 1080 l 463 1235 l 617 1235 l 617 1080 z "},"ḿ":{"ha":1235,"x_min":0,"x_max":1080,"o":"m 617 0 l 463 0 l 463 617 l 617 617 l 617 0 m 463 772 l 463 617 l 154 617 l 154 0 l 0 0 l 0 772 l 463 772 m 926 617 l 617 617 l 617 772 l 926 772 l 926 617 m 1080 0 l 926 0 l 926 617 l 1080 617 l 1080 0 m 772 1080 l 617 1080 l 617 1235 l 772 1235 l 772 1080 m 617 926 l 463 926 l 463 1080 l 617 1080 l 617 926 z "},"Ẅ":{"ha":1235,"x_min":0,"x_max":1080,"o":"m 154 309 l 0 309 l 0 1080 l 154 1080 l 154 309 m 617 617 l 463 617 l 463 926 l 617 926 l 617 617 m 1080 309 l 926 309 l 926 1080 l 1080 1080 l 1080 309 m 309 0 l 154 0 l 154 309 l 309 309 l 309 0 m 926 0 l 772 0 l 772 309 l 926 309 l 926 0 m 463 309 l 309 309 l 309 617 l 463 617 l 463 309 m 772 309 l 617 309 l 617 617 l 772 617 l 772 309 m 463 1235 l 309 1235 l 309 1389 l 463 1389 l 463 1235 m 772 1235 l 617 1235 l 617 1389 l 772 1389 l 772 1235 z "},"ẅ":{"ha":1235,"x_min":0,"x_max":1080,"o":"m 154 154 l 0 154 l 0 772 l 154 772 l 154 154 m 309 0 l 154 0 l 154 154 l 309 154 l 309 0 m 617 309 l 463 309 l 463 617 l 617 617 l 617 309 m 926 0 l 772 0 l 772 154 l 926 154 l 926 0 m 1080 154 l 926 154 l 926 772 l 1080 772 l 1080 154 m 463 154 l 309 154 l 309 309 l 463 309 l 463 154 m 772 154 l 617 154 l 617 309 l 772 309 l 772 154 m 463 926 l 309 926 l 309 1080 l 463 1080 l 463 926 m 772 926 l 617 926 l 617 1080 l 772 1080 l 772 926 z "},"Ẁ":{"ha":1235,"x_min":0,"x_max":1080,"o":"m 154 309 l 0 309 l 0 1080 l 154 1080 l 154 309 m 617 617 l 463 617 l 463 926 l 617 926 l 617 617 m 1080 309 l 926 309 l 926 1080 l 1080 1080 l 1080 309 m 309 0 l 154 0 l 154 309 l 309 309 l 309 0 m 926 0 l 772 0 l 772 309 l 926 309 l 926 0 m 463 309 l 309 309 l 309 617 l 463 617 l 463 309 m 772 309 l 617 309 l 617 617 l 772 617 l 772 309 m 463 1235 l 309 1235 l 309 1389 l 463 1389 l 463 1235 m 617 1080 l 463 1080 l 463 1235 l 617 1235 l 617 1080 z "},"ẁ":{"ha":1235,"x_min":0,"x_max":1080,"o":"m 154 154 l 0 154 l 0 772 l 154 772 l 154 154 m 309 0 l 154 0 l 154 154 l 309 154 l 309 0 m 617 309 l 463 309 l 463 617 l 617 617 l 617 309 m 926 0 l 772 0 l 772 154 l 926 154 l 926 0 m 1080 154 l 926 154 l 926 772 l 1080 772 l 1080 154 m 463 154 l 309 154 l 309 309 l 463 309 l 463 154 m 772 154 l 617 154 l 617 309 l 772 309 l 772 154 m 463 1080 l 309 1080 l 309 1235 l 463 1235 l 463 1080 m 617 926 l 463 926 l 463 1080 l 617 1080 l 617 926 z "},"Ẃ":{"ha":1235,"x_min":0,"x_max":1080,"o":"m 154 309 l 0 309 l 0 1080 l 154 1080 l 154 309 m 617 617 l 463 617 l 463 926 l 617 926 l 617 617 m 1080 309 l 926 309 l 926 1080 l 1080 1080 l 1080 309 m 309 0 l 154 0 l 154 309 l 309 309 l 309 0 m 926 0 l 772 0 l 772 309 l 926 309 l 926 0 m 463 309 l 309 309 l 309 617 l 463 617 l 463 309 m 772 309 l 617 309 l 617 617 l 772 617 l 772 309 m 772 1235 l 617 1235 l 617 1389 l 772 1389 l 772 1235 m 617 1080 l 463 1080 l 463 1235 l 617 1235 l 617 1080 z "},"ẃ":{"ha":1235,"x_min":0,"x_max":1080,"o":"m 154 154 l 0 154 l 0 772 l 154 772 l 154 154 m 309 0 l 154 0 l 154 154 l 309 154 l 309 0 m 617 309 l 463 309 l 463 617 l 617 617 l 617 309 m 926 0 l 772 0 l 772 154 l 926 154 l 926 0 m 1080 154 l 926 154 l 926 772 l 1080 772 l 1080 154 m 463 154 l 309 154 l 309 309 l 463 309 l 463 154 m 772 154 l 617 154 l 617 309 l 772 309 l 772 154 m 772 1080 l 617 1080 l 617 1235 l 772 1235 l 772 1080 m 617 926 l 463 926 l 463 1080 l 617 1080 l 617 926 z "},"Ẇ":{"ha":1235,"x_min":0,"x_max":1080,"o":"m 154 309 l 0 309 l 0 1080 l 154 1080 l 154 309 m 617 617 l 463 617 l 463 926 l 617 926 l 617 617 m 1080 309 l 926 309 l 926 1080 l 1080 1080 l 1080 309 m 309 0 l 154 0 l 154 309 l 309 309 l 309 0 m 926 0 l 772 0 l 772 309 l 926 309 l 926 0 m 463 309 l 309 309 l 309 617 l 463 617 l 463 309 m 772 309 l 617 309 l 617 617 l 772 617 l 772 309 m 617 1235 l 463 1235 l 463 1389 l 617 1389 l 617 1235 z "},"ẇ":{"ha":1235,"x_min":0,"x_max":1080,"o":"m 154 154 l 0 154 l 0 772 l 154 772 l 154 154 m 309 0 l 154 0 l 154 154 l 309 154 l 309 0 m 617 309 l 463 309 l 463 617 l 617 617 l 617 309 m 926 0 l 772 0 l 772 154 l 926 154 l 926 0 m 1080 154 l 926 154 l 926 772 l 1080 772 l 1080 154 m 463 154 l 309 154 l 309 309 l 463 309 l 463 154 m 772 154 l 617 154 l 617 309 l 772 309 l 772 154 m 617 926 l 463 926 l 463 1080 l 617 1080 l 617 926 z "},"Ẉ":{"ha":1235,"x_min":0,"x_max":1080,"o":"m 154 309 l 0 309 l 0 1080 l 154 1080 l 154 309 m 617 617 l 463 617 l 463 926 l 617 926 l 617 617 m 1080 309 l 926 309 l 926 1080 l 1080 1080 l 1080 309 m 309 0 l 154 0 l 154 309 l 309 309 l 309 0 m 926 0 l 772 0 l 772 309 l 926 309 l 926 0 m 463 309 l 309 309 l 309 617 l 463 617 l 463 309 m 772 309 l 617 309 l 617 617 l 772 617 l 772 309 m 617 -309 l 463 -309 l 463 -154 l 617 -154 l 617 -309 z "},"ẉ":{"ha":1235,"x_min":0,"x_max":1080,"o":"m 154 154 l 0 154 l 0 772 l 154 772 l 154 154 m 309 0 l 154 0 l 154 154 l 309 154 l 309 0 m 617 309 l 463 309 l 463 617 l 617 617 l 617 309 m 926 0 l 772 0 l 772 154 l 926 154 l 926 0 m 1080 154 l 926 154 l 926 772 l 1080 772 l 1080 154 m 463 154 l 309 154 l 309 309 l 463 309 l 463 154 m 772 154 l 617 154 l 617 309 l 772 309 l 772 154 m 617 -309 l 463 -309 l 463 -154 l 617 -154 l 617 -309 z "},"Ŧ":{"ha":926,"x_min":0,"x_max":772,"o":"m 309 617 l 309 926 l 0 926 l 0 1080 l 772 1080 l 772 926 l 463 926 l 463 617 l 617 617 l 617 463 l 463 463 l 463 0 l 309 0 l 309 463 l 154 463 l 154 617 l 309 617 z "},"ŧ":{"ha":617,"x_min":0,"x_max":463,"o":"m 154 463 l 154 617 l 0 617 l 0 772 l 154 772 l 154 1080 l 309 1080 l 309 772 l 463 772 l 463 617 l 309 617 l 309 463 l 463 463 l 463 309 l 309 309 l 309 154 l 463 154 l 463 0 l 154 0 l 154 309 l 0 309 l 0 463 l 154 463 z "},"Ɠ":{"ha":926,"x_min":0,"x_max":772,"o":"m 154 154 l 0 154 l 0 926 l 154 926 l 154 154 m 154 926 l 154 1080 l 617 1080 l 617 1235 l 772 1235 l 772 926 l 154 926 m 617 154 l 617 463 l 309 463 l 309 617 l 772 617 l 772 0 l 154 0 l 154 154 l 617 154 z "}}}
